<?xml version="1.0" standalone="no"?>
<!DOCTYPE svg PUBLIC "-//W3C//DTD SVG 1.1//EN" "http://www.w3.org/Graphics/SVG/1.1/DTD/svg11.dtd" >
<svg>
<metadata>
Created by FontForge 20090914 at Thu Mar  4 23:37:52 2021
 By www-data
Copyright 2011 The Montserrat Project Authors (https://github.com/JulietaUla/Montserrat)
</metadata>
<defs>
<font id="Montserrat-Medium" horiz-adv-x="0" >
  <font-face 
    font-family="Montserrat Medium"
    font-weight="500"
    font-stretch="normal"
    units-per-em="1000"
    panose-1="0 0 6 0 0 0 0 0 0 0"
    ascent="800"
    descent="-200"
    x-height="530"
    cap-height="700"
    bbox="-753 -224.002 1153 982"
    underline-thickness="50"
    underline-position="-50"
    unicode-range="U+000D-U+2215"
  />
<missing-glyph horiz-adv-x="587" 
d="M40 700h507v-700h-507v700zM467 70v560h-347v-560h347z" />
    <glyph glyph-name="fi" unicode="fi" horiz-adv-x="712" 
d="M199 576v-46.001h154v-79h-152v-451h-96v451h-90v79h90v47c0 52.667 15.333 94.334 46 125.001s73.667 46 129 46c21.333 0 41.333 -2.66699 60 -8s34.667 -13 48 -23l-29 -73c-22 16.667 -46.667 25 -74 25c-57.333 0 -86 -31 -86 -93zM524 529.999h96v-530h-96v530z
M525.5 649.999c-12.333 12 -18.5 26.668 -18.5 44.001s6.16699 32.166 18.5 44.499s27.833 18.5 46.5 18.5s34.167 -5.83301 46.5 -17.5s18.5 -26.167 18.5 -43.5c0 -18 -6.16699 -33.167 -18.5 -45.5s-27.833 -18.5 -46.5 -18.5s-34.167 6 -46.5 18z" />
    <glyph glyph-name="fl" unicode="fl" horiz-adv-x="632" 
d="M199 576v-46.001h154v-79h-152v-451h-96v451h-90v79h90v47c0 52.667 15.333 94.334 46 125.001s73.667 46 129 46c21.333 0 41.333 -2.66699 60 -8s34.667 -13 48 -23l-29 -73c-22 16.667 -46.667 25 -74 25c-57.333 0 -86 -31 -86 -93zM444 741.999h96v-742h-96v742z
" />
    <glyph glyph-name=".notdef" horiz-adv-x="587" 
d="M40 700h507v-700h-507v700zM467 70v560h-347v-560h347z" />
    <glyph glyph-name="NULL" 
 />
    <glyph glyph-name="NULL" 
 />
    <glyph glyph-name="nonmarkingreturn" unicode="&#xd;" horiz-adv-x="269" 
 />
    <glyph glyph-name="space" unicode=" " horiz-adv-x="269" 
 />
    <glyph glyph-name="exclam" unicode="!" horiz-adv-x="268" 
d="M78 700h113l-19 -479h-76zM88 12.5c-12.667 12.333 -19 27.5 -19 45.5s6.33301 33.167 19 45.5s28.334 18.5 47.001 18.5s34 -6.16699 46 -18.5s18 -27.5 18 -45.5s-6.16699 -33.167 -18.5 -45.5s-27.5 -18.5 -45.5 -18.5c-18.667 0 -34.334 6.16699 -47.001 18.5z" />
    <glyph glyph-name="quotedbl" unicode="&#x22;" horiz-adv-x="391" 
d="M63 700h84l-7 -270h-71zM244 700h84l-7 -270h-71z" />
    <glyph glyph-name="numbersign" unicode="#" horiz-adv-x="703" 
d="M529 447l-24 -194h139v-73h-148l-22 -180h-71l22 180h-189l-22 -180h-71l22 180h-138v73h147l25 194h-140v73h149l22 180h71l-22 -180h188l22 180h71l-22 -180h138v-73h-147zM458 447h-188l-25 -194h189z" />
    <glyph glyph-name="dollar" unicode="$" horiz-adv-x="621" 
d="M520.5 57c-39.667 -36.667 -97.166 -57.999 -172.499 -63.999v-113h-64v113c-48.667 2.66699 -94.834 11.834 -138.501 27.501s-78.5 35.5 -104.5 59.5l37 78c24 -22 54.333 -40.167 91 -54.5s75 -22.833 115 -25.5v232c-46.667 11.333 -85.5 23.666 -116.5 36.999
s-57 33 -78 59s-31.5 60 -31.5 102c0 52.667 19.167 97.334 57.5 134.001s94.5 58 168.5 64v114h64v-113c38 -1.33301 74.833 -7.33301 110.5 -18s66.5 -25 92.5 -43l-33 -80c-54 34 -110.667 52.667 -170 56v-233c48.667 -12 88.667 -24.5 120 -37.5
s57.833 -32.333 79.5 -58s32.5 -59.834 32.5 -102.501c0 -52.667 -19.833 -97.334 -59.5 -134.001zM189.001 445.001c22 -16 53.667 -29.333 95 -40v216c-42.667 -5.33301 -74.667 -17.833 -96 -37.5s-32 -43.5 -32 -71.5c0 -28.667 11 -51 33 -67zM448.501 113.501
c22.333 19 33.5 42.833 33.5 71.5c0 29.333 -11.5 51.833 -34.5 67.5s-56.167 29.5 -99.5 41.5v-215c44.667 4 78.167 15.5 100.5 34.5z" />
    <glyph glyph-name="percent" unicode="%" horiz-adv-x="843" 
d="M82 377c-30 35.333 -45 81.333 -45 138s15 102.667 45 138s69.333 53 118 53s87.834 -17.5 117.501 -52.5s44.5 -81.167 44.5 -138.5s-14.833 -103.5 -44.5 -138.5s-68.834 -52.5 -117.501 -52.5s-88 17.667 -118 53zM622 700h77l-478 -700h-77zM272 416.5
c17.333 23.667 26 56.5 26 98.5s-8.66699 74.833 -26 98.5s-41.333 35.5 -72 35.5c-30 0 -53.833 -12 -71.5 -36s-26.5 -56.667 -26.5 -98s8.83301 -74 26.5 -98s41.5 -36 71.5 -36c30.667 0 54.667 11.833 72 35.5zM525.5 46.5c-29.667 35 -44.5 81.167 -44.5 138.5
s14.833 103.5 44.5 138.5s68.834 52.5 117.501 52.5s88 -17.667 118 -53s45 -81.333 45 -138s-15 -102.667 -45 -138s-69.333 -53 -118 -53s-87.834 17.5 -117.501 52.5zM714.5 87c17.667 24 26.5 56.667 26.5 98s-8.83301 74 -26.5 98s-41.5 36 -71.5 36
c-30.667 0 -54.667 -11.833 -72 -35.5s-26 -56.5 -26 -98.5s8.66699 -74.833 26 -98.5s41.333 -35.5 72 -35.5c30 0 53.833 12 71.5 36z" />
    <glyph glyph-name="ampersand" unicode="&#x26;" horiz-adv-x="686" 
d="M617 -11l-92.9971 92.9971c-62 -60 -140 -90 -234 -90c-46.667 0 -88.667 7.66699 -126 23s-66.5 36.833 -87.5 64.5s-31.5 59.167 -31.5 94.5c0 42.667 13.167 80.5 39.5 113.5s69.833 66.833 130.5 101.5c-30.667 30.667 -52.334 58.334 -65.001 83.001
s-19 50.334 -19 77.001c0 47.333 17.167 85.333 51.5 114s80.166 43 137.499 43c53.333 0 95.666 -13 126.999 -39s47 -61.667 47 -107c0 -35.333 -11.5 -67 -34.5 -95s-61.167 -57.333 -114.5 -88l173 -172c20 38 34.333 80.333 43 127l77 -25
c-12 -61.333 -32.333 -114.666 -61 -159.999l94 -94zM246.503 612.497c-17.667 -15.667 -26.501 -36.166 -26.501 -61.499c0 -18 4.83301 -35.333 14.5 -52s28.5 -39.334 56.5 -68.001c46 26 77.833 48.333 95.5 67s26.5 39 26.5 61c0 23.333 -8.16699 42 -24.5 56
s-39.166 21 -68.499 21c-31.333 0 -55.833 -7.83301 -73.5 -23.5zM467.002 137.998l-199 198c-48 -26.667 -81.5 -51.5 -100.5 -74.5s-28.5 -48.833 -28.5 -77.5c0 -33.333 14.5 -60.333 43.5 -81s66.833 -31 113.5 -31c69.333 0 126.333 22 171 66z" />
    <glyph glyph-name="quotesingle" unicode="'" horiz-adv-x="210" 
d="M63 700h84l-7 -270h-71z" />
    <glyph glyph-name="parenleft" unicode="(" horiz-adv-x="337" 
d="M126 17.5c-20.667 79.667 -31 165.17 -31 256.503s10.333 177.166 31 257.499s50 150.5 88 210.5h91c-40 -70 -69.333 -143.333 -88 -220s-28 -159.334 -28 -248.001s9.33301 -171.334 28 -248.001s48 -150 88 -220h-91c-38 61.333 -67.333 131.833 -88 211.5z" />
    <glyph glyph-name="parenright" unicode=")" horiz-adv-x="338" 
d="M32 -194c40 70 69.5 143.331 88.5 219.998s28.5 159.334 28.5 248.001s-9.5 171.334 -28.5 248.001s-48.5 150 -88.5 220h91c38.667 -60 68.334 -130 89.001 -210s31 -166 31 -258c0 -91.333 -10.333 -177 -31 -257s-50.334 -150.333 -89.001 -211h-91z" />
    <glyph glyph-name="asterisk" unicode="*" horiz-adv-x="400" 
d="M262 556l119 -67l-31 -55l-121 71l1 -136h-60l1 136l-121 -71l-31 55l120 67l-120 66l31 56l121 -71l-1 135h60l-1 -135l121 71l31 -56z" />
    <glyph glyph-name="plus" unicode="+" horiz-adv-x="582" 
d="M515 310h-182v-179h-84v179h-182v79h182v180h84v-180h182v-79z" />
    <glyph glyph-name="comma" unicode="," horiz-adv-x="227" 
d="M161.5 111.5c12.333 -13 18.501 -29.168 18.501 -48.501c0 -10 -1.16699 -19.667 -3.5 -29s-6.83301 -23.666 -13.5 -42.999l-47 -139h-63l37 149c-12.667 4.66699 -22.834 12.5 -30.501 23.5s-11.5 23.833 -11.5 38.5c0 20 6.33301 36.333 19 49s28.667 19 48 19
c18.667 0 34.167 -6.5 46.5 -19.5z" />
    <glyph glyph-name="hyphen" unicode="-" horiz-adv-x="383" 
d="M57 316h269v-83h-269v83z" />
    <glyph glyph-name="period" unicode="." horiz-adv-x="227" 
d="M66 13.5c-13.333 13 -20.001 29.5 -20.001 49.5c0 19.333 6.66699 35.5 20 48.5s29.333 19.5 48 19.5s34.334 -6.33301 47.001 -19s19 -29 19 -49s-6.5 -36.5 -19.5 -49.5s-28.5 -19.5 -46.5 -19.5c-18.667 0 -34.667 6.5 -48 19.5z" />
    <glyph glyph-name="slash" unicode="/" horiz-adv-x="352" 
d="M302 842h87l-330 -942h-87z" />
    <glyph glyph-name="zero" unicode="0" horiz-adv-x="667" 
d="M186.5 34.5c-43 28.333 -76.833 69.5 -101.5 123.5s-37 118 -37 192s12.333 138 37 192s58.5 95.167 101.5 123.5s92.167 42.5 147.5 42.5c54.667 0 103.5 -14.167 146.5 -42.5s76.833 -69.5 101.5 -123.5s37 -118 37 -192s-12.333 -138 -37 -192
s-58.5 -95.167 -101.5 -123.5s-91.833 -42.5 -146.5 -42.5c-55.333 0 -104.5 14.167 -147.5 42.5zM468.5 150c33.667 46 50.5 112.667 50.5 200s-16.833 154 -50.5 200s-78.5 69 -134.5 69c-56.667 0 -101.834 -23 -135.501 -69s-50.5 -112.667 -50.5 -200
s16.833 -154 50.5 -200s78.834 -69 135.501 -69c56 0 100.833 23 134.5 69z" />
    <glyph glyph-name="one" unicode="1" horiz-adv-x="370" 
d="M265 700v-700h-99v613h-158v87h257z" />
    <glyph glyph-name="two" unicode="2" horiz-adv-x="574" 
d="M540 87l0.00195312 -87h-503v68l285 275c34.667 33.333 58 62.166 70 86.499s18 48.833 18 73.5c0 36.667 -12.833 65.167 -38.5 85.5s-62.5 30.5 -110.5 30.5c-77.333 0 -137 -25.333 -179 -76l-68 59c27.333 33.333 63.166 59.333 107.499 78s93.833 28 148.5 28
c73.333 0 131.666 -17.5 174.999 -52.5s65 -82.5 65 -142.5c0 -37.333 -8 -72.666 -24 -105.999s-46.333 -71.333 -91 -114l-214 -206h359z" />
    <glyph glyph-name="three" unicode="3" horiz-adv-x="572" 
d="M473 342.5c36 -35.667 54 -81.165 54 -136.498c0 -40 -10 -76.167 -30 -108.5s-49.833 -58 -89.5 -77s-88.167 -28.5 -145.5 -28.5c-50 0 -98 7.5 -144 22.5s-83.667 35.833 -113 62.5l46 79c24 -22.667 54.667 -40.834 92 -54.501s77 -20.5 119 -20.5
c52 0 92.5 11 121.5 33s43.5 52.333 43.5 91s-14.333 68.667 -43 90s-72 32 -130 32h-56v70l176 216h-337v87h462v-68l-183 -226c68.667 -6.66699 121 -27.834 157 -63.501z" />
    <glyph glyph-name="four" unicode="4" horiz-adv-x="669" 
d="M657 172h-133v-172h-97v172h-389v70l358 458h108l-343 -442h269v152h94v-152h133v-86z" />
    <glyph glyph-name="five" unicode="5" horiz-adv-x="574" 
d="M468.5 364.5c47 -37.667 70.502 -89.166 70.502 -154.499c0 -41.333 -9.83301 -78.5 -29.5 -111.5s-49.334 -59 -89.001 -78s-88.5 -28.5 -146.5 -28.5c-49.333 0 -97 7.5 -143 22.5s-84 35.833 -114 62.5l46 79c24 -22.667 54.667 -40.834 92 -54.501
s76.666 -20.5 117.999 -20.5c52.667 0 93.5 11.167 122.5 33.5s43.5 52.833 43.5 91.5c0 42 -16 73.833 -48 95.5s-86.667 32.5 -164 32.5h-159l37 366h395v-87h-311l-19 -192h78c100 0 173.5 -18.833 220.5 -56.5z" />
    <glyph glyph-name="six" unicode="6" horiz-adv-x="617" 
d="M473.5 399c36.333 -17.333 64.834 -42.168 85.501 -74.501s31 -69.5 31 -111.5c0 -44 -10.833 -82.667 -32.5 -116s-51.334 -59.166 -89.001 -77.499s-79.834 -27.5 -126.501 -27.5c-94 0 -166.5 30.333 -217.5 91s-76.5 146.667 -76.5 258c0 78 13.833 144.5 41.5 199.5
s66.334 96.667 116.001 125s107.5 42.5 173.5 42.5c34 0 66 -3.5 96 -10.5s56 -17.167 78 -30.5l-38 -78c-33.333 22 -78 33 -134 33c-72.667 0 -129.667 -22.5 -171 -67.5s-62 -110.5 -62 -196.5c0 -10.667 0.333008 -19 1 -25c20 30 47.5 52.833 82.5 68.5
s74.5 23.5 118.5 23.5c46 0 87.167 -8.66699 123.5 -26zM450.001 109.998c28.667 24.667 42.999 57.667 42.999 99s-14.5 74.166 -43.5 98.499s-67.833 36.5 -116.5 36.5c-31.333 0 -59.166 -6 -83.499 -18s-43.333 -28.333 -57 -49s-20.5 -43.667 -20.5 -69
c0 -24.667 6.5 -47.167 19.5 -67.5s32 -36.666 57 -48.999s54.833 -18.5 89.5 -18.5c46 0 83.333 12.333 112 37z" />
    <glyph glyph-name="seven" unicode="7" horiz-adv-x="598" 
d="M558 700v-68l-283 -632h-106l277 613h-320v-125h-96v212h528z" />
    <glyph glyph-name="eight" unicode="8" horiz-adv-x="644" 
d="M568 301c21.333 -28.667 32.001 -62.999 32.001 -102.999c0 -42 -11.333 -78.5 -34 -109.5s-55 -54.833 -97 -71.5s-91.333 -25 -148 -25c-56 0 -104.833 8.33301 -146.5 25s-73.834 40.5 -96.501 71.5s-34 67.5 -34 109.5c0 40 10.5 74.333 31.5 103
s51.5 50.667 91.5 66c-32 15.333 -56.333 35.666 -73 60.999s-25 55.333 -25 90c0 38.667 10.5 72.334 31.5 101.001s50.5 50.667 88.5 66s82 23 132 23c50.667 0 95.167 -7.66699 133.5 -23s68 -37.333 89 -66s31.5 -62.334 31.5 -101.001c0 -34 -8.5 -63.833 -25.5 -89.5
s-41.5 -46.167 -73.5 -61.5c40 -15.333 70.667 -37.333 92 -66zM209.001 596.501c-27.333 -20.333 -41.0029 -47.833 -41.0029 -82.5s13.5 -62 40.5 -82s64.5 -30 112.5 -30c48.667 0 86.834 10 114.501 30s41.5 47.333 41.5 82s-14.167 62.167 -42.5 82.5
s-66.166 30.5 -113.499 30.5s-84.666 -10.167 -111.999 -30.5zM451.998 107.501c32 23 48 54.167 48 93.5c0 38.667 -16 69.167 -48 91.5s-75.667 33.5 -131 33.5s-98.666 -11.167 -129.999 -33.5s-47 -52.833 -47 -91.5c0 -39.333 15.667 -70.5 47 -93.5
s74.666 -34.5 129.999 -34.5s99 11.5 131 34.5z" />
    <glyph glyph-name="nine" unicode="9" horiz-adv-x="617" 
d="M492.5 617c51 -60.667 76.5 -146.665 76.5 -257.998c0 -78 -13.833 -144.5 -41.5 -199.5s-66.334 -96.667 -116.001 -125s-107.5 -42.5 -173.5 -42.5c-34 0 -66 3.5 -96 10.5s-56 17.167 -78 30.5l38 78c34 -22 79 -33 135 -33c72.667 0 129.5 22.5 170.5 67.5
s61.5 110.5 61.5 196.5v25c-20 -30 -47.667 -52.833 -83 -68.5s-75 -23.5 -119 -23.5c-46 0 -87.167 8.66699 -123.5 26s-64.666 42.166 -84.999 74.499s-30.5 69.5 -30.5 111.5c0 44 10.833 82.667 32.5 116s51.167 59.166 88.5 77.499s79.333 27.5 126 27.5
c94 0 166.5 -30.333 217.5 -91zM368 374.002c24.667 12 43.832 28.333 57.499 49s20.5 43.667 20.5 69c0 24.667 -6.5 47.167 -19.5 67.5s-32 36.666 -57 48.999s-55.167 18.5 -90.5 18.5c-46 0 -83.167 -12.333 -111.5 -37s-42.5 -57.667 -42.5 -99
s14.333 -74.166 43 -98.499s67.334 -36.5 116.001 -36.5c31.333 0 59.333 6 84 18z" />
    <glyph glyph-name="colon" unicode=":" horiz-adv-x="227" 
d="M66 417.5c-13.333 13 -20.001 29.5 -20.001 49.5c0 19.333 6.66699 35.5 20 48.5s29.333 19.5 48 19.5s34.334 -6.33301 47.001 -19s19 -29 19 -49s-6.5 -36.5 -19.5 -49.5s-28.5 -19.5 -46.5 -19.5c-18.667 0 -34.667 6.5 -48 19.5zM65.999 13.5
c-13.333 13 -20.001 29.5 -20.001 49.5c0 19.333 6.66699 35.5 20 48.5s29.333 19.5 48 19.5s34.334 -6.33301 47.001 -19s19 -29 19 -49s-6.5 -36.5 -19.5 -49.5s-28.5 -19.5 -46.5 -19.5c-18.667 0 -34.667 6.5 -48 19.5z" />
    <glyph glyph-name="semicolon" unicode=";" horiz-adv-x="227" 
d="M66 417.5c-13.333 13 -20.001 29.5 -20.001 49.5c0 19.333 6.66699 35.5 20 48.5s29.333 19.5 48 19.5s34.334 -6.33301 47.001 -19s19 -29 19 -49s-6.5 -36.5 -19.5 -49.5s-28.5 -19.5 -46.5 -19.5c-18.667 0 -34.667 6.5 -48 19.5zM161.499 111.5
c12.333 -13 18.501 -29.168 18.501 -48.501c0 -10 -1.16699 -19.667 -3.5 -29s-6.83301 -23.666 -13.5 -42.999l-47 -139h-63l37 149c-12.667 4.66699 -22.834 12.5 -30.501 23.5s-11.5 23.833 -11.5 38.5c0 20 6.33301 36.333 19 49s28.667 19 48 19
c18.667 0 34.167 -6.5 46.5 -19.5z" />
    <glyph glyph-name="less" unicode="&#x3c;" horiz-adv-x="582" 
d="M515 487l-355 -137l355 -137v-83l-448 177v86l448 177v-83z" />
    <glyph glyph-name="equal" unicode="=" horiz-adv-x="582" 
d="M67 508h448v-79h-448v79zM67 271h448v-79h-448v79z" />
    <glyph glyph-name="greater" unicode="&#x3e;" horiz-adv-x="582" 
d="M515 393v-86l-448 -177v83l356 137l-356 137v83z" />
    <glyph glyph-name="question" unicode="?" horiz-adv-x="573" 
d="M241.5 291.5c9 20.333 19.998 37.5 32.998 51.5s30.167 30.667 51.5 50c26.667 23.333 46.334 43.5 59.001 60.5s19 37.5 19 61.5c0 32.667 -12.667 58.834 -38 78.501s-60.333 29.5 -105 29.5c-78 0 -137.667 -26.333 -179 -79l-73 52c28 36 63.833 63.667 107.5 83
s94.167 29 151.5 29c72.667 0 130.334 -15.833 173.001 -47.5s64 -75.167 64 -130.5c0 -27.333 -4.5 -51.5 -13.5 -72.5s-19.833 -38.5 -32.5 -52.5s-29.667 -30.667 -51 -50c-27.333 -24.667 -47.5 -46.334 -60.5 -65.001s-19.5 -41.667 -19.5 -69h-100
c0 26.667 4.5 50.167 13.5 70.5zM232.498 12.5c-12.333 12.333 -18.5 27.5 -18.5 45.5s6.16699 33.167 18.5 45.5s27.833 18.5 46.5 18.5s34 -6.16699 46 -18.5s18 -27.5 18 -45.5s-6.16699 -33.167 -18.5 -45.5s-27.5 -18.5 -45.5 -18.5
c-18.667 0 -34.167 6.16699 -46.5 18.5z" />
    <glyph glyph-name="at" unicode="@" horiz-adv-x="1034" 
d="M761 651.5c70.667 -37 125.831 -88.8301 165.498 -155.497s59.5 -142.667 59.5 -228s-15.667 -152.333 -47 -201s-75 -73 -131 -73c-32 0 -58.5 8.16699 -79.5 24.5s-34.5 39.833 -40.5 70.5c-20 -30.667 -46.167 -54.167 -78.5 -70.5s-69.5 -24.5 -111.5 -24.5
c-46.667 0 -88.667 11 -126 33s-66.5 52.5 -87.5 91.5s-31.5 83.167 -31.5 132.5c0 48.667 10.5 92.5 31.5 131.5s50.167 69.333 87.5 91s79.333 32.5 126 32.5c38.667 0 73.667 -7.16699 105 -21.5s57.333 -35.5 78 -63.5v81h87v-360c0 -24.667 5.33301 -42.834 16 -54.501
s24.334 -17.5 41.001 -17.5c29.333 0 52.166 17.167 68.499 51.5s24.5 82.833 24.5 145.5c0 74 -16.667 139.167 -50 195.5s-80.166 100.166 -140.499 131.499s-129.5 47 -207.5 47c-78.667 0 -148.167 -16.333 -208.5 -49s-107.166 -78.334 -140.499 -137.001
s-50 -125.667 -50 -201c0 -76 16.5 -143.333 49.5 -202s79.333 -104.5 139 -137.5s128.5 -49.5 206.5 -49.5c32.667 0 66 3.66699 100 11s65 18.333 93 33l22 -64c-29.333 -15.333 -63.333 -27 -102 -35s-76.334 -12 -113.001 -12c-91.333 0 -172.5 19.5 -243.5 58.5
s-126.167 93.167 -165.5 162.5s-59 147.666 -59 234.999s19.833 165.333 59.5 234s95.334 122.334 167.001 161.001s153.5 58 245.5 58c90 0 170.333 -18.5 241 -55.5zM599.497 94.0029c25.667 14.667 46 35.5 61 62.5s22.5 58.5 22.5 94.5s-7.5 67.5 -22.5 94.5
s-35.333 47.667 -61 62s-54.834 21.5 -87.501 21.5c-50.667 0 -91.667 -16.167 -123 -48.5s-47 -75.5 -47 -129.5s15.833 -97.333 47.5 -130s72.5 -49 122.5 -49c32.667 0 61.834 7.33301 87.501 22z" />
    <glyph glyph-name="A" unicode="A" horiz-adv-x="732" 
d="M551 175h-372l-77 -175h-103l317 700h99l318 -700h-105zM516 255l-151 343l-151 -343h302z" />
    <glyph glyph-name="B" unicode="B" horiz-adv-x="757" 
d="M672 301.5c23.333 -29.667 35 -67.165 35 -112.498c0 -60.667 -22.833 -107.334 -68.5 -140.001s-112.167 -49 -199.5 -49h-334v700h314c80 0 141.833 -16 185.5 -48s65.5 -76.333 65.5 -133c0 -36.667 -8.5 -68.334 -25.5 -95.001s-39.833 -47 -68.5 -61
c40.667 -11.333 72.667 -31.833 96 -61.5zM205 619.002v-224h205c51.333 0 90.833 9.5 118.5 28.5s41.5 46.833 41.5 83.5s-13.833 64.5 -41.5 83.5s-67.167 28.5 -118.5 28.5h-205zM563 109.002c28.667 18.667 42.999 48 42.999 88c0 78 -57 117 -171 117h-230v-233h230
c56.667 0 99.334 9.33301 128.001 28z" />
    <glyph glyph-name="C" unicode="C" horiz-adv-x="723" 
d="M228.5 38.5c-56.333 31 -100.498 73.667 -132.498 128s-48 115.5 -48 183.5s16 129.167 48 183.5s76.333 97 133 128s120 46.5 190 46.5c54.667 0 104.667 -9.16699 150 -27.5s84 -45.5 116 -81.5l-65 -63c-52.667 55.333 -118.334 83 -197.001 83
c-52 0 -99 -11.667 -141 -35s-74.833 -55.5 -98.5 -96.5s-35.5 -86.833 -35.5 -137.5s11.833 -96.5 35.5 -137.5s56.5 -73.167 98.5 -96.5s89 -35 141 -35c78 0 143.667 28 197 84l65 -63c-32 -36 -70.833 -63.333 -116.5 -82s-95.834 -28 -150.501 -28
c-70 0 -133.167 15.5 -189.5 46.5z" />
    <glyph glyph-name="D" unicode="D" horiz-adv-x="826" 
d="M105 700h295c74 0 139.667 -14.667 197 -44s101.833 -70.5 133.5 -123.5s47.5 -113.833 47.5 -182.5s-15.833 -129.5 -47.5 -182.5s-76.167 -94.167 -133.5 -123.5s-123 -44 -197 -44h-295v700zM394 87c56.667 0 106.5 11 149.5 33s76.167 52.833 99.5 92.5
s35 85.5 35 137.5s-11.667 97.833 -35 137.5s-56.5 70.5 -99.5 92.5s-92.833 33 -149.5 33h-189v-526h189z" />
    <glyph glyph-name="E" unicode="E" horiz-adv-x="670" 
d="M613 87v-87h-508v700h494v-87h-394v-215h351v-85h-351v-226h408z" />
    <glyph glyph-name="F" unicode="F" horiz-adv-x="635" 
d="M205 613v-244h351v-86h-351v-283h-100v700h494v-87h-394z" />
    <glyph glyph-name="G" unicode="G" horiz-adv-x="772" 
d="M590 354l95.999 -0.00195312v-273c-34.667 -28.667 -75 -50.667 -121 -66s-94 -23 -144 -23c-70.667 0 -134.334 15.5 -191.001 46.5s-101.167 73.667 -133.5 128s-48.5 115.5 -48.5 183.5s16.167 129.333 48.5 184s77 97.334 134 128.001s121.167 46 192.5 46
c56 0 106.833 -9.16699 152.5 -27.5s84.5 -45.166 116.5 -80.499l-62 -62c-56 54 -123.667 81 -203 81c-53.333 0 -101.166 -11.5 -143.499 -34.5s-75.5 -55 -99.5 -96s-36 -87.167 -36 -138.5c0 -50.667 12 -96.5 36 -137.5s57.167 -73.167 99.5 -96.5
s89.833 -35 142.5 -35c62.667 0 117.334 15 164.001 45v228z" />
    <glyph glyph-name="H" unicode="H" horiz-adv-x="812" 
d="M707 700v-700h-100v312h-402v-312h-100v700h100v-301h402v301h100z" />
    <glyph glyph-name="I" unicode="I" horiz-adv-x="310" 
d="M105 700h100v-700h-100v700z" />
    <glyph glyph-name="J" unicode="J" horiz-adv-x="513" 
d="M78 18.5c-36 17.667 -65 42.5 -87 74.5l58 68c38.667 -55.333 87.334 -83 146.001 -83c39.333 0 69.166 12 89.499 36s30.5 59.333 30.5 106v393h-253v87h352v-475c0 -77.333 -18.5 -135.5 -55.5 -174.5s-91.5 -58.5 -163.5 -58.5c-42 0 -81 8.83301 -117 26.5z" />
    <glyph glyph-name="K" unicode="K" horiz-adv-x="719" 
d="M333 311l-128 -130v-181h-100v700h100v-391l380 391h114l-299 -315l318 -385h-117z" />
    <glyph glyph-name="L" unicode="L" horiz-adv-x="594" 
d="M105 700h100v-613h379v-87h-479v700z" />
    <glyph glyph-name="M" unicode="M" horiz-adv-x="955" 
d="M754 0l-1 510l-253 -425h-46l-253 422v-507h-96v700h82l292 -492l288 492h82l1 -700h-96z" />
    <glyph glyph-name="N" unicode="N" horiz-adv-x="812" 
d="M707 700v-700h-82l-420 522v-522h-100v700h82l420 -522v522h100z" />
    <glyph glyph-name="O" unicode="O" horiz-adv-x="840" 
d="M230 38.5c-56.667 31 -101.167 73.833 -133.5 128.5s-48.5 115.667 -48.5 183s16.167 128.333 48.5 183s76.833 97.5 133.5 128.5s120.334 46.5 191.001 46.5c70 0 133.333 -15.5 190 -46.5s101 -73.667 133 -128s48 -115.5 48 -183.5s-16 -129.167 -48 -183.5
s-76.333 -97 -133 -128s-120 -46.5 -190 -46.5c-70.667 0 -134.334 15.5 -191.001 46.5zM559.5 116c41 23.333 73.333 55.5 97 96.5s35.5 86.833 35.5 137.5s-11.833 96.5 -35.5 137.5s-56 73.167 -97 96.5s-87.167 35 -138.5 35s-97.833 -11.667 -139.5 -35
s-74.334 -55.5 -98.001 -96.5s-35.5 -86.833 -35.5 -137.5s11.833 -96.5 35.5 -137.5s56.334 -73.167 98.001 -96.5s88.167 -35 139.5 -35s97.5 11.667 138.5 35z" />
    <glyph glyph-name="P" unicode="P" horiz-adv-x="722" 
d="M592 635c52 -43.333 78 -103 78 -179s-26 -135.667 -78 -179s-123.333 -65 -214 -65h-173v-212h-100v700h273c90.667 0 162 -21.667 214 -65zM520 339.5c33.333 27 50 65.833 50 116.5s-16.667 89.5 -50 116.5s-81.666 40.5 -144.999 40.5h-170v-314h170
c63.333 0 111.666 13.5 144.999 40.5z" />
    <glyph glyph-name="Q" unicode="Q" horiz-adv-x="840" 
d="M826 -64c-22.667 -26.667 -49.0029 -46.999 -79.0029 -60.999s-62.333 -21 -97 -21c-44 0 -85.167 10.5 -123.5 31.5s-82.166 56.833 -131.499 107.5c-66 3.33301 -125.5 21 -178.5 53s-94.333 74.5 -124 127.5s-44.5 111.833 -44.5 176.5
c0 67.333 16.167 128.333 48.5 183s76.833 97.5 133.5 128.5s120.334 46.5 191.001 46.5c70 0 133.333 -15.5 190 -46.5s101 -73.667 133 -128s48 -115.5 48 -183.5c0 -57.333 -11.5 -110 -34.5 -158s-55.333 -88.333 -97 -121s-89.5 -55.334 -143.5 -68.001
c23.333 -24.667 45.833 -42.5 67.5 -53.5s43.834 -16.5 66.501 -16.5c49.333 0 92 20 128 60zM183.497 212.501c23.667 -41 56.334 -73.167 98.001 -96.5s88.167 -35 139.5 -35c50.667 0 96.667 11.667 138 35s73.833 55.5 97.5 96.5s35.5 86.833 35.5 137.5
s-11.833 96.5 -35.5 137.5s-56.167 73.167 -97.5 96.5s-87.333 35 -138 35c-51.333 0 -97.833 -11.667 -139.5 -35s-74.334 -55.5 -98.001 -96.5s-35.5 -86.833 -35.5 -137.5s11.833 -96.5 35.5 -137.5z" />
    <glyph glyph-name="R" unicode="R" horiz-adv-x="727" 
d="M573 0l-150.999 215c-18.667 -1.33301 -33.334 -2 -44.001 -2h-173v-213h-100v700h273c90.667 0 162 -21.667 214 -65s78 -103 78 -179c0 -54 -13.333 -100 -40 -138s-64.667 -65.667 -114 -83l166 -235h-109zM520.001 339c33.333 27.333 50 66.333 50 117
s-16.667 89.5 -50 116.5s-81.666 40.5 -144.999 40.5h-170v-315h170c63.333 0 111.666 13.667 144.999 41z" />
    <glyph glyph-name="S" unicode="S" horiz-adv-x="621" 
d="M156.5 16.5c-49 16.333 -87.5029 37.498 -115.503 63.498l37 78c26.667 -24 60.834 -43.5 102.501 -58.5s84.5 -22.5 128.5 -22.5c58 0 101.333 9.83301 130 29.5s43 45.834 43 78.501c0 24 -7.83301 43.5 -23.5 58.5s-35 26.5 -58 34.5s-55.5 17 -97.5 27
c-52.667 12.667 -95.167 25.334 -127.5 38.001s-60 32.167 -83 58.5s-34.5 61.833 -34.5 106.5c0 37.333 9.83301 71 29.5 101s49.5 54 89.5 72s89.667 27 149 27c41.333 0 82 -5.33301 122 -16s74.333 -26 103 -46l-33 -80c-29.333 18.667 -60.666 32.834 -93.999 42.501
s-66 14.5 -98 14.5c-56.667 0 -99.167 -10.333 -127.5 -31s-42.5 -47.334 -42.5 -80.001c0 -24 8 -43.5 24 -58.5s35.833 -26.667 59.5 -35s55.834 -17.166 96.501 -26.499c52.667 -12.667 95 -25.334 127 -38.001s59.5 -32 82.5 -58s34.5 -61 34.5 -105
c0 -36.667 -10 -70.167 -30 -100.5s-50.333 -54.333 -91 -72s-90.667 -26.5 -150 -26.5c-52.667 0 -103.5 8.16699 -152.5 24.5z" />
    <glyph glyph-name="T" unicode="T" horiz-adv-x="587" 
d="M244 613h-240v87h579v-87h-240v-613h-99v613z" />
    <glyph glyph-name="U" unicode="U" horiz-adv-x="791" 
d="M177 72c-52 53.333 -78 130 -78 230v398h100v-394c0 -150 65.667 -225 197 -225c64 0 113 18.5 147 55.5s51 93.5 51 169.5v394h97v-398c0 -100.667 -26 -177.5 -78 -230.5s-124.667 -79.5 -218 -79.5s-166 26.667 -218 80z" />
    <glyph glyph-name="V" unicode="V" horiz-adv-x="712" 
d="M713 700l-307 -700h-99l-308 700h108l252 -575l254 575h100z" />
    <glyph glyph-name="W" unicode="W" horiz-adv-x="1126" 
d="M1094 700l-234 -700h-105l-191 559l-191 -559h-107l-234 700h103l189 -569l197 569h92l193 -572l193 572h95z" />
    <glyph glyph-name="X" unicode="X" horiz-adv-x="673" 
d="M545 0l-210 289l-207 -289h-115l263 359l-247 341h114l196 -269l194 269h109l-247 -338l265 -362h-115z" />
    <glyph glyph-name="Y" unicode="Y" horiz-adv-x="647" 
d="M373 242v-242h-99v244l-278 456h107l224 -369l225 369h99z" />
    <glyph glyph-name="Z" unicode="Z" horiz-adv-x="657" 
d="M628 87v-87h-585v68l440 545h-433v87h565v-68l-438 -545h451z" />
    <glyph glyph-name="bracketleft" unicode="[" horiz-adv-x="333" 
d="M105 742h209v-79h-113v-778h113v-79h-209v936z" />
    <glyph glyph-name="backslash" unicode="\" horiz-adv-x="352" 
d="M292 -100l-330 942h87l330 -942h-87z" />
    <glyph glyph-name="bracketright" unicode="]" horiz-adv-x="333" 
d="M19 -194v79h113v778h-113v79h209v-936h-209z" />
    <glyph glyph-name="asciicircum" unicode="^" horiz-adv-x="583" 
d="M431 142l-139 337l-140 -337h-77l177 416h80l176 -416h-77z" />
    <glyph glyph-name="underscore" unicode="_" horiz-adv-x="500" 
d="M0 0h500v-62h-500v62z" />
    <glyph glyph-name="grave" unicode="`" horiz-adv-x="600" 
d="M117 737h122l136 -130h-90z" />
    <glyph glyph-name="a" unicode="a" horiz-adv-x="598" 
d="M452.5 481c39 -36 58.501 -89.6689 58.501 -161.002v-320h-91v70c-16 -24.667 -38.833 -43.5 -68.5 -56.5s-64.834 -19.5 -105.501 -19.5c-59.333 0 -106.833 14.333 -142.5 43s-53.5 66.334 -53.5 113.001s17 84.167 51 112.5s88 42.5 162 42.5h152v19
c0 41.333 -12 73 -36 95s-59.333 33 -106 33c-31.333 0 -62 -5.16699 -92 -15.5s-55.333 -24.166 -76 -41.499l-40 72c27.333 22 60 38.833 98 50.5s78.333 17.5 121 17.5c73.333 0 129.5 -18 168.5 -54zM357.001 92.498c26.667 16.333 45.998 39.5 57.998 69.5v74h-148
c-81.333 0 -122 -27.333 -122 -82c0 -26.667 10.333 -47.667 31 -63s49.334 -23 86.001 -23s68.334 8.16699 95.001 24.5z" />
    <glyph glyph-name="b" unicode="b" horiz-adv-x="682" 
d="M510 501c40.667 -22.667 72.5 -54.332 95.5 -94.999s34.5 -87.667 34.5 -141s-11.5 -100.5 -34.5 -141.5s-54.833 -72.833 -95.5 -95.5s-86.667 -34 -138 -34c-39.333 0 -75.333 7.66699 -108 23s-59.667 37.666 -81 66.999v-84h-92v742h96v-292
c21.333 28 48 49.167 80 63.5s67 21.5 105 21.5c51.333 0 97.333 -11.333 138 -34zM455.5 101.502c27 15.667 48.333 37.667 64 66s23.5 60.833 23.5 97.5s-7.83301 69.167 -23.5 97.5s-37 50.166 -64 65.499s-57.5 23 -91.5 23c-33.333 0 -63.666 -7.66699 -90.999 -23
s-48.666 -37.166 -63.999 -65.499s-23 -60.833 -23 -97.5s7.66699 -69.167 23 -97.5s36.666 -50.333 63.999 -66s57.666 -23.5 90.999 -23.5c34 0 64.5 7.83301 91.5 23.5z" />
    <glyph glyph-name="c" unicode="c" horiz-adv-x="571" 
d="M177.5 29c-42.333 23.333 -75.5 55.498 -99.5 96.498s-36 87.5 -36 139.5s12 98.5 36 139.5s57.167 73 99.5 96s90.5 34.5 144.5 34.5c48 0 90.833 -9.66699 128.5 -29s66.834 -47.333 87.501 -84l-73 -47c-16.667 25.333 -37.334 44.333 -62.001 57s-52 19 -82 19
c-34.667 0 -65.834 -7.66699 -93.501 -23s-49.334 -37.166 -65.001 -65.499s-23.5 -60.833 -23.5 -97.5c0 -37.333 7.83301 -70.166 23.5 -98.499s37.334 -50.166 65.001 -65.499s58.834 -23 93.501 -23c30 0 57.333 6.33301 82 19s45.334 31.667 62.001 57l73 -46
c-20.667 -36.667 -49.834 -64.834 -87.501 -84.501s-80.5 -29.5 -128.5 -29.5c-54 0 -102.167 11.667 -144.5 35z" />
    <glyph glyph-name="d" unicode="d" horiz-adv-x="682" 
d="M591 742v-742.002h-92v84c-21.333 -29.333 -48.333 -51.666 -81 -66.999s-68.667 -23 -108 -23c-51.333 0 -97.333 11.333 -138 34s-72.5 54.5 -95.5 95.5s-34.5 88.167 -34.5 141.5s11.5 100.333 34.5 141s54.833 72.334 95.5 95.001s86.667 34 138 34
c38 0 73 -7.16699 105 -21.5s58.667 -35.5 80 -63.5v292h96zM409 101.498c27.333 15.667 48.666 37.667 63.999 66s23 60.833 23 97.5s-7.66699 69.167 -23 97.5s-36.666 50.166 -63.999 65.499s-57.666 23 -90.999 23c-34 0 -64.5 -7.66699 -91.5 -23
s-48.333 -37.166 -64 -65.499s-23.5 -60.833 -23.5 -97.5s7.83301 -69.167 23.5 -97.5s37 -50.333 64 -66s57.5 -23.5 91.5 -23.5c33.333 0 63.666 7.83301 90.999 23.5z" />
    <glyph glyph-name="e" unicode="e" horiz-adv-x="612" 
d="M568 233h-430.001c6 -46.667 26.5 -84.167 61.5 -112.5s78.5 -42.5 130.5 -42.5c63.333 0 114.333 21.333 153 64l53 -62c-24 -28 -53.833 -49.333 -89.5 -64s-75.5 -22 -119.5 -22c-56 0 -105.667 11.5 -149 34.5s-76.833 55.167 -100.5 96.5s-35.5 88 -35.5 140
c0 51.333 11.5 97.666 34.5 138.999s54.667 73.5 95 96.5s85.833 34.5 136.5 34.5s95.834 -11.5 135.501 -34.5s70.667 -55.167 93 -96.5s33.5 -88.666 33.5 -141.999c0 -7.33301 -0.666992 -17 -2 -29zM192.499 412c-31 -28 -49.167 -64.667 -54.5 -110h340
c-5.33301 44.667 -23.5 81.167 -54.5 109.5s-69.5 42.5 -115.5 42.5s-84.5 -14 -115.5 -42z" />
    <glyph glyph-name="f" unicode="f" horiz-adv-x="353" 
d="M199 576v-46.001h154v-79h-152v-451h-96v451h-90v79h90v47c0 52.667 15.333 94.334 46 125.001s73.667 46 129 46c21.333 0 41.333 -2.66699 60 -8s34.667 -13 48 -23l-29 -73c-22 16.667 -46.667 25 -74 25c-57.333 0 -86 -31 -86 -93z" />
    <glyph glyph-name="g" unicode="g" horiz-adv-x="690" 
d="M598 530v-458c0 -92.667 -23 -161.167 -69 -205.5s-114.667 -66.5 -206 -66.5c-50 0 -97.667 6.83301 -143 20.5s-82 33.167 -110 58.5l46 74c24.667 -21.333 55.167 -38.166 91.5 -50.499s73.833 -18.5 112.5 -18.5c62 0 107.833 14.667 137.5 44s44.5 74 44.5 134v42
c-22.667 -27.333 -50.5 -47.833 -83.5 -61.5s-68.833 -20.5 -107.5 -20.5c-50.667 0 -96.5 10.833 -137.5 32.5s-73.167 52 -96.5 91s-35 83.5 -35 133.5s11.667 94.5 35 133.5s55.5 69.167 96.5 90.5s86.833 32 137.5 32c40 0 77.167 -7.33301 111.5 -22
s62.5 -36.334 84.5 -65.001v82h91zM415.5 128c27.667 14.667 49.3311 35.167 64.998 61.5s23.5 56.166 23.5 89.499c0 51.333 -17 92.833 -51 124.5s-77.667 47.5 -131 47.5c-54 0 -98 -15.833 -132 -47.5s-51 -73.167 -51 -124.5c0 -33.333 7.83301 -63.166 23.5 -89.499
s37.334 -46.833 65.001 -61.5s59.167 -22 94.5 -22c34.667 0 65.834 7.33301 93.501 22z" />
    <glyph glyph-name="h" unicode="h" horiz-adv-x="681" 
d="M534.5 476.5c39.667 -39 59.5 -96.167 59.5 -171.5v-305h-96v294c0 51.333 -12.333 90 -37 116s-60 39 -106 39c-52 0 -93 -15.167 -123 -45.5s-45 -73.833 -45 -130.5v-273h-96v742h96v-287c20 25.333 46.167 45 78.5 59s68.5 21 108.5 21
c67.333 0 120.833 -19.5 160.5 -58.5z" />
    <glyph glyph-name="i" unicode="i" horiz-adv-x="279" 
d="M91 530h96v-530h-96v530zM92.5 650c-12.333 12 -18.5 26.668 -18.5 44.001s6.16699 32.166 18.5 44.499s27.833 18.5 46.5 18.5s34.167 -5.83301 46.5 -17.5s18.5 -26.167 18.5 -43.5c0 -18 -6.16699 -33.167 -18.5 -45.5s-27.833 -18.5 -46.5 -18.5s-34.167 6 -46.5 18z
" />
    <glyph glyph-name="j" unicode="j" horiz-adv-x="284" 
d="M-42 -192c-20 5.33301 -36.667 13.332 -50 23.999l31 74c20 -16.667 46 -25 78 -25c25.333 0 44.833 7.83301 58.5 23.5s20.5 38.834 20.5 69.501v556h96v-554c0 -54.667 -14.667 -97.667 -44 -129s-71 -47 -125 -47c-23.333 0 -45 2.66699 -65 8zM97.5 649.999
c-12.333 12 -18.5 26.668 -18.5 44.001s6.16699 32.166 18.5 44.499s27.833 18.5 46.5 18.5s34.167 -5.83301 46.5 -17.5s18.5 -26.167 18.5 -43.5c0 -18 -6.16699 -33.167 -18.5 -45.5s-27.833 -18.5 -46.5 -18.5s-34.167 6 -46.5 18z" />
    <glyph glyph-name="k" unicode="k" horiz-adv-x="616" 
d="M297 247l-110 -102v-145h-96v742h96v-476l289 264h116l-223 -219l245 -311h-118z" />
    <glyph glyph-name="l" unicode="l" horiz-adv-x="279" 
d="M91 742h96v-742h-96v742z" />
    <glyph glyph-name="m" unicode="m" horiz-adv-x="1057" 
d="M912.5 477c39 -38.667 58.502 -95.999 58.502 -171.999v-305h-96v294c0 51.333 -11.833 90 -35.5 116s-57.5 39 -101.5 39c-48.667 0 -87.334 -15.167 -116.001 -45.5s-43 -73.833 -43 -130.5v-273h-96v294c0 51.333 -11.833 90 -35.5 116s-57.5 39 -101.5 39
c-48.667 0 -87.334 -15.167 -116.001 -45.5s-43 -73.833 -43 -130.5v-273h-96v530h92v-79c19.333 27.333 44.666 48.166 75.999 62.499s67 21.5 107 21.5c41.333 0 78 -8.33301 110 -25s56.667 -41 74 -73c20 30.667 47.833 54.667 83.5 72s75.834 26 120.501 26
c66.667 0 119.5 -19.333 158.5 -58z" />
    <glyph glyph-name="n" unicode="n" horiz-adv-x="681" 
d="M534.5 476.5c39.667 -39 59.5 -96.167 59.5 -171.5v-305h-96v294c0 51.333 -12.333 90 -37 116s-60 39 -106 39c-52 0 -93 -15.167 -123 -45.5s-45 -73.833 -45 -130.5v-273h-96v530h92v-80c19.333 27.333 45.5 48.333 78.5 63s70.5 22 112.5 22
c67.333 0 120.833 -19.5 160.5 -58.5z" />
    <glyph glyph-name="o" unicode="o" horiz-adv-x="635" 
d="M176 29c-42 23.333 -74.833 55.5 -98.5 96.5s-35.5 87.5 -35.5 139.5s11.833 98.5 35.5 139.5s56.5 73 98.5 96s89.333 34.5 142 34.5s99.834 -11.5 141.501 -34.5s74.334 -55 98.001 -96s35.5 -87.5 35.5 -139.5s-11.833 -98.5 -35.5 -139.5
s-56.334 -73.167 -98.001 -96.5s-88.834 -35 -141.501 -35s-100 11.667 -142 35zM409.5 101.5c27 15.667 48.167 37.667 63.5 66s23 60.833 23 97.5s-7.66699 69.167 -23 97.5s-36.5 50.166 -63.5 65.499s-57.5 23 -91.5 23s-64.5 -7.66699 -91.5 -23
s-48.333 -37.166 -64 -65.499s-23.5 -60.833 -23.5 -97.5s7.83301 -69.167 23.5 -97.5s37 -50.333 64 -66s57.5 -23.5 91.5 -23.5s64.5 7.83301 91.5 23.5z" />
    <glyph glyph-name="p" unicode="p" horiz-adv-x="682" 
d="M510 501c40.667 -22.667 72.5 -54.333 95.5 -95s34.5 -87.667 34.5 -141s-11.5 -100.5 -34.5 -141.5s-54.833 -72.833 -95.5 -95.5s-86.667 -34 -138 -34c-38 0 -72.833 7.33301 -104.5 22s-58.5 36 -80.5 64v-274h-96v724h92v-84c21.333 29.333 48.333 51.5 81 66.5
s68.667 22.5 108 22.5c51.333 0 97.333 -11.333 138 -34zM455.5 101.501c27 15.667 48.335 37.668 64.002 66.001s23.5 60.833 23.5 97.5s-7.83301 69.167 -23.5 97.5s-37 50.166 -64 65.499s-57.5 23 -91.5 23c-33.333 0 -63.5 -7.83301 -90.5 -23.5
s-48.333 -37.5 -64 -65.5s-23.5 -60.333 -23.5 -97s7.66699 -69.167 23 -97.5s36.666 -50.333 63.999 -66s57.666 -23.5 90.999 -23.5c34 0 64.5 7.83301 91.5 23.5z" />
    <glyph glyph-name="q" unicode="q" horiz-adv-x="682" 
d="M591 530v-724.001h-96v274c-22 -28 -48.833 -49.333 -80.5 -64s-66.5 -22 -104.5 -22c-51.333 0 -97.333 11.333 -138 34s-72.5 54.5 -95.5 95.5s-34.5 88.167 -34.5 141.5s11.5 100.333 34.5 141s54.833 72.334 95.5 95.001s86.667 34 138 34
c39.333 0 75.333 -7.5 108 -22.5s59.667 -37.167 81 -66.5v84h92zM409 101.499c27.333 15.667 48.668 37.666 64.001 65.999s23 60.833 23 97.5s-7.83301 69 -23.5 97s-37 49.833 -64 65.5s-57.167 23.5 -90.5 23.5c-34 0 -64.5 -7.66699 -91.5 -23
s-48.333 -37.166 -64 -65.499s-23.5 -60.833 -23.5 -97.5s7.83301 -69.167 23.5 -97.5s37 -50.333 64 -66s57.5 -23.5 91.5 -23.5c33.333 0 63.666 7.83301 90.999 23.5z" />
    <glyph glyph-name="r" unicode="r" horiz-adv-x="410" 
d="M257 511c32.667 16 72.3311 24 118.998 24v-93c-5.33301 0.666992 -12.666 1 -21.999 1c-52 0 -92.833 -15.5 -122.5 -46.5s-44.5 -75.167 -44.5 -132.5v-264h-96v530h92v-89c16.667 30.667 41.334 54 74.001 70z" />
    <glyph glyph-name="s" unicode="s" horiz-adv-x="501" 
d="M118 11.5c-40 11.667 -71.3311 26.5 -93.998 44.5l40 76c23.333 -16.667 51.666 -30 84.999 -40s67 -15 101 -15c84 0 126 24 126 72c0 16 -5.66699 28.667 -17 38s-25.5 16.166 -42.5 20.499s-41.167 9.16602 -72.5 14.499c-42.667 6.66699 -77.5 14.334 -104.5 23.001
s-50.167 23.334 -69.5 44.001s-29 49.667 -29 87c0 48 20 86.5 60 115.5s93.667 43.5 161 43.5c35.333 0 70.666 -4.33301 105.999 -13s64.333 -20.334 87 -35.001l-41 -76c-43.333 28 -94.333 42 -153 42c-40.667 0 -71.667 -6.66699 -93 -20s-32 -31 -32 -53
c0 -17.333 6 -31 18 -41s26.833 -17.333 44.5 -22s42.5 -10 74.5 -16c42.667 -7.33301 77.167 -15.166 103.5 -23.499s48.833 -22.5 67.5 -42.5s28 -48 28 -84c0 -48 -20.5 -86.167 -61.5 -114.5s-96.833 -42.5 -167.5 -42.5c-43.333 0 -85 5.83301 -125 17.5z" />
    <glyph glyph-name="t" unicode="t" horiz-adv-x="414" 
d="M389 31c-14 -12 -31.334 -21.167 -52.001 -27.5s-42 -9.5 -64 -9.5c-53.333 0 -94.666 14.333 -123.999 43s-44 69.667 -44 123v291h-90v79h90v116h96v-116h152v-79h-152v-287c0 -28.667 7.16699 -50.667 21.5 -66s34.833 -23 61.5 -23c29.333 0 54.333 8.33301 75 25z
" />
    <glyph glyph-name="u" unicode="u" horiz-adv-x="677" 
d="M585 530l0.000976562 -530.001h-91v80c-19.333 -27.333 -44.833 -48.5 -76.5 -63.5s-66.167 -22.5 -103.5 -22.5c-70.667 0 -126.334 19.5 -167.001 58.5s-61 96.5 -61 172.5v305h96v-294c0 -51.333 12.333 -90.166 37 -116.499s60 -39.5 106 -39.5
c50.667 0 90.667 15.333 120 46s44 74 44 130v274h96z" />
    <glyph glyph-name="v" unicode="v" horiz-adv-x="559" 
d="M560 530l-232 -530h-98l-232 530h100l182 -425l186 425h94z" />
    <glyph glyph-name="w" unicode="w" horiz-adv-x="899" 
d="M893 530l-198 -530h-92l-153 402l-155 -402h-92l-197 530h91l154 -422l160 422h81l157 -424l158 424h86z" />
    <glyph glyph-name="x" unicode="x" horiz-adv-x="552" 
d="M429 0l-153 203l-155 -203h-107l209 271l-199 259h107l146 -191l145 191h105l-200 -259l211 -271h-109z" />
    <glyph glyph-name="y" unicode="y" horiz-adv-x="559" 
d="M560 530l-257.001 -583c-22.667 -54 -49.167 -92 -79.5 -114s-66.833 -33 -109.5 -33c-26 0 -51.167 4.16699 -75.5 12.5s-44.5 20.5 -60.5 36.5l41 72c27.333 -26 59 -39 95 -39c23.333 0 42.833 6.16699 58.5 18.5s29.834 33.5 42.501 63.5l17 37l-234 529h100
l185 -424l183 424h94z" />
    <glyph glyph-name="z" unicode="z" horiz-adv-x="521" 
d="M484 79v-79h-444v62l313 389h-307v79h430v-63l-313 -388h321z" />
    <glyph glyph-name="braceleft" unicode="{" horiz-adv-x="351" 
d="M220 304c-8.66699 -14 -22.667 -24 -42 -30c19.333 -6 33.333 -16 42 -30s13 -34.667 13 -62v-219c0 -52 24.667 -78 74 -78h25v-79h-44c-50 0 -87.667 12.5 -113 37.5s-38 61.833 -38 110.5v230c0 33.333 -15 50 -45 50h-35v80h35c30 0 45 16.667 45 50v230
c0 48.667 12.667 85.5 38 110.5s63 37.5 113 37.5h44v-79h-25c-49.333 0 -74 -26 -74 -78v-219c0 -27.333 -4.33301 -48 -13 -62z" />
    <glyph glyph-name="bar" unicode="|" horiz-adv-x="299" 
d="M105 742h89v-936h-89v936z" />
    <glyph glyph-name="braceright" unicode="}" horiz-adv-x="351" 
d="M293 314v-80h-34c-29.333 0 -44 -16.667 -44 -50v-230c0 -48.667 -12.833 -85.5 -38.5 -110.5s-63.5 -37.5 -113.5 -37.5h-44v79h24c50.667 0 76 26 76 78v219c0 28 4.16699 48.833 12.5 62.5s22.166 23.5 41.499 29.5c-19.333 6 -33.166 15.833 -41.499 29.5
s-12.5 34.5 -12.5 62.5v219c0 52 -25.333 78 -76 78h-24v79h44c50 0 87.833 -12.5 113.5 -37.5s38.5 -61.833 38.5 -110.5v-230c0 -33.333 14.667 -50 44 -50h34z" />
    <glyph glyph-name="asciitilde" unicode="~" horiz-adv-x="582" 
d="M330 279.5c-18 9.66699 -38 23.501 -60 41.501c-16.667 14 -30.5 24.333 -41.5 31s-22.833 10 -35.5 10c-21.333 0 -38.333 -8.16699 -51 -24.5s-19.667 -38.166 -21 -65.499h-63c1.33301 54 13.833 94.833 37.5 122.5s55.167 41.5 94.5 41.5
c24 0 44.833 -4.83301 62.5 -14.5s37.5 -23.834 59.5 -42.501c17.333 -14 31.333 -24.167 42 -30.5s22.334 -9.5 35.001 -9.5c22 0 39.167 8.16699 51.5 24.5s19.166 38.5 20.499 66.5h63c-1.33301 -54.667 -13.833 -95.834 -37.5 -123.501s-55.167 -41.5 -94.5 -41.5
c-23.333 0 -44 4.83301 -62 14.5z" />
    <glyph glyph-name="uni00A0" unicode="&#xa0;" horiz-adv-x="269" 
 />
    <glyph glyph-name="exclamdown" unicode="&#xa1;" horiz-adv-x="268" 
d="M180.5 516c12.333 -12.667 18.5 -28 18.5 -46c0 -17.333 -6 -32.166 -18 -44.499s-27.333 -18.5 -46 -18.5s-34.334 6.16699 -47.001 18.5s-19 27.166 -19 44.499c0 18 6.33301 33.333 19 46s28.334 19 47.001 19c18 0 33.167 -6.33301 45.5 -19zM191 -154h-113l18 463
h76z" />
    <glyph glyph-name="cent" unicode="&#xa2;" horiz-adv-x="571" 
d="M465 154l72.999 -46.001c-18.667 -33.333 -44.667 -59.666 -78 -78.999s-71.333 -30.666 -114 -33.999v-115h-64v116c-46.667 5.33301 -88.167 20.166 -124.5 44.499s-64.666 55.833 -84.999 94.5s-30.5 82 -30.5 130s10.167 91.167 30.5 129.5s48.5 69.666 84.5 93.999
s77.667 39.166 125 44.499v117h64v-116c42.667 -3.33301 80.667 -14.5 114 -33.5s59.333 -45.167 78 -78.5l-73 -47c-28 42.667 -67.667 67.334 -119 74.001v-369c51.333 6.66699 91 31.334 119 74.001zM178.499 141.999c26.333 -32.667 60.833 -52.667 103.5 -60v365
c-42.667 -8 -77.167 -28.333 -103.5 -61s-39.5 -73 -39.5 -121c0 -49.333 13.167 -90.333 39.5 -123z" />
    <glyph glyph-name="sterling" unicode="&#xa3;" horiz-adv-x="646" 
d="M238 87h377.999v-87h-586v87h109v230h-109v66h109v65c0 52.667 11.5 98.5 34.5 137.5s56.667 69.167 101 90.5s97.5 32 159.5 32c40.667 0 76.834 -4 108.501 -12s61.167 -20.667 88.5 -38l-33 -83c-43.333 29.333 -101 44 -173 44
c-61.333 0 -107.833 -14.667 -139.5 -44s-47.5 -71.333 -47.5 -126v-66h266v-66h-266v-230z" />
    <glyph glyph-name="currency" unicode="&#xa4;" horiz-adv-x="700" 
d="M566 159l103 -102l-56 -59l-106 105c-48 -32 -100.333 -48 -157 -48c-28.667 0 -56.5 4.16699 -83.5 12.5s-51.5 20.5 -73.5 36.5l-107 -106l-55 59l103 103c-17.333 22.667 -30.833 47.667 -40.5 75s-14.5 55.333 -14.5 84c0 57.333 17.667 110 53 158l-101 101l55 59
l105 -104c48 34 101 51 159 51c57.333 0 110.333 -16.667 159 -50l104 103l56 -59l-101 -100c36 -47.333 54 -100.333 54 -159s-18.667 -112 -56 -160zM447 159c30 16.667 53.833 39.167 71.5 67.5s26.5 59.166 26.5 92.499s-8.83301 64.333 -26.5 93
s-41.5 51.334 -71.5 68.001s-62.333 25 -97 25s-66.667 -8.33301 -96 -25s-52.666 -39.334 -69.999 -68.001s-26 -59.667 -26 -93s8.66699 -64.166 26 -92.499s40.666 -50.833 69.999 -67.5s61.333 -25 96 -25s67 8.33301 97 25z" />
    <glyph glyph-name="yen" unicode="&#xa5;" horiz-adv-x="707" 
d="M434 312h180v-57h-211v-81h211v-57h-211v-117h-99v117h-211v57h211v81h-211v57h181l-278 388h106l253 -354l254 354h102z" />
    <glyph glyph-name="brokenbar" unicode="&#xa6;" horiz-adv-x="299" 
d="M105 742h89v-350h-89v350zM105 156h89v-350h-89v350z" />
    <glyph glyph-name="section" unicode="&#xa7;" horiz-adv-x="500" 
d="M445 218.5c-13.333 -21.667 -31.3301 -39.498 -53.9971 -53.498c35.333 -25.333 53 -61.666 53 -108.999c0 -32 -8.83301 -60.333 -26.5 -85s-42.5 -43.667 -74.5 -57s-69 -20 -111 -20c-38.667 0 -77.334 6 -116.001 18s-68.667 27.333 -90 46l31 73
c22 -17.333 49 -31.666 81 -42.999s64.667 -17 98 -17c38 0 67.833 7.16699 89.5 21.5s32.5 34.833 32.5 61.5c0 18.667 -5.83301 33.667 -17.5 45s-26.5 20.166 -44.5 26.499s-42.333 13.166 -73 20.499c-40 10 -72.333 20 -97 30s-45.834 25.333 -63.501 46
s-26.5 48.667 -26.5 84c0 28 6.66699 53.167 20 75.5s31.666 40.5 54.999 54.5c-35.333 24 -53 59.667 -53 107c0 49.333 20.5 88.833 61.5 118.5s96.833 44.5 167.5 44.5c32 0 65.667 -4.5 101 -13.5s63.333 -21.167 84 -36.5l-31 -73c-44 30.667 -97.667 46 -161 46
c-44 0 -77.667 -7.16699 -101 -21.5s-35 -34.833 -35 -61.5c0 -18 5.66699 -32.5 17 -43.5s25.333 -19.5 42 -25.5s40.667 -13 72 -21c40.667 -10 73.5 -20 98.5 -30s46.5 -25.833 64.5 -47.5s27 -50.834 27 -87.501c0 -26.667 -6.66699 -50.834 -20 -72.501z
M138.003 263.002c12 -12 27.168 -21.168 45.501 -27.501s43.5 -13.5 75.5 -21.5l50 -13c22 6.66699 39.5 17.834 52.5 33.501s19.5 34.167 19.5 55.5c0 19.333 -6 35 -18 47s-27 21.167 -45 27.5s-42.667 13.5 -74 21.5c-22.667 5.33301 -39.334 9.66602 -50.001 12.999
c-22 -6.66699 -39.833 -17.667 -53.5 -33s-20.5 -33.666 -20.5 -54.999c0 -20 6 -36 18 -48z" />
    <glyph glyph-name="dieresis" unicode="&#xa8;" horiz-adv-x="600" 
d="M171 638.5c-10 9.66699 -15 21.834 -15 36.501s5 27 15 37s22 15 36 15s26 -5 36 -15s15 -22.333 15 -37s-5 -26.834 -15 -36.501s-22 -14.5 -36 -14.5s-26 4.83301 -36 14.5zM357 638.5c-10 9.66699 -15 21.834 -15 36.501s5 27 15 37s22 15 36 15s26 -5 36 -15
s15 -22.333 15 -37s-5 -26.834 -15 -36.501s-22 -14.5 -36 -14.5s-26 4.83301 -36 14.5z" />
    <glyph glyph-name="copyright" unicode="&#xa9;" horiz-adv-x="802" 
d="M221.5 44c-53.667 31.333 -96.001 73.999 -127.001 127.999s-46.5 113.333 -46.5 178s15.5 124 46.5 178s73.5 96.667 127.5 128s114 47 180 47s125.833 -15.333 179.5 -46s95.834 -72.834 126.501 -126.501s46 -113.167 46 -178.5s-15.667 -125.166 -47 -179.499
s-74 -97.166 -128 -128.499s-113.667 -47 -179 -47s-124.833 15.667 -178.5 47zM555.999 82.999c46.667 27.333 83.4971 64.667 110.497 112s40.5 99.666 40.5 156.999s-13.167 109.333 -39.5 156s-62.666 83.334 -108.999 110.001s-98.5 40 -156.5 40
c-57.333 0 -109.5 -13.667 -156.5 -41s-83.833 -64.5 -110.5 -111.5s-40 -98.833 -40 -155.5s13.333 -108.5 40 -155.5s63.334 -84.167 110.001 -111.5s98.334 -41 155.001 -41c57.333 0 109.333 13.667 156 41zM301.996 170c-32 17.333 -57 41.667 -75 73s-27 67 -27 107
s9 75.667 27 107s43 55.666 75 72.999s68.333 26 109 26c34.667 0 66.334 -7.33301 95.001 -22s51 -34.334 67 -59.001l-57 -41c-24 36 -59.333 54 -106 54c-38.667 0 -70.667 -12.667 -96 -38s-38 -58.666 -38 -99.999s12.667 -74.666 38 -99.999s57.333 -38 96 -38
c46.667 0 82 18 106 54l57 -40c-16 -25.333 -38.333 -45.333 -67 -60s-60.334 -22 -95.001 -22c-40.667 0 -77 8.66699 -109 26z" />
    <glyph glyph-name="ordfeminine" unicode="&#xaa;" horiz-adv-x="404" 
d="M339 617l-0.00292969 -189h-64v40c-9.33301 -13.333 -23.666 -24 -42.999 -32s-42.333 -12 -69 -12c-40 0 -71 8.66699 -93 26s-33 40 -33 68s11.167 50.333 33.5 67s56.5 25 102.5 25h97v9c0 26 -7.16699 45 -21.5 57s-36.166 18 -65.499 18
c-20 0 -39.833 -3.16699 -59.5 -9.5s-36.5 -14.833 -50.5 -25.5l-26 45c17.333 13.333 38.833 23.833 64.5 31.5s51.834 11.5 78.501 11.5c99.333 0 149 -43.333 149 -130zM269.997 521v46h-88c-52.667 0 -79 -15.333 -79 -46c0 -15.333 6.5 -27.333 19.5 -36
s31.167 -13 54.5 -13c45.333 0 76.333 16.333 93 49z" />
    <glyph glyph-name="guillemotleft" unicode="&#xab;" horiz-adv-x="504" 
d="M46 265l144 192h88l-141 -192l141 -191h-88zM238 265l144 192h88l-141 -192l141 -191h-88z" />
    <glyph glyph-name="logicalnot" unicode="&#xac;" horiz-adv-x="582" 
d="M515 133h-85v178h-363v79h448v-257z" />
    <glyph glyph-name="uni00AD" unicode="&#xad;" horiz-adv-x="383" 
d="M57 316h269v-83h-269v83z" />
    <glyph glyph-name="registered" unicode="&#xae;" horiz-adv-x="802" 
d="M581.5 657c53.667 -30.667 95.833 -72.835 126.5 -126.502s46 -113.167 46 -178.5s-15.667 -125.166 -47 -179.499s-74 -97.166 -128 -128.499s-113.667 -47 -179 -47s-124.833 15.667 -178.5 47s-96 74 -127 128s-46.5 113.333 -46.5 178s15.5 124 46.5 178
s73.5 96.667 127.5 128s114 47 180 47s125.833 -15.333 179.5 -46zM555.999 82.999c46.667 27.333 83.4971 64.667 110.497 112s40.5 99.666 40.5 156.999s-13.167 109.333 -39.5 156s-62.666 83.334 -108.999 110.001s-98.5 40 -156.5 40
c-57.333 0 -109.5 -13.667 -156.5 -41s-83.833 -64.5 -110.5 -111.5s-40 -98.833 -40 -155.5s13.333 -108.5 40 -155.5s63.334 -84.167 110.001 -111.5s98.334 -41 155.001 -41c57.333 0 109.333 13.667 156 41zM558.996 337c-14.667 -21.333 -35.333 -36.667 -62 -46
l91 -141h-69l-83 128h-17h-92v-128h-68v400h160c50 0 89.5 -12.333 118.5 -37s43.5 -57.667 43.5 -99c0 -30 -7.33301 -55.667 -22 -77zM488.497 354.999c17.667 14 26.5 33.667 26.5 59s-8.83301 44.833 -26.5 58.5s-42.5 20.5 -74.5 20.5h-88v-159h88
c32 0 56.833 7 74.5 21z" />
    <glyph glyph-name="macron" unicode="&#xaf;" horiz-adv-x="600" 
d="M137 702h326v-60h-326v60z" />
    <glyph glyph-name="degree" unicode="&#xb0;" horiz-adv-x="419" 
d="M126.5 402.5c-25 14.333 -44.833 34 -59.5 59s-22 52.5 -22 82.5c0 29.333 7.33301 56.5 22 81.5s34.5 44.667 59.5 59s52.5 21.5 82.5 21.5s57.667 -7.16699 83 -21.5s45.333 -34 60 -59s22 -52.167 22 -81.5c0 -30 -7.33301 -57.5 -22 -82.5s-34.667 -44.667 -60 -59
s-53 -21.5 -83 -21.5s-57.5 7.16699 -82.5 21.5zM286 466.5c20.667 21 31 46.833 31 77.5s-10.333 56.5 -31 77.5s-46.334 31.5 -77.001 31.5s-56.334 -10.333 -77.001 -31s-31 -46.667 -31 -78s10.333 -57.333 31 -78s46.334 -31 77.001 -31s56.334 10.5 77.001 31.5z" />
    <glyph glyph-name="plusminus" unicode="&#xb1;" horiz-adv-x="582" 
d="M515 438v-79h-182v-174h-84v174h-182v79h182v174h84v-174h182zM67 79h448v-79h-448v79z" />
    <glyph glyph-name="uni00B2" unicode="&#xb2;" horiz-adv-x="430" 
d="M380 385v-57.999h-334v45l185 162c23.333 20.667 39.166 37.5 47.499 50.5s12.5 26.167 12.5 39.5c0 18.667 -8.33301 33.834 -25 45.501s-41.667 17.5 -75 17.5c-24.667 0 -46.667 -3.83301 -66 -11.5s-35.333 -18.834 -48 -33.501l-49 38
c35.333 44.667 91.333 67 168 67c52.667 0 93.334 -11 122.001 -33s43 -50.333 43 -85c0 -21.333 -5.33301 -41.333 -16 -60s-31 -41.334 -61 -68.001l-132 -116h228z" />
    <glyph glyph-name="uni00B3" unicode="&#xb3;" horiz-adv-x="430" 
d="M345.5 532.5c23.667 -21.667 35.498 -49.166 35.498 -82.499c0 -36.667 -15.667 -67.167 -47 -91.5s-75.666 -36.5 -132.999 -36.5c-36 0 -69.833 4.66699 -101.5 14s-55.834 21.666 -72.501 36.999l28 53c16.667 -13.333 37.834 -24 63.501 -32s53.167 -12 82.5 -12
c36 0 63.333 6 82 18s28 28.667 28 50s-8.83301 37.833 -26.5 49.5s-44.167 17.5 -79.5 17.5h-47v47l112 120h-230v58h321v-45l-118 -127c44.667 -3.33301 78.834 -15.833 102.501 -37.5z" />
    <glyph glyph-name="acute" unicode="&#xb4;" horiz-adv-x="600" 
d="M361 737h122l-168 -130h-90z" />
    <glyph glyph-name="uni00B5" unicode="&#xb5;" horiz-adv-x="682" 
d="M590 530v-530.001h-91v82c-18 -30 -41.833 -52.167 -71.5 -66.5s-61.5 -21.5 -95.5 -21.5c-64 0 -112.333 20.333 -145 61v-249h-96v724h96v-294c0 -51.333 12.5 -90.166 37.5 -116.499s60.167 -39.5 105.5 -39.5c50.667 0 90.667 15.333 120 46s44 74 44 130v274h96z
" />
    <glyph glyph-name="paragraph" unicode="&#xb6;" horiz-adv-x="648" 
d="M227 384c-62 0.666992 -112.166 17.167 -150.499 49.5s-57.5 75.5 -57.5 129.5c0 54.667 20.167 98.167 60.5 130.5s94.166 48.5 161.499 48.5h302v-842h-80v767h-156v-767h-80v484z" />
    <glyph glyph-name="periodcentered" unicode="&#xb7;" horiz-adv-x="267" 
d="M85.5 225.5c-13 13 -19.5 29.5 -19.5 49.5s6.5 36.333 19.5 49s29.167 19 48.5 19c18.667 0 34.334 -6.33301 47.001 -19s19 -29 19 -49s-6.33301 -36.5 -19 -49.5s-28.334 -19.5 -47.001 -19.5c-19.333 0 -35.5 6.5 -48.5 19.5z" />
    <glyph glyph-name="cedilla" unicode="&#xb8;" horiz-adv-x="600" 
d="M186 -202l21 49c20 -11.333 42.667 -17 68 -17c37.333 0 56 13.333 56 40c0 12 -4.66699 21.5 -14 28.5s-23.666 10.5 -42.999 10.5h-27l25 98h55l-15 -57c28 -2.66699 49.5 -11.5 64.5 -26.5s22.5 -33.833 22.5 -56.5c0 -28 -11.333 -50.167 -34 -66.5
s-52.667 -24.5 -90 -24.5c-34.667 0 -64.334 7.33301 -89.001 22z" />
    <glyph glyph-name="uni00B9" unicode="&#xb9;" horiz-adv-x="430" 
d="M370 385v-58h-289v58h116v299h-108v58h179v-357h102z" />
    <glyph glyph-name="ordmasculine" unicode="&#xba;" horiz-adv-x="418" 
d="M117.5 445c-27 14 -48 33.333 -63 58s-22.5 52.334 -22.5 83.001s7.5 58.334 22.5 83.001s36 43.834 63 57.501s57.5 20.5 91.5 20.5s64.5 -6.83301 91.5 -20.5s48 -32.834 63 -57.501s22.5 -52.334 22.5 -83.001s-7.5 -58.334 -22.5 -83.001s-36 -44 -63 -58
s-57.5 -21 -91.5 -21s-64.5 7 -91.5 21zM288.5 511c20.333 19.333 30.5 44.333 30.5 75s-10.167 55.667 -30.5 75s-46.833 29 -79.5 29s-59.167 -9.66699 -79.5 -29s-30.5 -44.333 -30.5 -75s10.167 -55.667 30.5 -75s46.833 -29 79.5 -29s59.167 9.66699 79.5 29z" />
    <glyph glyph-name="guillemotright" unicode="&#xbb;" horiz-adv-x="504" 
d="M34 74l141 191l-141 192h88l144 -192l-144 -191h-88zM226 74l141 191l-141 192h88l144 -192l-144 -191h-88z" />
    <glyph glyph-name="onequarter" unicode="&#xbc;" horiz-adv-x="1034" 
d="M370 343v-58h-289v58h116v299h-108v58h179v-357h102zM718 700h76l-478 -700h-76zM1007 99h-81v-99h-69v99h-231v47l201 269h78l-194 -258h152v83h63v-83h81v-58z" />
    <glyph glyph-name="onehalf" unicode="&#xbd;" horiz-adv-x="1034" 
d="M370 343v-58h-289v58h116v299h-108v58h179v-357h102zM718 700h76l-478 -700h-76zM984 58v-57.999h-334v45l185 162c23.333 20.667 39.166 37.5 47.499 50.5s12.5 26.167 12.5 39.5c0 18.667 -8.33301 33.834 -25 45.501s-41.667 17.5 -75 17.5
c-24.667 0 -46.667 -3.83301 -66 -11.5s-35.333 -18.834 -48 -33.501l-49 38c35.333 44.667 91.333 67 168 67c52.667 0 93.334 -11 122.001 -33s43 -50.333 43 -85c0 -21.333 -5.33301 -41.333 -16 -60s-31 -41.334 -61 -68.001l-132 -116h228z" />
    <glyph glyph-name="threequarters" unicode="&#xbe;" horiz-adv-x="1034" 
d="M345.5 490.5c23.667 -21.667 35.498 -49.166 35.498 -82.499c0 -36.667 -15.667 -67.167 -47 -91.5s-75.666 -36.5 -132.999 -36.5c-36 0 -69.833 4.66699 -101.5 14s-55.834 21.666 -72.501 36.999l28 53c16.667 -13.333 37.834 -24 63.501 -32s53.167 -12 82.5 -12
c36 0 63.333 6 82 18s28 28.667 28 50s-8.83301 37.833 -26.5 49.5s-44.167 17.5 -79.5 17.5h-47v47l112 120h-230v58h321v-45l-118 -127c44.667 -3.33301 78.834 -15.833 102.501 -37.5zM717.998 700.001h76l-478 -700h-76zM1007 99.001h-81v-99h-69v99h-231v47l201 269h78
l-194 -258h152v83h63v-83h81v-58z" />
    <glyph glyph-name="questiondown" unicode="&#xbf;" horiz-adv-x="573" 
d="M248.5 425c-12.333 12 -18.5 26.999 -18.5 44.999s6.16699 33.333 18.5 46s27.833 19 46.5 19s34.167 -6.33301 46.5 -19s18.5 -28 18.5 -46c0 -17.333 -6.16699 -32.166 -18.5 -44.499s-27.833 -18.5 -46.5 -18.5s-34.167 6 -46.5 18zM133.5 -115.501
c-43 31 -64.501 72.501 -64.501 124.501c0 26.667 4.5 50.334 13.5 71.001s19.833 38 32.5 52s29.334 30.333 50.001 49c26.667 22.667 46.667 43.167 60 61.5s20 40.5 20 66.5h100c0 -25.333 -4.5 -47.833 -13.5 -67.5s-20 -36.334 -33 -50.001
s-30.167 -29.834 -51.5 -48.501c-26.667 -24 -46.334 -44.333 -59.001 -61s-19 -36.667 -19 -60c0 -28 13 -51.5 39 -70.5s60.667 -28.5 104 -28.5c78 0 137.667 26.333 179 79l73 -52c-28 -36 -63.667 -63.667 -107 -83s-93.666 -29 -150.999 -29
c-72 0 -129.5 15.5 -172.5 46.5z" />
    <glyph glyph-name="Agrave" unicode="&#xc0;" horiz-adv-x="732" 
d="M551 175h-372l-77 -175h-103l317 700h99l318 -700h-105zM516 255l-151 343l-151 -343h302zM183 887h122l136 -130h-90z" />
    <glyph glyph-name="Aacute" unicode="&#xc1;" horiz-adv-x="732" 
d="M551 175h-372l-77 -175h-103l317 700h99l318 -700h-105zM516 255l-151 343l-151 -343h302zM427 887h122l-168 -130h-90z" />
    <glyph glyph-name="Acircumflex" unicode="&#xc2;" horiz-adv-x="732" 
d="M551 175h-372l-77 -175h-103l317 700h99l318 -700h-105zM516 255l-151 343l-151 -343h302zM458 757l-92 77l-92 -77h-87l133 130h92l133 -130h-87z" />
    <glyph glyph-name="Atilde" unicode="&#xc3;" horiz-adv-x="732" 
d="M551 175h-372l-77 -175h-103l317 700h99l318 -700h-105zM516 255l-151 343l-151 -343h302zM394.5 770c-11.667 6.66699 -26.168 16.666 -43.501 29.999c-10 9.33301 -18.667 16.166 -26 20.499s-14.666 6.5 -21.999 6.5c-14.667 0 -26.667 -5.5 -36 -16.5
s-14.333 -26.167 -15 -45.5h-54c1.33301 37.333 10.833 67 28.5 89s40.834 33 69.501 33c16 0 30.167 -3.5 42.5 -10.5s26.5 -17.167 42.5 -30.5c11.333 -9.33301 20.333 -16.166 27 -20.499s13.667 -6.5 21 -6.5c14.667 0 26.667 5.33301 36 16s14.333 25.334 15 44.001h54
c-1.33301 -36 -10.833 -64.833 -28.5 -86.5s-40.834 -32.5 -69.501 -32.5c-16 0 -29.833 3.33301 -41.5 10z" />
    <glyph glyph-name="Adieresis" unicode="&#xc4;" horiz-adv-x="732" 
d="M551 175h-372l-77 -175h-103l317 700h99l318 -700h-105zM516 255l-151 343l-151 -343h302zM237 788.5c-10 9.66699 -15 21.834 -15 36.501s5 27 15 37s22 15 36 15s26 -5 36 -15s15 -22.333 15 -37s-5 -26.834 -15 -36.501s-22 -14.5 -36 -14.5s-26 4.83301 -36 14.5z
M423 788.5c-10 9.66699 -15 21.834 -15 36.501s5 27 15 37s22 15 36 15s26 -5 36 -15s15 -22.333 15 -37s-5 -26.834 -15 -36.501s-22 -14.5 -36 -14.5s-26 4.83301 -36 14.5z" />
    <glyph glyph-name="Aring" unicode="&#xc5;" horiz-adv-x="732" 
d="M551 175h-372l-77 -175h-103l317 700h99l318 -700h-105zM516 255l-151 343l-151 -343h302zM287 795.5c-21.333 21 -32 46.5 -32 76.5s10.667 55.833 32 77.5s47.333 32.5 78 32.5c31.333 0 57.666 -10.833 78.999 -32.5s32 -47.5 32 -77.5s-10.667 -55.5 -32 -76.5
s-47.666 -31.5 -78.999 -31.5c-30.667 0 -56.667 10.5 -78 31.5zM412.5 825c12.333 12.667 18.502 28.334 18.502 47.001c0 19.333 -6.33301 35.333 -19 48s-28.334 19 -47.001 19s-34.167 -6.33301 -46.5 -19s-18.5 -28.667 -18.5 -48
c0 -18.667 6.16699 -34.334 18.5 -47.001s27.833 -19 46.5 -19c19.333 0 35.166 6.33301 47.499 19z" />
    <glyph glyph-name="AE" unicode="&#xc6;" horiz-adv-x="1047" 
d="M991 87v-87h-508v175h-278l-103 -175h-103l417 700h561v-87h-395v-215h351v-85h-351v-226h409zM483 255v358h-20l-211 -358h231z" />
    <glyph glyph-name="Ccedilla" unicode="&#xc7;" horiz-adv-x="723" 
d="M228.5 38.5c-56.333 31 -100.498 73.667 -132.498 128s-48 115.5 -48 183.5s16 129.167 48 183.5s76.333 97 133 128s120 46.5 190 46.5c54.667 0 104.667 -9.16699 150 -27.5s84 -45.5 116 -81.5l-65 -63c-52.667 55.333 -118.334 83 -197.001 83
c-52 0 -99 -11.667 -141 -35s-74.833 -55.5 -98.5 -96.5s-35.5 -86.833 -35.5 -137.5s11.833 -96.5 35.5 -137.5s56.5 -73.167 98.5 -96.5s89 -35 141 -35c78 0 143.667 28 197 84l65 -63c-32 -36 -70.833 -63.333 -116.5 -82s-95.834 -28 -150.501 -28
c-70 0 -133.167 15.5 -189.5 46.5zM288.002 -202l21 49c20 -11.333 42.667 -17 68 -17c37.333 0 56 13.333 56 40c0 12 -4.66699 21.5 -14 28.5s-23.666 10.5 -42.999 10.5h-27l25 98h55l-15 -57c28 -2.66699 49.5 -11.5 64.5 -26.5s22.5 -33.833 22.5 -56.5
c0 -28 -11.333 -50.167 -34 -66.5s-52.667 -24.5 -90 -24.5c-34.667 0 -64.334 7.33301 -89.001 22z" />
    <glyph glyph-name="Egrave" unicode="&#xc8;" horiz-adv-x="670" 
d="M613 87v-87h-508v700h494v-87h-394v-215h351v-85h-351v-226h408zM170 887h122l136 -130h-90z" />
    <glyph glyph-name="Eacute" unicode="&#xc9;" horiz-adv-x="670" 
d="M613 87v-87h-508v700h494v-87h-394v-215h351v-85h-351v-226h408zM414 887h122l-168 -130h-90z" />
    <glyph glyph-name="Ecircumflex" unicode="&#xca;" horiz-adv-x="670" 
d="M613 87v-87h-508v700h494v-87h-394v-215h351v-85h-351v-226h408zM445 757l-92 77l-92 -77h-87l133 130h92l133 -130h-87z" />
    <glyph glyph-name="Edieresis" unicode="&#xcb;" horiz-adv-x="670" 
d="M613 87v-87h-508v700h494v-87h-394v-215h351v-85h-351v-226h408zM224 788.5c-10 9.66699 -15 21.834 -15 36.501s5 27 15 37s22 15 36 15s26 -5 36 -15s15 -22.333 15 -37s-5 -26.834 -15 -36.501s-22 -14.5 -36 -14.5s-26 4.83301 -36 14.5zM410 788.5
c-10 9.66699 -15 21.834 -15 36.501s5 27 15 37s22 15 36 15s26 -5 36 -15s15 -22.333 15 -37s-5 -26.834 -15 -36.501s-22 -14.5 -36 -14.5s-26 4.83301 -36 14.5z" />
    <glyph glyph-name="Igrave" unicode="&#xcc;" horiz-adv-x="310" 
d="M105 700h100v-700h-100v700zM-28 887h122l136 -130h-90z" />
    <glyph glyph-name="Iacute" unicode="&#xcd;" horiz-adv-x="310" 
d="M105 700h100v-700h-100v700zM216 887h122l-168 -130h-90z" />
    <glyph glyph-name="Icircumflex" unicode="&#xce;" horiz-adv-x="310" 
d="M105 700h100v-700h-100v700zM247 757l-92 77l-92 -77h-87l133 130h92l133 -130h-87z" />
    <glyph glyph-name="Idieresis" unicode="&#xcf;" horiz-adv-x="310" 
d="M105 700h100v-700h-100v700zM26 788.5c-10 9.66699 -15 21.834 -15 36.501s5 27 15 37s22 15 36 15s26 -5 36 -15s15 -22.333 15 -37s-5 -26.834 -15 -36.501s-22 -14.5 -36 -14.5s-26 4.83301 -36 14.5zM212 788.5c-10 9.66699 -15 21.834 -15 36.501s5 27 15 37
s22 15 36 15s26 -5 36 -15s15 -22.333 15 -37s-5 -26.834 -15 -36.501s-22 -14.5 -36 -14.5s-26 4.83301 -36 14.5z" />
    <glyph glyph-name="Eth" unicode="&#xd0;" horiz-adv-x="834" 
d="M113 700h295c74 0 139.667 -14.667 197 -44s101.833 -70.5 133.5 -123.5s47.5 -113.833 47.5 -182.5s-15.833 -129.5 -47.5 -182.5s-76.167 -94.167 -133.5 -123.5s-123 -44 -197 -44h-295v700zM402 87c56.667 0 106.5 11 149.5 33s76.167 52.833 99.5 92.5
s35 85.5 35 137.5s-11.667 97.833 -35 137.5s-56.5 70.5 -99.5 92.5s-92.833 33 -149.5 33h-189v-526h189zM11 396h400v-79h-400v79z" />
    <glyph glyph-name="Ntilde" unicode="&#xd1;" horiz-adv-x="812" 
d="M707 700v-700h-82l-420 522v-522h-100v700h82l420 -522v522h100zM433.5 770c-11.667 6.66699 -26.168 16.666 -43.501 29.999c-10 9.33301 -18.667 16.166 -26 20.499s-14.666 6.5 -21.999 6.5c-14.667 0 -26.667 -5.5 -36 -16.5s-14.333 -26.167 -15 -45.5h-54
c1.33301 37.333 10.833 67 28.5 89s40.834 33 69.501 33c16 0 30.167 -3.5 42.5 -10.5s26.5 -17.167 42.5 -30.5c11.333 -9.33301 20.333 -16.166 27 -20.499s13.667 -6.5 21 -6.5c14.667 0 26.667 5.33301 36 16s14.333 25.334 15 44.001h54
c-1.33301 -36 -10.833 -64.833 -28.5 -86.5s-40.834 -32.5 -69.501 -32.5c-16 0 -29.833 3.33301 -41.5 10z" />
    <glyph glyph-name="Ograve" unicode="&#xd2;" horiz-adv-x="840" 
d="M230 38.5c-56.667 31 -101.167 73.833 -133.5 128.5s-48.5 115.667 -48.5 183s16.167 128.333 48.5 183s76.833 97.5 133.5 128.5s120.334 46.5 191.001 46.5c70 0 133.333 -15.5 190 -46.5s101 -73.667 133 -128s48 -115.5 48 -183.5s-16 -129.167 -48 -183.5
s-76.333 -97 -133 -128s-120 -46.5 -190 -46.5c-70.667 0 -134.334 15.5 -191.001 46.5zM559.5 116c41 23.333 73.333 55.5 97 96.5s35.5 86.833 35.5 137.5s-11.833 96.5 -35.5 137.5s-56 73.167 -97 96.5s-87.167 35 -138.5 35s-97.833 -11.667 -139.5 -35
s-74.334 -55.5 -98.001 -96.5s-35.5 -86.833 -35.5 -137.5s11.833 -96.5 35.5 -137.5s56.334 -73.167 98.001 -96.5s88.167 -35 139.5 -35s97.5 11.667 138.5 35zM238 887h122l136 -130h-90z" />
    <glyph glyph-name="Oacute" unicode="&#xd3;" horiz-adv-x="840" 
d="M230 38.5c-56.667 31 -101.167 73.833 -133.5 128.5s-48.5 115.667 -48.5 183s16.167 128.333 48.5 183s76.833 97.5 133.5 128.5s120.334 46.5 191.001 46.5c70 0 133.333 -15.5 190 -46.5s101 -73.667 133 -128s48 -115.5 48 -183.5s-16 -129.167 -48 -183.5
s-76.333 -97 -133 -128s-120 -46.5 -190 -46.5c-70.667 0 -134.334 15.5 -191.001 46.5zM559.5 116c41 23.333 73.333 55.5 97 96.5s35.5 86.833 35.5 137.5s-11.833 96.5 -35.5 137.5s-56 73.167 -97 96.5s-87.167 35 -138.5 35s-97.833 -11.667 -139.5 -35
s-74.334 -55.5 -98.001 -96.5s-35.5 -86.833 -35.5 -137.5s11.833 -96.5 35.5 -137.5s56.334 -73.167 98.001 -96.5s88.167 -35 139.5 -35s97.5 11.667 138.5 35zM482 887h122l-168 -130h-90z" />
    <glyph glyph-name="Ocircumflex" unicode="&#xd4;" horiz-adv-x="840" 
d="M230 38.5c-56.667 31 -101.167 73.833 -133.5 128.5s-48.5 115.667 -48.5 183s16.167 128.333 48.5 183s76.833 97.5 133.5 128.5s120.334 46.5 191.001 46.5c70 0 133.333 -15.5 190 -46.5s101 -73.667 133 -128s48 -115.5 48 -183.5s-16 -129.167 -48 -183.5
s-76.333 -97 -133 -128s-120 -46.5 -190 -46.5c-70.667 0 -134.334 15.5 -191.001 46.5zM559.5 116c41 23.333 73.333 55.5 97 96.5s35.5 86.833 35.5 137.5s-11.833 96.5 -35.5 137.5s-56 73.167 -97 96.5s-87.167 35 -138.5 35s-97.833 -11.667 -139.5 -35
s-74.334 -55.5 -98.001 -96.5s-35.5 -86.833 -35.5 -137.5s11.833 -96.5 35.5 -137.5s56.334 -73.167 98.001 -96.5s88.167 -35 139.5 -35s97.5 11.667 138.5 35zM513 757l-92 77l-92 -77h-87l133 130h92l133 -130h-87z" />
    <glyph glyph-name="Otilde" unicode="&#xd5;" horiz-adv-x="840" 
d="M230 38.5c-56.667 31 -101.167 73.833 -133.5 128.5s-48.5 115.667 -48.5 183s16.167 128.333 48.5 183s76.833 97.5 133.5 128.5s120.334 46.5 191.001 46.5c70 0 133.333 -15.5 190 -46.5s101 -73.667 133 -128s48 -115.5 48 -183.5s-16 -129.167 -48 -183.5
s-76.333 -97 -133 -128s-120 -46.5 -190 -46.5c-70.667 0 -134.334 15.5 -191.001 46.5zM559.5 116c41 23.333 73.333 55.5 97 96.5s35.5 86.833 35.5 137.5s-11.833 96.5 -35.5 137.5s-56 73.167 -97 96.5s-87.167 35 -138.5 35s-97.833 -11.667 -139.5 -35
s-74.334 -55.5 -98.001 -96.5s-35.5 -86.833 -35.5 -137.5s11.833 -96.5 35.5 -137.5s56.334 -73.167 98.001 -96.5s88.167 -35 139.5 -35s97.5 11.667 138.5 35zM449.5 770c-11.667 6.66699 -26.168 16.666 -43.501 29.999c-10 9.33301 -18.667 16.166 -26 20.499
s-14.666 6.5 -21.999 6.5c-14.667 0 -26.667 -5.5 -36 -16.5s-14.333 -26.167 -15 -45.5h-54c1.33301 37.333 10.833 67 28.5 89s40.834 33 69.501 33c16 0 30.167 -3.5 42.5 -10.5s26.5 -17.167 42.5 -30.5c11.333 -9.33301 20.333 -16.166 27 -20.499s13.667 -6.5 21 -6.5
c14.667 0 26.667 5.33301 36 16s14.333 25.334 15 44.001h54c-1.33301 -36 -10.833 -64.833 -28.5 -86.5s-40.834 -32.5 -69.501 -32.5c-16 0 -29.833 3.33301 -41.5 10z" />
    <glyph glyph-name="Odieresis" unicode="&#xd6;" horiz-adv-x="840" 
d="M230 38.5c-56.667 31 -101.167 73.833 -133.5 128.5s-48.5 115.667 -48.5 183s16.167 128.333 48.5 183s76.833 97.5 133.5 128.5s120.334 46.5 191.001 46.5c70 0 133.333 -15.5 190 -46.5s101 -73.667 133 -128s48 -115.5 48 -183.5s-16 -129.167 -48 -183.5
s-76.333 -97 -133 -128s-120 -46.5 -190 -46.5c-70.667 0 -134.334 15.5 -191.001 46.5zM559.5 116c41 23.333 73.333 55.5 97 96.5s35.5 86.833 35.5 137.5s-11.833 96.5 -35.5 137.5s-56 73.167 -97 96.5s-87.167 35 -138.5 35s-97.833 -11.667 -139.5 -35
s-74.334 -55.5 -98.001 -96.5s-35.5 -86.833 -35.5 -137.5s11.833 -96.5 35.5 -137.5s56.334 -73.167 98.001 -96.5s88.167 -35 139.5 -35s97.5 11.667 138.5 35zM292 788.5c-10 9.66699 -15 21.834 -15 36.501s5 27 15 37s22 15 36 15s26 -5 36 -15s15 -22.333 15 -37
s-5 -26.834 -15 -36.501s-22 -14.5 -36 -14.5s-26 4.83301 -36 14.5zM478 788.5c-10 9.66699 -15 21.834 -15 36.501s5 27 15 37s22 15 36 15s26 -5 36 -15s15 -22.333 15 -37s-5 -26.834 -15 -36.501s-22 -14.5 -36 -14.5s-26 4.83301 -36 14.5z" />
    <glyph glyph-name="multiply" unicode="&#xd7;" horiz-adv-x="582" 
d="M347 350l129 -130l-54 -58l-131 132l-131 -132l-53 58l129 130l-129 130l53 58l131 -132l131 132l54 -58z" />
    <glyph glyph-name="Oslash" unicode="&#xd8;" horiz-adv-x="840" 
d="M230 38.5c-56.667 31 -101.167 73.833 -133.5 128.5s-48.5 115.667 -48.5 183s16.167 128.333 48.5 183s76.833 97.5 133.5 128.5s120.334 46.5 191.001 46.5c70 0 133.333 -15.5 190 -46.5s101 -73.667 133 -128s48 -115.5 48 -183.5s-16 -129.167 -48 -183.5
s-76.333 -97 -133 -128s-120 -46.5 -190 -46.5c-70.667 0 -134.334 15.5 -191.001 46.5zM559.5 116c41 23.333 73.333 55.5 97 96.5s35.5 86.833 35.5 137.5s-11.833 96.5 -35.5 137.5s-56 73.167 -97 96.5s-87.167 35 -138.5 35s-97.833 -11.667 -139.5 -35
s-74.334 -55.5 -98.001 -96.5s-35.5 -86.833 -35.5 -137.5s11.833 -96.5 35.5 -137.5s56.334 -73.167 98.001 -96.5s88.167 -35 139.5 -35s97.5 11.667 138.5 35zM683 770h78l-602 -840h-78z" />
    <glyph glyph-name="Ugrave" unicode="&#xd9;" horiz-adv-x="791" 
d="M177 72c-52 53.333 -78 130 -78 230v398h100v-394c0 -150 65.667 -225 197 -225c64 0 113 18.5 147 55.5s51 93.5 51 169.5v394h97v-398c0 -100.667 -26 -177.5 -78 -230.5s-124.667 -79.5 -218 -79.5s-166 26.667 -218 80zM213 887h122l136 -130h-90z" />
    <glyph glyph-name="Uacute" unicode="&#xda;" horiz-adv-x="791" 
d="M177 72c-52 53.333 -78 130 -78 230v398h100v-394c0 -150 65.667 -225 197 -225c64 0 113 18.5 147 55.5s51 93.5 51 169.5v394h97v-398c0 -100.667 -26 -177.5 -78 -230.5s-124.667 -79.5 -218 -79.5s-166 26.667 -218 80zM457 887h122l-168 -130h-90z" />
    <glyph glyph-name="Ucircumflex" unicode="&#xdb;" horiz-adv-x="791" 
d="M177 72c-52 53.333 -78 130 -78 230v398h100v-394c0 -150 65.667 -225 197 -225c64 0 113 18.5 147 55.5s51 93.5 51 169.5v394h97v-398c0 -100.667 -26 -177.5 -78 -230.5s-124.667 -79.5 -218 -79.5s-166 26.667 -218 80zM488 757l-92 77l-92 -77h-87l133 130h92
l133 -130h-87z" />
    <glyph glyph-name="Udieresis" unicode="&#xdc;" horiz-adv-x="791" 
d="M177 72c-52 53.333 -78 130 -78 230v398h100v-394c0 -150 65.667 -225 197 -225c64 0 113 18.5 147 55.5s51 93.5 51 169.5v394h97v-398c0 -100.667 -26 -177.5 -78 -230.5s-124.667 -79.5 -218 -79.5s-166 26.667 -218 80zM267 788.5c-10 9.66699 -15 21.834 -15 36.501
s5 27 15 37s22 15 36 15s26 -5 36 -15s15 -22.333 15 -37s-5 -26.834 -15 -36.501s-22 -14.5 -36 -14.5s-26 4.83301 -36 14.5zM453 788.5c-10 9.66699 -15 21.834 -15 36.501s5 27 15 37s22 15 36 15s26 -5 36 -15s15 -22.333 15 -37s-5 -26.834 -15 -36.501
s-22 -14.5 -36 -14.5s-26 4.83301 -36 14.5z" />
    <glyph glyph-name="Yacute" unicode="&#xdd;" horiz-adv-x="647" 
d="M373 242v-242h-99v244l-278 456h107l224 -369l225 369h99zM385 887h122l-168 -130h-90z" />
    <glyph glyph-name="Thorn" unicode="&#xde;" horiz-adv-x="722" 
d="M592 548.5c52 -43.667 78 -103.5 78 -179.5s-26 -135.667 -78 -179s-123.333 -65 -214 -65h-173v-125h-100v700h100v-86h173c90.667 0 162 -21.833 214 -65.5zM520 252c33.333 27.333 50 66.333 50 117s-16.667 89.667 -50 117s-81.666 41 -144.999 41h-170v-316h170
c63.333 0 111.666 13.667 144.999 41z" />
    <glyph glyph-name="germandbls" unicode="&#xdf;" horiz-adv-x="676" 
d="M592 322.5c27.333 -32.333 41.001 -72.499 41.001 -120.499c0 -42.667 -10.333 -79.667 -31 -111s-49.167 -55.333 -85.5 -72s-77.833 -25 -124.5 -25s-85 5.33301 -115 16l15 81c26 -8.66699 58 -13 96 -13c46 0 82.333 11 109 33s40 53 40 93s-14.5 71 -43.5 93
s-67.833 33 -116.5 33h-57v81c50 0.666992 89.333 13.167 118 37.5s43 56.833 43 97.5c0 36 -12.167 64.667 -36.5 86s-58.5 32 -102.5 32c-48.667 0 -86.667 -13.833 -114 -41.5s-41 -67.834 -41 -120.501v-502h-96v494c0 54.667 10.667 101 32 139s51 66.667 89 86
s81.333 29 130 29c46.667 0 87.667 -8.66699 123 -26s62.333 -41 81 -71s28 -63.667 28 -101c0 -36 -8.33301 -67.667 -25 -95s-38.667 -49.333 -66 -66c45.333 -12 81.666 -34.167 108.999 -66.5z" />
    <glyph glyph-name="agrave" unicode="&#xe0;" horiz-adv-x="598" 
d="M452.5 481c39 -36 58.501 -89.6689 58.501 -161.002v-320h-91v70c-16 -24.667 -38.833 -43.5 -68.5 -56.5s-64.834 -19.5 -105.501 -19.5c-59.333 0 -106.833 14.333 -142.5 43s-53.5 66.334 -53.5 113.001s17 84.167 51 112.5s88 42.5 162 42.5h152v19
c0 41.333 -12 73 -36 95s-59.333 33 -106 33c-31.333 0 -62 -5.16699 -92 -15.5s-55.333 -24.166 -76 -41.499l-40 72c27.333 22 60 38.833 98 50.5s78.333 17.5 121 17.5c73.333 0 129.5 -18 168.5 -54zM357.001 92.498c26.667 16.333 45.998 39.5 57.998 69.5v74h-148
c-81.333 0 -122 -27.333 -122 -82c0 -26.667 10.333 -47.667 31 -63s49.334 -23 86.001 -23s68.334 8.16699 95.001 24.5zM107.999 736.998h122l136 -130h-90z" />
    <glyph glyph-name="aacute" unicode="&#xe1;" horiz-adv-x="598" 
d="M452.5 481c39 -36 58.501 -89.6689 58.501 -161.002v-320h-91v70c-16 -24.667 -38.833 -43.5 -68.5 -56.5s-64.834 -19.5 -105.501 -19.5c-59.333 0 -106.833 14.333 -142.5 43s-53.5 66.334 -53.5 113.001s17 84.167 51 112.5s88 42.5 162 42.5h152v19
c0 41.333 -12 73 -36 95s-59.333 33 -106 33c-31.333 0 -62 -5.16699 -92 -15.5s-55.333 -24.166 -76 -41.499l-40 72c27.333 22 60 38.833 98 50.5s78.333 17.5 121 17.5c73.333 0 129.5 -18 168.5 -54zM357.001 92.498c26.667 16.333 45.998 39.5 57.998 69.5v74h-148
c-81.333 0 -122 -27.333 -122 -82c0 -26.667 10.333 -47.667 31 -63s49.334 -23 86.001 -23s68.334 8.16699 95.001 24.5zM351.999 736.998h122l-168 -130h-90z" />
    <glyph glyph-name="acircumflex" unicode="&#xe2;" horiz-adv-x="598" 
d="M452.5 481c39 -36 58.501 -89.6689 58.501 -161.002v-320h-91v70c-16 -24.667 -38.833 -43.5 -68.5 -56.5s-64.834 -19.5 -105.501 -19.5c-59.333 0 -106.833 14.333 -142.5 43s-53.5 66.334 -53.5 113.001s17 84.167 51 112.5s88 42.5 162 42.5h152v19
c0 41.333 -12 73 -36 95s-59.333 33 -106 33c-31.333 0 -62 -5.16699 -92 -15.5s-55.333 -24.166 -76 -41.499l-40 72c27.333 22 60 38.833 98 50.5s78.333 17.5 121 17.5c73.333 0 129.5 -18 168.5 -54zM357.001 92.498c26.667 16.333 45.998 39.5 57.998 69.5v74h-148
c-81.333 0 -122 -27.333 -122 -82c0 -26.667 10.333 -47.667 31 -63s49.334 -23 86.001 -23s68.334 8.16699 95.001 24.5zM382.999 606.998l-92 77l-92 -77h-87l133 130h92l133 -130h-87z" />
    <glyph glyph-name="atilde" unicode="&#xe3;" horiz-adv-x="598" 
d="M452.5 481c39 -36 58.501 -89.6689 58.501 -161.002v-320h-91v70c-16 -24.667 -38.833 -43.5 -68.5 -56.5s-64.834 -19.5 -105.501 -19.5c-59.333 0 -106.833 14.333 -142.5 43s-53.5 66.334 -53.5 113.001s17 84.167 51 112.5s88 42.5 162 42.5h152v19
c0 41.333 -12 73 -36 95s-59.333 33 -106 33c-31.333 0 -62 -5.16699 -92 -15.5s-55.333 -24.166 -76 -41.499l-40 72c27.333 22 60 38.833 98 50.5s78.333 17.5 121 17.5c73.333 0 129.5 -18 168.5 -54zM357.001 92.498c26.667 16.333 45.998 39.5 57.998 69.5v74h-148
c-81.333 0 -122 -27.333 -122 -82c0 -26.667 10.333 -47.667 31 -63s49.334 -23 86.001 -23s68.334 8.16699 95.001 24.5zM319.499 619.998c-11.667 6.66699 -26.168 16.666 -43.501 29.999c-10 9.33301 -18.667 16.166 -26 20.499s-14.666 6.5 -21.999 6.5
c-14.667 0 -26.667 -5.5 -36 -16.5s-14.333 -26.167 -15 -45.5h-54c1.33301 37.333 10.833 67 28.5 89s40.834 33 69.501 33c16 0 30.167 -3.5 42.5 -10.5s26.5 -17.167 42.5 -30.5c11.333 -9.33301 20.333 -16.166 27 -20.499s13.667 -6.5 21 -6.5
c14.667 0 26.667 5.33301 36 16s14.333 25.334 15 44.001h54c-1.33301 -36 -10.833 -64.833 -28.5 -86.5s-40.834 -32.5 -69.501 -32.5c-16 0 -29.833 3.33301 -41.5 10z" />
    <glyph glyph-name="adieresis" unicode="&#xe4;" horiz-adv-x="598" 
d="M452.5 481c39 -36 58.501 -89.6689 58.501 -161.002v-320h-91v70c-16 -24.667 -38.833 -43.5 -68.5 -56.5s-64.834 -19.5 -105.501 -19.5c-59.333 0 -106.833 14.333 -142.5 43s-53.5 66.334 -53.5 113.001s17 84.167 51 112.5s88 42.5 162 42.5h152v19
c0 41.333 -12 73 -36 95s-59.333 33 -106 33c-31.333 0 -62 -5.16699 -92 -15.5s-55.333 -24.166 -76 -41.499l-40 72c27.333 22 60 38.833 98 50.5s78.333 17.5 121 17.5c73.333 0 129.5 -18 168.5 -54zM357.001 92.498c26.667 16.333 45.998 39.5 57.998 69.5v74h-148
c-81.333 0 -122 -27.333 -122 -82c0 -26.667 10.333 -47.667 31 -63s49.334 -23 86.001 -23s68.334 8.16699 95.001 24.5zM161.999 638.498c-10 9.66699 -15 21.834 -15 36.501s5 27 15 37s22 15 36 15s26 -5 36 -15s15 -22.333 15 -37s-5 -26.834 -15 -36.501
s-22 -14.5 -36 -14.5s-26 4.83301 -36 14.5zM347.999 638.498c-10 9.66699 -15 21.834 -15 36.501s5 27 15 37s22 15 36 15s26 -5 36 -15s15 -22.333 15 -37s-5 -26.834 -15 -36.501s-22 -14.5 -36 -14.5s-26 4.83301 -36 14.5z" />
    <glyph glyph-name="aring" unicode="&#xe5;" horiz-adv-x="598" 
d="M452.5 481c39 -36 58.501 -89.6689 58.501 -161.002v-320h-91v70c-16 -24.667 -38.833 -43.5 -68.5 -56.5s-64.834 -19.5 -105.501 -19.5c-59.333 0 -106.833 14.333 -142.5 43s-53.5 66.334 -53.5 113.001s17 84.167 51 112.5s88 42.5 162 42.5h152v19
c0 41.333 -12 73 -36 95s-59.333 33 -106 33c-31.333 0 -62 -5.16699 -92 -15.5s-55.333 -24.166 -76 -41.499l-40 72c27.333 22 60 38.833 98 50.5s78.333 17.5 121 17.5c73.333 0 129.5 -18 168.5 -54zM357.001 92.498c26.667 16.333 45.998 39.5 57.998 69.5v74h-148
c-81.333 0 -122 -27.333 -122 -82c0 -26.667 10.333 -47.667 31 -63s49.334 -23 86.001 -23s68.334 8.16699 95.001 24.5zM211.999 625.498c-21.333 21 -32 46.5 -32 76.5s10.667 55.833 32 77.5s47.333 32.5 78 32.5c31.333 0 57.666 -10.833 78.999 -32.5
s32 -47.5 32 -77.5s-10.667 -55.5 -32 -76.5s-47.666 -31.5 -78.999 -31.5c-30.667 0 -56.667 10.5 -78 31.5zM337.499 654.998c12.333 12.667 18.502 28.334 18.502 47.001c0 19.333 -6.33301 35.333 -19 48s-28.334 19 -47.001 19s-34.167 -6.33301 -46.5 -19
s-18.5 -28.667 -18.5 -48c0 -18.667 6.16699 -34.334 18.5 -47.001s27.833 -19 46.5 -19c19.333 0 35.166 6.33301 47.499 19z" />
    <glyph glyph-name="ae" unicode="&#xe6;" horiz-adv-x="989" 
d="M944 235h-431.998c5.33301 -47.333 25.333 -85.333 60 -114s78.667 -43 132 -43c62 0 113 21.333 153 64l54 -62c-24.667 -28 -54.834 -49.333 -90.501 -64s-75.5 -22 -119.5 -22c-49.333 0 -94 8.83301 -134 26.5s-73 44.5 -99 80.5
c-20.667 -37.333 -49.667 -64.5 -87 -81.5s-79 -25.5 -125 -25.5c-64 0 -114.333 14.667 -151 44s-55 68 -55 116c0 44 17 80 51 108s88 42 162 42h152v20c0 41.333 -11.833 73 -35.5 95s-58.834 33 -105.501 33c-32 0 -63 -5.16699 -93 -15.5s-55.333 -24.166 -76 -41.499
l-40 72c27.333 22 60 38.833 98 50.5s78 17.5 120 17.5c98 0 163.667 -31.333 197 -94c23.333 29.333 52.5 52.333 87.5 69s73.5 25 115.5 25c50 0 95.167 -11.5 135.5 -34.5s71.833 -54.833 94.5 -95.5s34 -86.334 34 -137.001c0 -12.667 -1 -23.667 -3 -33zM570.002 414
c-32 -26.667 -51.002 -63.334 -57.002 -110.001h339c-5.33301 46.667 -24.166 83.334 -56.499 110.001s-70.166 40 -113.499 40c-42.667 0 -80 -13.333 -112 -40zM374.5 104c27 24 40.5 56.333 40.5 97v34h-148c-81.333 0 -122 -26.333 -122 -79
c0 -28 10.5 -49.667 31.5 -65s50.167 -23 87.5 -23c46.667 0 83.5 12 110.5 36z" />
    <glyph glyph-name="ccedilla" unicode="&#xe7;" horiz-adv-x="571" 
d="M177.5 29c-42.333 23.333 -75.5 55.498 -99.5 96.498s-36 87.5 -36 139.5s12 98.5 36 139.5s57.167 73 99.5 96s90.5 34.5 144.5 34.5c48 0 90.833 -9.66699 128.5 -29s66.834 -47.333 87.501 -84l-73 -47c-16.667 25.333 -37.334 44.333 -62.001 57s-52 19 -82 19
c-34.667 0 -65.834 -7.66699 -93.501 -23s-49.334 -37.166 -65.001 -65.499s-23.5 -60.833 -23.5 -97.5c0 -37.333 7.83301 -70.166 23.5 -98.499s37.334 -50.166 65.001 -65.499s58.834 -23 93.501 -23c30 0 57.333 6.33301 82 19s45.334 31.667 62.001 57l73 -46
c-20.667 -36.667 -49.834 -64.834 -87.501 -84.501s-80.5 -29.5 -128.5 -29.5c-54 0 -102.167 11.667 -144.5 35zM186 -202.002l21 49c20 -11.333 42.667 -17 68 -17c37.333 0 56 13.333 56 40c0 12 -4.66699 21.5 -14 28.5s-23.666 10.5 -42.999 10.5h-27l25 98h55l-15 -57
c28 -2.66699 49.5 -11.5 64.5 -26.5s22.5 -33.833 22.5 -56.5c0 -28 -11.333 -50.167 -34 -66.5s-52.667 -24.5 -90 -24.5c-34.667 0 -64.334 7.33301 -89.001 22z" />
    <glyph glyph-name="egrave" unicode="&#xe8;" horiz-adv-x="612" 
d="M568 233h-430.001c6 -46.667 26.5 -84.167 61.5 -112.5s78.5 -42.5 130.5 -42.5c63.333 0 114.333 21.333 153 64l53 -62c-24 -28 -53.833 -49.333 -89.5 -64s-75.5 -22 -119.5 -22c-56 0 -105.667 11.5 -149 34.5s-76.833 55.167 -100.5 96.5s-35.5 88 -35.5 140
c0 51.333 11.5 97.666 34.5 138.999s54.667 73.5 95 96.5s85.833 34.5 136.5 34.5s95.834 -11.5 135.501 -34.5s70.667 -55.167 93 -96.5s33.5 -88.666 33.5 -141.999c0 -7.33301 -0.666992 -17 -2 -29zM192.499 412c-31 -28 -49.167 -64.667 -54.5 -110h340
c-5.33301 44.667 -23.5 81.167 -54.5 109.5s-69.5 42.5 -115.5 42.5s-84.5 -14 -115.5 -42zM123.999 737h122l136 -130h-90z" />
    <glyph glyph-name="eacute" unicode="&#xe9;" horiz-adv-x="612" 
d="M568 233h-430.001c6 -46.667 26.5 -84.167 61.5 -112.5s78.5 -42.5 130.5 -42.5c63.333 0 114.333 21.333 153 64l53 -62c-24 -28 -53.833 -49.333 -89.5 -64s-75.5 -22 -119.5 -22c-56 0 -105.667 11.5 -149 34.5s-76.833 55.167 -100.5 96.5s-35.5 88 -35.5 140
c0 51.333 11.5 97.666 34.5 138.999s54.667 73.5 95 96.5s85.833 34.5 136.5 34.5s95.834 -11.5 135.501 -34.5s70.667 -55.167 93 -96.5s33.5 -88.666 33.5 -141.999c0 -7.33301 -0.666992 -17 -2 -29zM192.499 412c-31 -28 -49.167 -64.667 -54.5 -110h340
c-5.33301 44.667 -23.5 81.167 -54.5 109.5s-69.5 42.5 -115.5 42.5s-84.5 -14 -115.5 -42zM367.999 737h122l-168 -130h-90z" />
    <glyph glyph-name="ecircumflex" unicode="&#xea;" horiz-adv-x="612" 
d="M568 233h-430.001c6 -46.667 26.5 -84.167 61.5 -112.5s78.5 -42.5 130.5 -42.5c63.333 0 114.333 21.333 153 64l53 -62c-24 -28 -53.833 -49.333 -89.5 -64s-75.5 -22 -119.5 -22c-56 0 -105.667 11.5 -149 34.5s-76.833 55.167 -100.5 96.5s-35.5 88 -35.5 140
c0 51.333 11.5 97.666 34.5 138.999s54.667 73.5 95 96.5s85.833 34.5 136.5 34.5s95.834 -11.5 135.501 -34.5s70.667 -55.167 93 -96.5s33.5 -88.666 33.5 -141.999c0 -7.33301 -0.666992 -17 -2 -29zM192.499 412c-31 -28 -49.167 -64.667 -54.5 -110h340
c-5.33301 44.667 -23.5 81.167 -54.5 109.5s-69.5 42.5 -115.5 42.5s-84.5 -14 -115.5 -42zM398.999 607l-92 77l-92 -77h-87l133 130h92l133 -130h-87z" />
    <glyph glyph-name="edieresis" unicode="&#xeb;" horiz-adv-x="612" 
d="M568 233h-430.001c6 -46.667 26.5 -84.167 61.5 -112.5s78.5 -42.5 130.5 -42.5c63.333 0 114.333 21.333 153 64l53 -62c-24 -28 -53.833 -49.333 -89.5 -64s-75.5 -22 -119.5 -22c-56 0 -105.667 11.5 -149 34.5s-76.833 55.167 -100.5 96.5s-35.5 88 -35.5 140
c0 51.333 11.5 97.666 34.5 138.999s54.667 73.5 95 96.5s85.833 34.5 136.5 34.5s95.834 -11.5 135.501 -34.5s70.667 -55.167 93 -96.5s33.5 -88.666 33.5 -141.999c0 -7.33301 -0.666992 -17 -2 -29zM192.499 412c-31 -28 -49.167 -64.667 -54.5 -110h340
c-5.33301 44.667 -23.5 81.167 -54.5 109.5s-69.5 42.5 -115.5 42.5s-84.5 -14 -115.5 -42zM177.999 638.5c-10 9.66699 -15 21.834 -15 36.501s5 27 15 37s22 15 36 15s26 -5 36 -15s15 -22.333 15 -37s-5 -26.834 -15 -36.501s-22 -14.5 -36 -14.5s-26 4.83301 -36 14.5z
M363.999 638.5c-10 9.66699 -15 21.834 -15 36.501s5 27 15 37s22 15 36 15s26 -5 36 -15s15 -22.333 15 -37s-5 -26.834 -15 -36.501s-22 -14.5 -36 -14.5s-26 4.83301 -36 14.5z" />
    <glyph glyph-name="igrave" unicode="&#xec;" horiz-adv-x="279" 
d="M91 530h96v-530h-96v530zM-44 737h122l136 -130h-90z" />
    <glyph glyph-name="iacute" unicode="&#xed;" horiz-adv-x="279" 
d="M91 530h96v-530h-96v530zM200 737h122l-168 -130h-90z" />
    <glyph glyph-name="icircumflex" unicode="&#xee;" horiz-adv-x="279" 
d="M91 530h96v-530h-96v530zM211 607l-72 74l-72 -74h-82l109 130h90l109 -130h-82z" />
    <glyph glyph-name="idieresis" unicode="&#xef;" horiz-adv-x="279" 
d="M91 530h96v-530h-96v530zM32 639.5c-9.33301 9.66699 -14 21.5 -14 35.5c0 14.667 4.66699 26.834 14 36.501s21.333 14.5 36 14.5c14 0 25.667 -4.83301 35 -14.5s14 -21.834 14 -36.501s-4.66699 -26.667 -14 -36s-21 -14 -35 -14c-14.667 0 -26.667 4.83301 -36 14.5z
M175 639.5c-9.33301 9.66699 -14 21.5 -14 35.5c0 14.667 4.66699 26.834 14 36.501s21 14.5 35 14.5c14.667 0 26.667 -4.83301 36 -14.5s14 -21.834 14 -36.501s-4.66699 -26.667 -14 -36s-21.333 -14 -36 -14c-14 0 -25.667 4.83301 -35 14.5z" />
    <glyph glyph-name="eth" unicode="&#xf0;" horiz-adv-x="640" 
d="M598 345c0 -72 -11.8359 -134.5 -35.5029 -187.5s-58.334 -93.833 -104.001 -122.5s-100.5 -43 -164.5 -43c-47.333 0 -90.166 9.16699 -128.499 27.5s-68.5 44.5 -90.5 78.5s-33 73.333 -33 118s11 83.834 33 117.501s52.333 59.667 91 78s82.334 27.5 131.001 27.5
c45.333 0 85.5 -9.16699 120.5 -27.5s62.5 -44.833 82.5 -79.5c0.666992 8 1 19.333 1 34c0 99.333 -26.667 173 -80 221l-267 -107l-26 63l217 88c-29.333 9.33301 -60.666 14 -93.999 14c-52 0 -100.333 -7.66699 -145 -23l-16 82c48.667 14.667 102.334 22 161.001 22
c78 0 144.333 -17.667 199 -53l89 36l26 -64l-56 -22c59.333 -66.667 89 -159.334 89 -278.001zM392.497 93c26.333 13.333 46.333 30.832 60 52.499s20.5 45.167 20.5 70.5c0 26.667 -7.16699 50.834 -21.5 72.501s-34 38.667 -59 51s-53.5 18.5 -85.5 18.5
c-52 0 -93 -13 -123 -39s-45 -60.333 -45 -103s15 -77.167 45 -103.5s69 -39.5 117 -39.5c34.667 0 65.167 6.66699 91.5 20z" />
    <glyph glyph-name="ntilde" unicode="&#xf1;" horiz-adv-x="681" 
d="M534.5 476.5c39.667 -39 59.5 -96.167 59.5 -171.5v-305h-96v294c0 51.333 -12.333 90 -37 116s-60 39 -106 39c-52 0 -93 -15.167 -123 -45.5s-45 -73.833 -45 -130.5v-273h-96v530h92v-80c19.333 27.333 45.5 48.333 78.5 63s70.5 22 112.5 22
c67.333 0 120.833 -19.5 160.5 -58.5zM371.5 620c-11.667 6.66699 -26.168 16.666 -43.501 29.999c-10 9.33301 -18.667 16.166 -26 20.499s-14.666 6.5 -21.999 6.5c-14.667 0 -26.667 -5.5 -36 -16.5s-14.333 -26.167 -15 -45.5h-54c1.33301 37.333 10.833 67 28.5 89
s40.834 33 69.501 33c16 0 30.167 -3.5 42.5 -10.5s26.5 -17.167 42.5 -30.5c11.333 -9.33301 20.333 -16.166 27 -20.499s13.667 -6.5 21 -6.5c14.667 0 26.667 5.33301 36 16s14.333 25.334 15 44.001h54c-1.33301 -36 -10.833 -64.833 -28.5 -86.5
s-40.834 -32.5 -69.501 -32.5c-16 0 -29.833 3.33301 -41.5 10z" />
    <glyph glyph-name="ograve" unicode="&#xf2;" horiz-adv-x="635" 
d="M176 29c-42 23.333 -74.833 55.5 -98.5 96.5s-35.5 87.5 -35.5 139.5s11.833 98.5 35.5 139.5s56.5 73 98.5 96s89.333 34.5 142 34.5s99.834 -11.5 141.501 -34.5s74.334 -55 98.001 -96s35.5 -87.5 35.5 -139.5s-11.833 -98.5 -35.5 -139.5
s-56.334 -73.167 -98.001 -96.5s-88.834 -35 -141.501 -35s-100 11.667 -142 35zM409.5 101.5c27 15.667 48.167 37.667 63.5 66s23 60.833 23 97.5s-7.66699 69.167 -23 97.5s-36.5 50.166 -63.5 65.499s-57.5 23 -91.5 23s-64.5 -7.66699 -91.5 -23
s-48.333 -37.166 -64 -65.499s-23.5 -60.833 -23.5 -97.5s7.83301 -69.167 23.5 -97.5s37 -50.333 64 -66s57.5 -23.5 91.5 -23.5s64.5 7.83301 91.5 23.5zM134 737h122l136 -130h-90z" />
    <glyph glyph-name="oacute" unicode="&#xf3;" horiz-adv-x="635" 
d="M176 29c-42 23.333 -74.833 55.5 -98.5 96.5s-35.5 87.5 -35.5 139.5s11.833 98.5 35.5 139.5s56.5 73 98.5 96s89.333 34.5 142 34.5s99.834 -11.5 141.501 -34.5s74.334 -55 98.001 -96s35.5 -87.5 35.5 -139.5s-11.833 -98.5 -35.5 -139.5
s-56.334 -73.167 -98.001 -96.5s-88.834 -35 -141.501 -35s-100 11.667 -142 35zM409.5 101.5c27 15.667 48.167 37.667 63.5 66s23 60.833 23 97.5s-7.66699 69.167 -23 97.5s-36.5 50.166 -63.5 65.499s-57.5 23 -91.5 23s-64.5 -7.66699 -91.5 -23
s-48.333 -37.166 -64 -65.499s-23.5 -60.833 -23.5 -97.5s7.83301 -69.167 23.5 -97.5s37 -50.333 64 -66s57.5 -23.5 91.5 -23.5s64.5 7.83301 91.5 23.5zM378 737h122l-168 -130h-90z" />
    <glyph glyph-name="ocircumflex" unicode="&#xf4;" horiz-adv-x="635" 
d="M176 29c-42 23.333 -74.833 55.5 -98.5 96.5s-35.5 87.5 -35.5 139.5s11.833 98.5 35.5 139.5s56.5 73 98.5 96s89.333 34.5 142 34.5s99.834 -11.5 141.501 -34.5s74.334 -55 98.001 -96s35.5 -87.5 35.5 -139.5s-11.833 -98.5 -35.5 -139.5
s-56.334 -73.167 -98.001 -96.5s-88.834 -35 -141.501 -35s-100 11.667 -142 35zM409.5 101.5c27 15.667 48.167 37.667 63.5 66s23 60.833 23 97.5s-7.66699 69.167 -23 97.5s-36.5 50.166 -63.5 65.499s-57.5 23 -91.5 23s-64.5 -7.66699 -91.5 -23
s-48.333 -37.166 -64 -65.499s-23.5 -60.833 -23.5 -97.5s7.83301 -69.167 23.5 -97.5s37 -50.333 64 -66s57.5 -23.5 91.5 -23.5s64.5 7.83301 91.5 23.5zM409 607l-92 77l-92 -77h-87l133 130h92l133 -130h-87z" />
    <glyph glyph-name="otilde" unicode="&#xf5;" horiz-adv-x="635" 
d="M176 29c-42 23.333 -74.833 55.5 -98.5 96.5s-35.5 87.5 -35.5 139.5s11.833 98.5 35.5 139.5s56.5 73 98.5 96s89.333 34.5 142 34.5s99.834 -11.5 141.501 -34.5s74.334 -55 98.001 -96s35.5 -87.5 35.5 -139.5s-11.833 -98.5 -35.5 -139.5
s-56.334 -73.167 -98.001 -96.5s-88.834 -35 -141.501 -35s-100 11.667 -142 35zM409.5 101.5c27 15.667 48.167 37.667 63.5 66s23 60.833 23 97.5s-7.66699 69.167 -23 97.5s-36.5 50.166 -63.5 65.499s-57.5 23 -91.5 23s-64.5 -7.66699 -91.5 -23
s-48.333 -37.166 -64 -65.499s-23.5 -60.833 -23.5 -97.5s7.83301 -69.167 23.5 -97.5s37 -50.333 64 -66s57.5 -23.5 91.5 -23.5s64.5 7.83301 91.5 23.5zM345.5 620c-11.667 6.66699 -26.168 16.666 -43.501 29.999c-10 9.33301 -18.667 16.166 -26 20.499
s-14.666 6.5 -21.999 6.5c-14.667 0 -26.667 -5.5 -36 -16.5s-14.333 -26.167 -15 -45.5h-54c1.33301 37.333 10.833 67 28.5 89s40.834 33 69.501 33c16 0 30.167 -3.5 42.5 -10.5s26.5 -17.167 42.5 -30.5c11.333 -9.33301 20.333 -16.166 27 -20.499s13.667 -6.5 21 -6.5
c14.667 0 26.667 5.33301 36 16s14.333 25.334 15 44.001h54c-1.33301 -36 -10.833 -64.833 -28.5 -86.5s-40.834 -32.5 -69.501 -32.5c-16 0 -29.833 3.33301 -41.5 10z" />
    <glyph glyph-name="odieresis" unicode="&#xf6;" horiz-adv-x="635" 
d="M176 29c-42 23.333 -74.833 55.5 -98.5 96.5s-35.5 87.5 -35.5 139.5s11.833 98.5 35.5 139.5s56.5 73 98.5 96s89.333 34.5 142 34.5s99.834 -11.5 141.501 -34.5s74.334 -55 98.001 -96s35.5 -87.5 35.5 -139.5s-11.833 -98.5 -35.5 -139.5
s-56.334 -73.167 -98.001 -96.5s-88.834 -35 -141.501 -35s-100 11.667 -142 35zM409.5 101.5c27 15.667 48.167 37.667 63.5 66s23 60.833 23 97.5s-7.66699 69.167 -23 97.5s-36.5 50.166 -63.5 65.499s-57.5 23 -91.5 23s-64.5 -7.66699 -91.5 -23
s-48.333 -37.166 -64 -65.499s-23.5 -60.833 -23.5 -97.5s7.83301 -69.167 23.5 -97.5s37 -50.333 64 -66s57.5 -23.5 91.5 -23.5s64.5 7.83301 91.5 23.5zM188 638.5c-10 9.66699 -15 21.834 -15 36.501s5 27 15 37s22 15 36 15s26 -5 36 -15s15 -22.333 15 -37
s-5 -26.834 -15 -36.501s-22 -14.5 -36 -14.5s-26 4.83301 -36 14.5zM374 638.5c-10 9.66699 -15 21.834 -15 36.501s5 27 15 37s22 15 36 15s26 -5 36 -15s15 -22.333 15 -37s-5 -26.834 -15 -36.501s-22 -14.5 -36 -14.5s-26 4.83301 -36 14.5z" />
    <glyph glyph-name="divide" unicode="&#xf7;" horiz-adv-x="582" 
d="M250.5 504.5c-11 11.667 -16.5 25.832 -16.5 42.499c0 17.333 5.5 31.666 16.5 42.999s24.5 17 40.5 17c16.667 0 30.5 -5.66699 41.5 -17s16.5 -25.666 16.5 -42.999s-5.5 -31.666 -16.5 -42.999s-24.833 -17 -41.5 -17c-16 0 -29.5 5.83301 -40.5 17.5zM67 388.998h448
v-79h-448v79zM250.5 110.498c-11 11.667 -16.5 26.167 -16.5 43.5c0 16.667 5.5 30.667 16.5 42s24.5 17 40.5 17c16.667 0 30.5 -5.66699 41.5 -17s16.5 -25.333 16.5 -42c0 -17.333 -5.5 -31.833 -16.5 -43.5s-24.833 -17.5 -41.5 -17.5c-16 0 -29.5 5.83301 -40.5 17.5z
" />
    <glyph glyph-name="oslash" unicode="&#xf8;" horiz-adv-x="635" 
d="M176 29c-42 23.333 -74.833 55.5 -98.5 96.5s-35.5 87.5 -35.5 139.5s11.833 98.5 35.5 139.5s56.5 73 98.5 96s89.333 34.5 142 34.5s99.834 -11.5 141.501 -34.5s74.334 -55 98.001 -96s35.5 -87.5 35.5 -139.5s-11.833 -98.5 -35.5 -139.5
s-56.334 -73.167 -98.001 -96.5s-88.834 -35 -141.501 -35s-100 11.667 -142 35zM409.5 101.5c27 15.667 48.167 37.667 63.5 66s23 60.833 23 97.5s-7.66699 69.167 -23 97.5s-36.5 50.166 -63.5 65.499s-57.5 23 -91.5 23s-64.5 -7.66699 -91.5 -23
s-48.333 -37.166 -64 -65.499s-23.5 -60.833 -23.5 -97.5s7.83301 -69.167 23.5 -97.5s37 -50.333 64 -66s57.5 -23.5 91.5 -23.5s64.5 7.83301 91.5 23.5zM508 598h59l-440 -669h-60z" />
    <glyph glyph-name="ugrave" unicode="&#xf9;" horiz-adv-x="677" 
d="M585 530l0.000976562 -530.001h-91v80c-19.333 -27.333 -44.833 -48.5 -76.5 -63.5s-66.167 -22.5 -103.5 -22.5c-70.667 0 -126.334 19.5 -167.001 58.5s-61 96.5 -61 172.5v305h96v-294c0 -51.333 12.333 -90.166 37 -116.499s60 -39.5 106 -39.5
c50.667 0 90.667 15.333 120 46s44 74 44 130v274h96zM153.001 736.999h122l136 -130h-90z" />
    <glyph glyph-name="uacute" unicode="&#xfa;" horiz-adv-x="677" 
d="M585 530l0.000976562 -530.001h-91v80c-19.333 -27.333 -44.833 -48.5 -76.5 -63.5s-66.167 -22.5 -103.5 -22.5c-70.667 0 -126.334 19.5 -167.001 58.5s-61 96.5 -61 172.5v305h96v-294c0 -51.333 12.333 -90.166 37 -116.499s60 -39.5 106 -39.5
c50.667 0 90.667 15.333 120 46s44 74 44 130v274h96zM397.001 736.999h122l-168 -130h-90z" />
    <glyph glyph-name="ucircumflex" unicode="&#xfb;" horiz-adv-x="677" 
d="M585 530l0.000976562 -530.001h-91v80c-19.333 -27.333 -44.833 -48.5 -76.5 -63.5s-66.167 -22.5 -103.5 -22.5c-70.667 0 -126.334 19.5 -167.001 58.5s-61 96.5 -61 172.5v305h96v-294c0 -51.333 12.333 -90.166 37 -116.499s60 -39.5 106 -39.5
c50.667 0 90.667 15.333 120 46s44 74 44 130v274h96zM428.001 606.999l-92 77l-92 -77h-87l133 130h92l133 -130h-87z" />
    <glyph glyph-name="udieresis" unicode="&#xfc;" horiz-adv-x="677" 
d="M585 530l0.000976562 -530.001h-91v80c-19.333 -27.333 -44.833 -48.5 -76.5 -63.5s-66.167 -22.5 -103.5 -22.5c-70.667 0 -126.334 19.5 -167.001 58.5s-61 96.5 -61 172.5v305h96v-294c0 -51.333 12.333 -90.166 37 -116.499s60 -39.5 106 -39.5
c50.667 0 90.667 15.333 120 46s44 74 44 130v274h96zM207.001 638.499c-10 9.66699 -15 21.834 -15 36.501s5 27 15 37s22 15 36 15s26 -5 36 -15s15 -22.333 15 -37s-5 -26.834 -15 -36.501s-22 -14.5 -36 -14.5s-26 4.83301 -36 14.5zM393.001 638.499
c-10 9.66699 -15 21.834 -15 36.501s5 27 15 37s22 15 36 15s26 -5 36 -15s15 -22.333 15 -37s-5 -26.834 -15 -36.501s-22 -14.5 -36 -14.5s-26 4.83301 -36 14.5z" />
    <glyph glyph-name="yacute" unicode="&#xfd;" horiz-adv-x="559" 
d="M560 530l-257.001 -583c-22.667 -54 -49.167 -92 -79.5 -114s-66.833 -33 -109.5 -33c-26 0 -51.167 4.16699 -75.5 12.5s-44.5 20.5 -60.5 36.5l41 72c27.333 -26 59 -39 95 -39c23.333 0 42.833 6.16699 58.5 18.5s29.834 33.5 42.501 63.5l17 37l-234 529h100
l185 -424l183 424h94zM326.999 737h122l-168 -130h-90z" />
    <glyph glyph-name="thorn" unicode="&#xfe;" horiz-adv-x="682" 
d="M510 501c40.667 -22.667 72.499 -54.332 95.499 -94.999s34.5 -87.667 34.5 -141s-11.5 -100.5 -34.5 -141.5s-54.833 -72.833 -95.5 -95.5s-86.667 -34 -138 -34c-38 0 -72.833 7.33301 -104.5 22s-58.5 36 -80.5 64v-274h-96v936h96v-291
c21.333 27.333 47.833 48.166 79.5 62.499s66.834 21.5 105.501 21.5c51.333 0 97.333 -11.333 138 -34zM455.499 101.502c27 15.667 48.335 37.668 64.002 66.001s23.5 60.833 23.5 97.5s-7.83301 69.167 -23.5 97.5s-37 50.166 -64 65.499s-57.5 23 -91.5 23
c-33.333 0 -63.5 -7.83301 -90.5 -23.5s-48.333 -37.5 -64 -65.5s-23.5 -60.333 -23.5 -97s7.66699 -69.167 23 -97.5s36.666 -50.333 63.999 -66s57.666 -23.5 90.999 -23.5c34 0 64.5 7.83301 91.5 23.5z" />
    <glyph glyph-name="ydieresis" unicode="&#xff;" horiz-adv-x="559" 
d="M560 530l-257.001 -583c-22.667 -54 -49.167 -92 -79.5 -114s-66.833 -33 -109.5 -33c-26 0 -51.167 4.16699 -75.5 12.5s-44.5 20.5 -60.5 36.5l41 72c27.333 -26 59 -39 95 -39c23.333 0 42.833 6.16699 58.5 18.5s29.834 33.5 42.501 63.5l17 37l-234 529h100
l185 -424l183 424h94zM136.999 638.5c-10 9.66699 -15 21.834 -15 36.501s5 27 15 37s22 15 36 15s26 -5 36 -15s15 -22.333 15 -37s-5 -26.834 -15 -36.501s-22 -14.5 -36 -14.5s-26 4.83301 -36 14.5zM322.999 638.5c-10 9.66699 -15 21.834 -15 36.501s5 27 15 37
s22 15 36 15s26 -5 36 -15s15 -22.333 15 -37s-5 -26.834 -15 -36.501s-22 -14.5 -36 -14.5s-26 4.83301 -36 14.5z" />
    <glyph glyph-name="dotlessi" unicode="&#x131;" horiz-adv-x="279" 
d="M91 530h96v-530h-96v530z" />
    <glyph glyph-name="OE" unicode="&#x152;" horiz-adv-x="1126" 
d="M1069 87v-86.999h-643c-74 0 -139.667 14.667 -197 44s-101.833 70.5 -133.5 123.5s-47.5 113.5 -47.5 181.5c0 68.667 15.833 129.667 47.5 183s76.167 94.666 133.5 123.999s123 44 197 44h629v-87h-395v-215h352v-85h-352v-226h409zM561 87.001v526h-130
c-56.667 0 -106.334 -11 -149.001 -33s-75.667 -53 -99 -93s-35 -86 -35 -138c0 -51.333 11.667 -96.833 35 -136.5s56.333 -70.5 99 -92.5s92.334 -33 149.001 -33h130z" />
    <glyph glyph-name="oe" unicode="&#x153;" horiz-adv-x="1067" 
d="M1023 233l-430.004 -0.000976562c6 -46.667 26.333 -84.167 61 -112.5s78 -42.5 130 -42.5c64 0 115 21.333 153 64l53 -62c-24 -28 -53.833 -49.333 -89.5 -64s-75.5 -22 -119.5 -22c-52.667 0 -99.5 10.5 -140.5 31.5s-73.167 50.167 -96.5 87.5
c-22.667 -37.333 -53.667 -66.5 -93 -87.5s-83.666 -31.5 -132.999 -31.5c-52.667 0 -100 11.667 -142 35s-74.833 55.5 -98.5 96.5s-35.5 87.5 -35.5 139.5s11.833 98.5 35.5 139.5s56.5 73 98.5 96s89.333 34.5 142 34.5c50 0 94.333 -10.333 133 -31
s69.334 -49.667 92.001 -87c22.667 37.333 52.834 66.333 90.501 87s80.5 31 128.5 31c50.667 0 95.834 -11.5 135.501 -34.5s70.667 -55.167 93 -96.5s33.5 -88.666 33.5 -141.999c0 -13.333 -0.333008 -23 -1 -29zM647.496 411.999c-31 -28 -49.168 -64.667 -54.501 -110
h340c-5.33301 44.667 -23.666 81.167 -54.999 109.5s-70 42.5 -116 42.5c-45.333 0 -83.5 -14 -114.5 -42zM409.495 101.499c27 15.667 48.167 37.667 63.5 66s23 60.833 23 97.5s-7.66699 69.167 -23 97.5s-36.5 50.166 -63.5 65.499s-57.5 23 -91.5 23
s-64.5 -7.66699 -91.5 -23s-48.333 -37.166 -64 -65.499s-23.5 -60.833 -23.5 -97.5s7.83301 -69.167 23.5 -97.5s37 -50.333 64 -66s57.5 -23.5 91.5 -23.5s64.5 7.83301 91.5 23.5z" />
    <glyph glyph-name="uni02BB" unicode="&#x2bb;" horiz-adv-x="273" 
d="M187 689c7.33301 -10.667 11.0029 -23.667 11.0029 -39c0 -20 -6.33301 -36.333 -19 -49s-28.334 -19 -47.001 -19c-19.333 0 -35.333 6.5 -48 19.5s-19 29.167 -19 48.5c0 9.33301 1.16699 18.833 3.5 28.5s7.16602 23.834 14.499 42.501l47 140h63l-37 -149
c13.333 -4.66699 23.666 -12.334 30.999 -23.001z" />
    <glyph glyph-name="uni02BC" unicode="&#x2bc;" horiz-adv-x="174" 
d="M56 700h66l-16 -261h-53z" />
    <glyph glyph-name="circumflex" unicode="&#x2c6;" horiz-adv-x="600" 
d="M392 607l-92 77l-92 -77h-87l133 130h92l133 -130h-87z" />
    <glyph glyph-name="ring" unicode="&#x2da;" horiz-adv-x="600" 
d="M221 625.5c-21.333 21 -32 46.5 -32 76.5s10.667 55.833 32 77.5s47.333 32.5 78 32.5c31.333 0 57.666 -10.833 78.999 -32.5s32 -47.5 32 -77.5s-10.667 -55.5 -32 -76.5s-47.666 -31.5 -78.999 -31.5c-30.667 0 -56.667 10.5 -78 31.5zM346.5 655
c12.333 12.667 18.502 28.334 18.502 47.001c0 19.333 -6.33301 35.333 -19 48s-28.334 19 -47.001 19s-34.167 -6.33301 -46.5 -19s-18.5 -28.667 -18.5 -48c0 -18.667 6.16699 -34.334 18.5 -47.001s27.833 -19 46.5 -19c19.333 0 35.166 6.33301 47.499 19z" />
    <glyph glyph-name="tilde" unicode="&#x2dc;" horiz-adv-x="600" 
d="M328.5 620c-11.667 6.66699 -26.168 16.666 -43.501 29.999c-10 9.33301 -18.667 16.166 -26 20.499s-14.666 6.5 -21.999 6.5c-14.667 0 -26.667 -5.5 -36 -16.5s-14.333 -26.167 -15 -45.5h-54c1.33301 37.333 10.833 67 28.5 89s40.834 33 69.501 33
c16 0 30.167 -3.5 42.5 -10.5s26.5 -17.167 42.5 -30.5c11.333 -9.33301 20.333 -16.166 27 -20.499s13.667 -6.5 21 -6.5c14.667 0 26.667 5.33301 36 16s14.333 25.334 15 44.001h54c-1.33301 -36 -10.833 -64.833 -28.5 -86.5s-40.834 -32.5 -69.501 -32.5
c-16 0 -29.833 3.33301 -41.5 10z" />
    <glyph glyph-name="uni0400" unicode="&#x400;" horiz-adv-x="665" 
d="M617 87v-87h-508v700h494v-87h-394v-215h351v-85h-351v-226h408zM174 887h122l136 -130h-90z" />
    <glyph glyph-name="uni0401" unicode="&#x401;" horiz-adv-x="665" 
d="M617 87v-87h-508v700h494v-87h-394v-215h351v-85h-351v-226h408zM228 788.5c-10 9.66699 -15 21.834 -15 36.501s5 27 15 37s22 15 36 15s26 -5 36 -15s15 -22.333 15 -37s-5 -26.834 -15 -36.501s-22 -14.5 -36 -14.5s-26 4.83301 -36 14.5zM414 788.5
c-10 9.66699 -15 21.834 -15 36.501s5 27 15 37s22 15 36 15s26 -5 36 -15s15 -22.333 15 -37s-5 -26.834 -15 -36.501s-22 -14.5 -36 -14.5s-26 4.83301 -36 14.5z" />
    <glyph glyph-name="uni0402" unicode="&#x402;" horiz-adv-x="833" 
d="M552 425c74.667 0 133.833 -18.501 177.5 -55.501s65.5 -90.167 65.5 -159.5c0 -71.333 -21.833 -125 -65.5 -161s-99.167 -54 -166.5 -54c-27.333 0 -55.666 3 -84.999 9l12 83c21.333 -5.33301 41.666 -8 60.999 -8c41.333 0 75.833 10.833 103.5 32.5
s41.5 53.834 41.5 96.501c0 43.333 -14.833 76.333 -44.5 99s-69.167 34 -118.5 34c-56.667 0 -117 -14 -181 -42v-299h-98v613h-240v87h601v-87h-263v-225c71.333 24.667 138 37 200 37z" />
    <glyph glyph-name="uni0403" unicode="&#x403;" horiz-adv-x="578" 
d="M567 613h-360l1 -613h-99v700h459zM391 887h122l-168 -130h-90z" />
    <glyph glyph-name="uni0404" unicode="&#x404;" horiz-adv-x="708" 
d="M225 38.5c-53.333 31 -95.3311 73.665 -125.998 127.998s-46 115.5 -46 183.5s15.333 129.167 46 183.5s72.667 97 126 128s113.333 46.5 180 46.5c57.333 0 109.333 -9.33301 156 -28s85.667 -46 117 -82l-63 -63c-52.667 55.333 -121 83 -205 83
c-44.667 0 -85.334 -9.83301 -122.001 -29.5s-66.667 -47.167 -90 -82.5s-37.333 -75.666 -42 -120.999h339v-82h-338c6.66699 -43.333 21.667 -81.666 45 -114.999s53 -59.333 89 -78s75.667 -28 119 -28c83.333 0 151.666 27.667 204.999 83l63 -63
c-31.333 -36 -70.5 -63.333 -117.5 -82s-98.833 -28 -155.5 -28c-66.667 0 -126.667 15.5 -180 46.5z" />
    <glyph glyph-name="uni0405" unicode="&#x405;" horiz-adv-x="636" 
d="M164.5 16.5c-49 16.333 -87.5029 37.498 -115.503 63.498l37 78c26.667 -24 60.834 -43.5 102.501 -58.5s84.5 -22.5 128.5 -22.5c58 0 101.333 9.83301 130 29.5s43 45.834 43 78.501c0 24 -7.83301 43.5 -23.5 58.5s-35 26.5 -58 34.5s-55.5 17 -97.5 27
c-52.667 12.667 -95.167 25.334 -127.5 38.001s-60 32.167 -83 58.5s-34.5 61.833 -34.5 106.5c0 37.333 9.83301 71 29.5 101s49.5 54 89.5 72s89.667 27 149 27c41.333 0 82 -5.33301 122 -16s74.333 -26 103 -46l-33 -80c-29.333 18.667 -60.666 32.834 -93.999 42.501
s-66 14.5 -98 14.5c-56.667 0 -99.167 -10.333 -127.5 -31s-42.5 -47.334 -42.5 -80.001c0 -24 8 -43.5 24 -58.5s35.833 -26.667 59.5 -35s55.834 -17.166 96.501 -26.499c52.667 -12.667 95 -25.334 127 -38.001s59.5 -32 82.5 -58s34.5 -61 34.5 -105
c0 -36.667 -10 -70.167 -30 -100.5s-50.333 -54.333 -91 -72s-90.667 -26.5 -150 -26.5c-52.667 0 -103.5 8.16699 -152.5 24.5z" />
    <glyph glyph-name="uni0406" unicode="&#x406;" horiz-adv-x="317" 
d="M109 700h99v-700h-99v700z" />
    <glyph glyph-name="uni0407" unicode="&#x407;" horiz-adv-x="310" 
d="M105 700h100v-700h-100v700zM26 788.5c-10 9.66699 -15 21.834 -15 36.501s5 27 15 37s22 15 36 15s26 -5 36 -15s15 -22.333 15 -37s-5 -26.834 -15 -36.501s-22 -14.5 -36 -14.5s-26 4.83301 -36 14.5zM212 788.5c-10 9.66699 -15 21.834 -15 36.501s5 27 15 37
s22 15 36 15s26 -5 36 -15s15 -22.333 15 -37s-5 -26.834 -15 -36.501s-22 -14.5 -36 -14.5s-26 4.83301 -36 14.5z" />
    <glyph glyph-name="uni0408" unicode="&#x408;" horiz-adv-x="540" 
d="M105 18.5c-36 17.667 -65 42.5 -87 74.5l58 68c38.667 -55.333 87.334 -83 146.001 -83c39.333 0 69.166 12 89.499 36s30.5 59.333 30.5 106v393h-253v87h352v-475c0 -77.333 -18.5 -135.5 -55.5 -174.5s-91.5 -58.5 -163.5 -58.5c-42 0 -81 8.83301 -117 26.5z" />
    <glyph glyph-name="uni0409" unicode="&#x409;" horiz-adv-x="1187" 
d="M681 700l-0.00292969 -700h-98v613h-310l-7 -205c-3.33301 -96.667 -11.166 -175 -23.499 -235s-31.833 -105.167 -58.5 -135.5s-62.667 -45.5 -108 -45.5c-20.667 0 -41.667 2.66699 -63 8l7 89c10.667 -2.66699 21.334 -4 32.001 -4c28.667 0 51.667 11.5 69 34.5
s30.333 57.5 39 103.5s14.334 106.667 17.001 182l11 295h493zM1081.5 400c44.333 -37.333 66.502 -92.333 66.502 -165c0 -76.667 -23.833 -135 -71.5 -175s-115.834 -60 -204.501 -60h-289v700h99v-244h208c83.333 0 147.166 -18.667 191.499 -56zM1001.5 118.5
c31 26.333 46.5 64.5 46.5 114.5c0 96 -60 144 -180 144h-186v-298h186c58 0 102.5 13.167 133.5 39.5z" />
    <glyph glyph-name="uni040A" unicode="&#x40a;" horiz-adv-x="1180" 
d="M1080.5 370c42.333 -36 63.501 -86.667 63.501 -152c0 -68.667 -22.833 -122.167 -68.5 -160.5s-108.5 -57.5 -188.5 -57.5h-290v334h-389v-334h-99v700h99v-280h389v280h98v-276h206c77.333 0 137.166 -18 179.499 -54zM999.501 114.5
c29 23.667 43.499 56.833 43.499 99.5c0 42 -14.167 74.167 -42.5 96.5s-69.166 33.5 -122.499 33.5h-183v-265h183c52 0 92.5 11.833 121.5 35.5z" />
    <glyph glyph-name="uni040B" unicode="&#x40b;" horiz-adv-x="842" 
d="M728 363c43.333 -39.333 65.001 -97.333 65.001 -174v-189h-98v176c0 50.667 -14.667 89.5 -44 116.5s-70 40.5 -122 40.5c-51.333 0 -111 -14.667 -179 -44v-289h-98v613h-239v87h596v-87h-259v-232c71.333 27.333 138 41 200 41c75.333 0 134.666 -19.667 177.999 -59z
" />
    <glyph glyph-name="uni040C" unicode="&#x40c;" horiz-adv-x="711" 
d="M353 308h-146v-308h-98v700h98v-304h148l220 304h107l-250 -339l262 -361h-114zM420 887h122l-168 -130h-90z" />
    <glyph glyph-name="uni040D" unicode="&#x40d;" horiz-adv-x="823" 
d="M109 700h99v-540l414 540h92v-700h-98v539l-415 -539h-92v700zM227 887h122l136 -130h-90z" />
    <glyph glyph-name="uni040E" unicode="&#x40e;" horiz-adv-x="691" 
d="M682 700l-311.001 -577c-24.667 -46 -53.667 -80.333 -87 -103s-69.666 -34 -108.999 -34c-30.667 0 -62 7 -94 21l26 80c24.667 -8.66699 46.667 -13 66 -13c44 0 80.333 23.333 109 70l16 25l-282 531h107l227 -444l233 444h99zM213.499 784.5
c-29.667 23.667 -44.832 57.5 -45.499 101.5h71c0.666992 -26 9.83398 -46.167 27.501 -60.5s42.167 -21.5 73.5 -21.5c30 0 54.167 7.16699 72.5 21.5s27.833 34.5 28.5 60.5h70c-0.666992 -43.333 -15.834 -77 -45.501 -101s-71.5 -36 -125.5 -36
c-54.667 0 -96.834 11.833 -126.501 35.5z" />
    <glyph glyph-name="uni040F" unicode="&#x40f;" horiz-adv-x="807" 
d="M697 0h-248v-159h-92v159h-248v700h99v-613h390v613h99v-700z" />
    <glyph glyph-name="uni0410" unicode="&#x410;" horiz-adv-x="758" 
d="M564 175h-372l-77 -175h-103l317 700h99l318 -700h-105zM529 255l-151 343l-151 -343h302z" />
    <glyph glyph-name="uni0411" unicode="&#x411;" horiz-adv-x="731" 
d="M109 700l528.001 0.000976562v-85h-429v-200h218c83.333 0 146.666 -17.333 189.999 -52s65 -84.667 65 -150c0 -68.667 -23.5 -121.334 -70.5 -158.001s-114.167 -55 -201.5 -55h-300v700zM405.001 79.001c57.333 0 101 11 131 33s45 54.333 45 97
c0 84.667 -58.667 127 -176 127h-197v-257h197z" />
    <glyph glyph-name="uni0412" unicode="&#x412;" horiz-adv-x="747" 
d="M652.5 302.5c24.333 -29 36.501 -66.167 36.501 -111.5c0 -60.667 -22.167 -107.667 -66.5 -141s-108.833 -50 -193.5 -50h-320v700h301c76.667 0 136.5 -15.5 179.5 -46.5s64.5 -75.5 64.5 -133.5c0 -38 -9.5 -70.333 -28.5 -97s-45.833 -46.667 -80.5 -60
c47.333 -11.333 83.166 -31.5 107.499 -60.5zM208.001 392l194.999 0.000976562c48.667 0 85.834 9.66699 111.501 29s38.5 47.666 38.5 84.999s-13 65.833 -39 85.5s-63 29.5 -111 29.5h-195v-229zM588 199.001c0 40 -13.5 69.5 -40.5 88.5s-67.167 28.5 -120.5 28.5h-219
v-237h219c107.333 0 161 40 161 120z" />
    <glyph glyph-name="uni0413" unicode="&#x413;" horiz-adv-x="578" 
d="M567 613h-360l1 -613h-99v700h459z" />
    <glyph glyph-name="uni0414" unicode="&#x414;" horiz-adv-x="804" 
d="M776 87v-240h-93v153h-576l-1 -153h-93l1 240h34c44 2.66699 75 37.5 93 104.5s29 161.5 33 283.5l7 225h492v-613h103zM238.5 221c-12.333 -64.667 -32.168 -109.332 -59.501 -133.999h395v526h-307l-5 -147c-3.33301 -98.667 -11.166 -180.334 -23.499 -245.001z" />
    <glyph glyph-name="uni0415" unicode="&#x415;" horiz-adv-x="665" 
d="M617 87v-87h-508v700h494v-87h-394v-215h351v-85h-351v-226h408z" />
    <glyph glyph-name="uni0416" unicode="&#x416;" horiz-adv-x="1029" 
d="M697 308h-133v-308h-98v308h-134l-196 -308h-117l231 364l-214 336h107l187 -304h136v304h98v-304h134l188 304h107l-214 -338l231 -362h-117z" />
    <glyph glyph-name="uni0417" unicode="&#x417;" horiz-adv-x="642" 
d="M547 302.5c24.667 -29.667 37.0059 -65.1689 37.0059 -106.502s-13.167 -77.5 -39.5 -108.5s-61.333 -54.667 -105 -71s-91.167 -24.5 -142.5 -24.5c-46.667 0 -93 7 -139 21s-88 35 -126 63l35 74c30.667 -24 65 -42 103 -54s76.333 -18 115 -18
c56 0 103 11.833 141 35.5s57 56.167 57 97.5c0 35.333 -14.333 62.5 -43 81.5s-69 28.5 -121 28.5h-156v81h149c44.667 0 79.5 9.16699 104.5 27.5s37.5 43.833 37.5 76.5c0 36.667 -16.333 65.667 -49 87s-74 32 -124 32c-32.667 0 -65.834 -4.66699 -99.501 -14
s-65.5 -23.333 -95.5 -42l-32 82c35.333 20 72.666 35 111.999 45s78.666 15 117.999 15c49.333 0 94.666 -7.66699 135.999 -23s74.166 -37.666 98.499 -66.999s36.5 -63.666 36.5 -102.999c0 -35.333 -9.83301 -66.333 -29.5 -93s-46.834 -46.667 -81.501 -60
c44 -12 78.333 -32.833 103 -62.5z" />
    <glyph glyph-name="uni0418" unicode="&#x418;" horiz-adv-x="823" 
d="M109 700h99v-540l414 540h92v-700h-98v539l-415 -539h-92v700z" />
    <glyph glyph-name="uni0419" unicode="&#x419;" horiz-adv-x="823" 
d="M109 700h99v-540l414 540h92v-700h-98v539l-415 -539h-92v700zM283.5 784.5c-29.667 23.667 -44.832 57.5 -45.499 101.5h71c0.666992 -26 9.83398 -46.167 27.501 -60.5s42.167 -21.5 73.5 -21.5c30 0 54.167 7.16699 72.5 21.5s27.833 34.5 28.5 60.5h70
c-0.666992 -43.333 -15.834 -77 -45.501 -101s-71.5 -36 -125.5 -36c-54.667 0 -96.834 11.833 -126.501 35.5z" />
    <glyph glyph-name="uni041A" unicode="&#x41a;" horiz-adv-x="711" 
d="M353 308h-146v-308h-98v700h98v-304h148l220 304h107l-250 -339l262 -361h-114z" />
    <glyph glyph-name="uni041B" unicode="&#x41b;" horiz-adv-x="790" 
d="M681 700l-0.00292969 -700h-98v613h-310l-7 -205c-3.33301 -96.667 -11.166 -175 -23.499 -235s-31.833 -105.167 -58.5 -135.5s-62.667 -45.5 -108 -45.5c-20.667 0 -41.667 2.66699 -63 8l7 89c10.667 -2.66699 21.334 -4 32.001 -4c28.667 0 51.667 11.5 69 34.5
s30.333 57.5 39 103.5s14.334 106.667 17.001 182l11 295h493z" />
    <glyph glyph-name="uni041C" unicode="&#x41c;" horiz-adv-x="963" 
d="M758 0l-1 510l-253 -425h-46l-253 422v-507h-96v700h82l292 -492l288 492h82l1 -700h-96z" />
    <glyph glyph-name="uni041D" unicode="&#x41d;" horiz-adv-x="820" 
d="M711 700v-700h-100v312h-402v-312h-100v700h100v-301h402v301h100z" />
    <glyph glyph-name="uni041E" unicode="&#x41e;" horiz-adv-x="848" 
d="M233 38.5c-56.667 31 -101.167 73.833 -133.5 128.5s-48.5 115.667 -48.5 183s16.167 128.333 48.5 183s76.833 97.5 133.5 128.5s120.334 46.5 191.001 46.5c70 0 133.333 -15.5 190 -46.5s101 -73.667 133 -128s48 -115.5 48 -183.5s-16 -129.167 -48 -183.5
s-76.333 -97 -133 -128s-120 -46.5 -190 -46.5c-70.667 0 -134.334 15.5 -191.001 46.5zM562.5 116c41 23.333 73.333 55.5 97 96.5s35.5 86.833 35.5 137.5s-11.833 96.5 -35.5 137.5s-56 73.167 -97 96.5s-87.167 35 -138.5 35s-97.833 -11.667 -139.5 -35
s-74.334 -55.5 -98.001 -96.5s-35.5 -86.833 -35.5 -137.5s11.833 -96.5 35.5 -137.5s56.334 -73.167 98.001 -96.5s88.167 -35 139.5 -35s97.5 11.667 138.5 35z" />
    <glyph glyph-name="uni041F" unicode="&#x41f;" horiz-adv-x="821" 
d="M712 700v-700h-98v613h-406v-613h-99v700h603z" />
    <glyph glyph-name="uni0420" unicode="&#x420;" horiz-adv-x="714" 
d="M596 635c52 -43.333 78 -103 78 -179s-26 -135.667 -78 -179s-123.333 -65 -214 -65h-173v-212h-100v700h273c90.667 0 162 -21.667 214 -65zM524 339.5c33.333 27 50 65.833 50 116.5s-16.667 89.5 -50 116.5s-81.666 40.5 -144.999 40.5h-170v-314h170
c63.333 0 111.666 13.5 144.999 40.5z" />
    <glyph glyph-name="uni0421" unicode="&#x421;" horiz-adv-x="718" 
d="M232.5 38.5c-56.333 31 -100.498 73.667 -132.498 128s-48 115.5 -48 183.5s16 129.167 48 183.5s76.333 97 133 128s120 46.5 190 46.5c54.667 0 104.667 -9.16699 150 -27.5s84 -45.5 116 -81.5l-65 -63c-52.667 55.333 -118.334 83 -197.001 83
c-52 0 -99 -11.667 -141 -35s-74.833 -55.5 -98.5 -96.5s-35.5 -86.833 -35.5 -137.5s11.833 -96.5 35.5 -137.5s56.5 -73.167 98.5 -96.5s89 -35 141 -35c78 0 143.667 28 197 84l65 -63c-32 -36 -70.833 -63.333 -116.5 -82s-95.834 -28 -150.501 -28
c-70 0 -133.167 15.5 -189.5 46.5z" />
    <glyph glyph-name="uni0422" unicode="&#x422;" horiz-adv-x="603" 
d="M590 613h-240v-613h-98v613h-239v87h577v-87z" />
    <glyph glyph-name="uni0423" unicode="&#x423;" horiz-adv-x="691" 
d="M682 700l-311.001 -577c-24.667 -46 -53.667 -80.333 -87 -103s-69.666 -34 -108.999 -34c-30.667 0 -62 7 -94 21l26 80c24.667 -8.66699 46.667 -13 66 -13c44 0 80.333 23.333 109 70l16 25l-282 531h107l227 -444l233 444h99z" />
    <glyph glyph-name="uni0424" unicode="&#x424;" horiz-adv-x="926" 
d="M784 133c-64.667 -52.667 -156 -81.002 -274 -85.002v-74h-93v74c-118 4.66699 -209.5 33.334 -274.5 86.001s-97.5 125 -97.5 217c0 92.667 32.5 165.334 97.5 218.001s156.5 81.334 274.5 86.001v71h93v-71c117.333 -4.66699 208.5 -33.5 273.5 -86.5
s97.5 -125.5 97.5 -217.5c0 -92.667 -32.333 -165.334 -97 -218.001zM714.5 191.498c47 38.333 70.5 91.8359 70.5 160.503c0 67.333 -23.833 120.166 -71.5 158.499s-115.5 60.166 -203.5 65.499v-450c89.333 5.33301 157.5 27.166 204.5 65.499zM213.5 191.501
c47.667 -38.333 115.5 -60.167 203.5 -65.5v450c-89.333 -5.33301 -157.5 -27 -204.5 -65s-70.5 -91.333 -70.5 -160c0 -68 23.833 -121.167 71.5 -159.5z" />
    <glyph glyph-name="uni0425" unicode="&#x425;" horiz-adv-x="668" 
d="M149 700l183 -256l183 256h117l-237 -336l256 -364h-118l-201 279l-200 -279h-115l255 360l-238 340h115z" />
    <glyph glyph-name="uni0426" unicode="&#x426;" horiz-adv-x="829" 
d="M805 87v-246h-93v159h-603v700h99v-613h390v613h99v-613h108z" />
    <glyph glyph-name="uni0427" unicode="&#x427;" horiz-adv-x="736" 
d="M627 700l-0.000976562 -700h-99v277c-74 -28.667 -142.333 -43 -205 -43c-85.333 0 -151.5 20.667 -198.5 62s-70.5 100.333 -70.5 177v227h98v-216c0 -52 15.833 -92 47.5 -120s76.5 -42 134.5 -42c64.667 0 129.334 14.667 194.001 44v334h99z" />
    <glyph glyph-name="uni0428" unicode="&#x428;" horiz-adv-x="1095" 
d="M986 700v-700h-877v700h99v-613h291v613h98v-613h291v613h98z" />
    <glyph glyph-name="uni0429" unicode="&#x429;" horiz-adv-x="1120" 
d="M986 700v-700h-877v700h99v-613h291v613h98v-613h291v613h98zM1091 87v-240h-92v153h-113v87h205z" />
    <glyph glyph-name="uni042A" unicode="&#x42a;" horiz-adv-x="828" 
d="M722 400c44 -37.333 66.001 -92.333 66.001 -165c0 -76.667 -23.833 -135 -71.5 -175s-115.834 -60 -204.501 -60h-288v613h-211v87h310v-244h208c83.333 0 147 -18.667 191 -56zM642.501 118.5c30.333 26.333 45.5 64.5 45.5 114.5c0 96 -59.333 144 -178 144h-187v-298
h187c58 0 102.167 13.167 132.5 39.5z" />
    <glyph glyph-name="uni042B" unicode="&#x42b;" horiz-adv-x="993" 
d="M607.5 400c44.333 -37.333 66.502 -92.333 66.502 -165c0 -76.667 -23.833 -135 -71.5 -175s-115.834 -60 -204.501 -60h-289v700h99v-244h208c83.333 0 147.166 -18.667 191.499 -56zM527.502 118.5c31 26.333 46.5 64.5 46.5 114.5c0 96 -60 144 -180 144h-186v-298
h186c58 0 102.5 13.167 133.5 39.5zM785.002 700h99v-700h-99v700z" />
    <glyph glyph-name="uni042C" unicode="&#x42c;" horiz-adv-x="713" 
d="M607.5 400c44.333 -37.333 66.502 -92.333 66.502 -165c0 -76.667 -23.833 -135 -71.5 -175s-115.834 -60 -204.501 -60h-289v700h99v-244h208c83.333 0 147.166 -18.667 191.499 -56zM527.502 118.5c31 26.333 46.5 64.5 46.5 114.5c0 96 -60 144 -180 144h-186v-298
h186c58 0 102.5 13.167 133.5 39.5z" />
    <glyph glyph-name="uni042D" unicode="&#x42d;" horiz-adv-x="707" 
d="M482 661.5c53.333 -31 95.3311 -73.665 125.998 -127.998s46 -115.5 46 -183.5s-15.333 -129.167 -46 -183.5s-72.667 -97 -126 -128s-113.333 -46.5 -180 -46.5c-57.333 0 -109.333 9.33301 -156 28s-85.667 46 -117 82l63 63c52.667 -55.333 121 -83 205 -83
c44.667 0 85.334 9.83301 122.001 29.5s66.667 47.167 90 82.5s37.333 75.666 42 120.999h-339v82h338c-6.66699 43.333 -21.667 81.666 -45 114.999s-53 59.333 -89 78s-75.667 28 -119 28c-83.333 0 -151.666 -27.667 -204.999 -83l-63 63c31.333 36 70.5 63.333 117.5 82
s98.833 28 155.5 28c66.667 0 126.667 -15.5 180 -46.5z" />
    <glyph glyph-name="uni042E" unicode="&#x42e;" horiz-adv-x="1099" 
d="M871 661.5c54 -31 96.501 -73.667 127.501 -128s46.5 -115.5 46.5 -183.5s-15.5 -129.167 -46.5 -183.5s-73.5 -97 -127.5 -128s-114.667 -46.5 -182 -46.5c-62.667 0 -119.667 13.667 -171 41s-93 65 -125 113s-51 102.667 -57 164h-128v-310h-99v700h99v-300h129
c7.33301 59.333 27.166 112.333 59.499 159s73.833 83.167 124.5 109.5s106.667 39.5 168 39.5c67.333 0 128 -15.5 182 -46.5zM819.501 116.5c39 23 69.667 54.833 92 95.5s33.5 86.667 33.5 138s-11.167 97.333 -33.5 138s-53 72.5 -92 95.5s-82.5 34.5 -130.5 34.5
c-47.333 0 -90.333 -11.5 -129 -34.5s-69.167 -54.833 -91.5 -95.5s-33.5 -86.667 -33.5 -138s11.167 -97.333 33.5 -138s52.833 -72.5 91.5 -95.5s81.667 -34.5 129 -34.5c48 0 91.5 11.5 130.5 34.5z" />
    <glyph glyph-name="uni042F" unicode="&#x42f;" horiz-adv-x="731" 
d="M622 700v-699.999h-98v204h-193c-12 0 -21 0.333008 -27 1l-140 -205h-106l155 222c-50 16.667 -88.333 44.5 -115 83.5s-40 86.5 -40 142.5c0 79.333 25.5 141.166 76.5 185.499s119.833 66.5 206.5 66.5h281zM204.5 329.501c30.333 -27.667 75.167 -41.5 134.5 -41.5
h185v325h-179c-60 0 -106 -14 -138 -42s-48 -68.667 -48 -122c0 -52 15.167 -91.833 45.5 -119.5z" />
    <glyph glyph-name="uni0430" unicode="&#x430;" horiz-adv-x="589" 
d="M450.5 481c39 -36 58.501 -89.6689 58.501 -161.002v-320h-91v70c-16 -24.667 -38.833 -43.5 -68.5 -56.5s-64.834 -19.5 -105.501 -19.5c-59.333 0 -106.833 14.333 -142.5 43s-53.5 66.334 -53.5 113.001s17 84.167 51 112.5s88 42.5 162 42.5h152v19
c0 41.333 -12 73 -36 95s-59.333 33 -106 33c-31.333 0 -62 -5.16699 -92 -15.5s-55.333 -24.166 -76 -41.499l-40 72c27.333 22 60 38.833 98 50.5s78.333 17.5 121 17.5c73.333 0 129.5 -18 168.5 -54zM355.001 92.498c26.667 16.333 45.998 39.5 57.998 69.5v74h-148
c-81.333 0 -122 -27.333 -122 -82c0 -26.667 10.333 -47.667 31 -63s49.334 -23 86.001 -23s68.334 8.16699 95.001 24.5z" />
    <glyph glyph-name="uni0431" unicode="&#x431;" horiz-adv-x="662" 
d="M495 479c38.667 -22 68.833 -52.5 90.5 -91.5s32.5 -83.5 32.5 -133.5c0 -51.333 -11.5 -96.833 -34.5 -136.5s-55.333 -70.5 -97 -92.5s-89.167 -33 -142.5 -33c-90 0 -159.5 30.833 -208.5 92.5s-73.5 148.5 -73.5 260.5c0 108.667 22.333 193.834 67 255.501
s113 102.5 205 122.5l242 54l14 -88l-223 -48c-69.333 -15.333 -121 -41.333 -155 -78s-53.333 -89.334 -58 -158.001c22.667 34 52 60.333 88 79s76.333 28 121 28c49.333 0 93.333 -11 132 -33zM436.499 95c26.333 15.333 46.833 36.5 61.5 63.5s22 57.833 22 92.5
c0 52.667 -16 95 -48 127s-74 48 -126 48s-94.167 -16 -126.5 -48s-48.5 -74.333 -48.5 -127c0 -34.667 7.5 -65.5 22.5 -92.5s35.833 -48.167 62.5 -63.5s56.667 -23 90 -23c34 0 64.167 7.66699 90.5 23z" />
    <glyph glyph-name="uni0432" unicode="&#x432;" horiz-adv-x="614" 
d="M557 146c0 -46.667 -17.5 -82.667 -52.5 -108s-87.167 -38 -156.5 -38h-255v530h246c62.667 0 111.667 -11.833 147 -35.5s53 -57.167 53 -100.5c0 -28 -7.5 -52.167 -22.5 -72.5s-35.833 -35.833 -62.5 -46.5c68.667 -17.333 103 -60.333 103 -129zM187 302
l144 0.000976562c36.667 0 64.5 6.66699 83.5 20s28.5 32.666 28.5 57.999c0 50.667 -37.333 76 -112 76h-144v-154zM431 93.001c20 12.667 29.999 32.334 29.999 59.001c0 27.333 -9.16699 47.666 -27.5 60.999s-47.166 20 -86.499 20h-160v-159h154c40 0 70 6.33301 90 19
z" />
    <glyph glyph-name="uni0433" unicode="&#x433;" horiz-adv-x="488" 
d="M483 446h-294v-446h-96v530h390v-84z" />
    <glyph glyph-name="uni0434" unicode="&#x434;" horiz-adv-x="664" 
d="M632 84l-0.000976562 -207h-90v123h-443v-123h-91v207h28c34 2 57.333 26 70 72s21.334 111 26.001 195l8 179h411v-446h81zM203.499 178.5c-8.33301 -43.667 -23.5 -75.166 -45.5 -94.499h297v362h-230l-5 -102c-2.66699 -66.667 -8.16699 -121.834 -16.5 -165.501z" />
    <glyph glyph-name="uni0435" unicode="&#x435;" horiz-adv-x="628" 
d="M570 233h-430.001c6 -46.667 26.5 -84.167 61.5 -112.5s78.5 -42.5 130.5 -42.5c63.333 0 114.333 21.333 153 64l53 -62c-24 -28 -53.833 -49.333 -89.5 -64s-75.5 -22 -119.5 -22c-56 0 -105.667 11.5 -149 34.5s-76.833 55.167 -100.5 96.5s-35.5 88 -35.5 140
c0 51.333 11.5 97.666 34.5 138.999s54.667 73.5 95 96.5s85.833 34.5 136.5 34.5s95.834 -11.5 135.501 -34.5s70.667 -55.167 93 -96.5s33.5 -88.666 33.5 -141.999c0 -7.33301 -0.666992 -17 -2 -29zM194.499 412c-31 -28 -49.167 -64.667 -54.5 -110h340
c-5.33301 44.667 -23.5 81.167 -54.5 109.5s-69.5 42.5 -115.5 42.5s-84.5 -14 -115.5 -42z" />
    <glyph glyph-name="uni0436" unicode="&#x436;" horiz-adv-x="849" 
d="M575 224h-103v-224h-96v224h-103l-146 -224h-114l182 274l-168 256h102l143 -224h104v224h96v-224h104l143 224h103l-168 -257l182 -273h-114z" />
    <glyph glyph-name="uni0437" unicode="&#x437;" horiz-adv-x="544" 
d="M462 231c19.333 -20.667 29 -46.333 29 -77c0 -31.333 -10.667 -59.166 -32 -83.499s-50.833 -43.333 -88.5 -57s-79.834 -20.5 -126.501 -20.5c-39.333 0 -77.833 5.16699 -115.5 15.5s-71.167 25.166 -100.5 44.499l29 73c25.333 -16 54.333 -28.5 87 -37.5
s65.667 -13.5 99 -13.5c45.333 0 81.5 7.83301 108.5 23.5s40.5 36.834 40.5 63.501c0 24.667 -10.833 43.667 -32.5 57s-52.167 20 -91.5 20h-97v69h90c36 0 64.333 6.33301 85 19s31 30 31 52c0 24 -12.167 42.667 -36.5 56s-57.166 20 -98.499 20
c-52.667 0 -108.334 -13.667 -167.001 -41l-26 74c64.667 32.667 132.334 49 203.001 49c42.667 0 81 -6 115 -18s60.667 -29 80 -51s29 -47 29 -75c0 -26 -8.66699 -49.333 -26 -70s-40.666 -36.334 -69.999 -47.001c35.333 -9.33301 62.666 -24.333 81.999 -45z" />
    <glyph glyph-name="uni0438" unicode="&#x438;" horiz-adv-x="694" 
d="M93 530h96v-386l325 386h87v-530h-96v386l-324 -386h-88v530z" />
    <glyph glyph-name="uni0439" unicode="&#x439;" horiz-adv-x="694" 
d="M93 530h96v-386l325 386h87v-530h-96v386l-324 -386h-88v530zM226 634.5c-27.333 23.667 -41.334 57.834 -42.001 102.501h65c0.666992 -24.667 9.16699 -44.5 25.5 -59.5s38.166 -22.5 65.499 -22.5s49.333 7.5 66 22.5s25.334 34.833 26.001 59.5h67
c-0.666992 -44.667 -15 -78.834 -43 -102.501s-66.333 -35.5 -115 -35.5c-49.333 0 -87.666 11.833 -114.999 35.5z" />
    <glyph glyph-name="uni043A" unicode="&#x43a;" horiz-adv-x="598" 
d="M299 224h-110v-224h-96v530h96v-224h112l172 224h103l-201 -255l215 -275h-113z" />
    <glyph glyph-name="uni043B" unicode="&#x43b;" horiz-adv-x="641" 
d="M548 530l-0.00195312 -529.999h-96v446h-228l-6 -118c-3.33301 -71.333 -9.66602 -130.833 -18.999 -178.5s-24.666 -85.834 -45.999 -114.501s-51 -43 -89 -43c-17.333 0 -37 3 -59 9l6 81c8.66699 -2 16.667 -3 24 -3c26.667 0 46.667 11.667 60 35s22 51 26 83
s7.66699 77.667 11 137l9 196h407z" />
    <glyph glyph-name="uni043C" unicode="&#x43c;" horiz-adv-x="798" 
d="M704 530v-530h-87v387l-198 -327h-42l-196 328v-388h-88v530h99l208 -358l214 358h90z" />
    <glyph glyph-name="uni043D" unicode="&#x43d;" horiz-adv-x="681" 
d="M93 530h96v-225h302v225h96v-530h-96v222h-302v-222h-96v530z" />
    <glyph glyph-name="uni043E" unicode="&#x43e;" horiz-adv-x="641" 
d="M178 29c-42 23.333 -74.833 55.5 -98.5 96.5s-35.5 87.5 -35.5 139.5s11.833 98.5 35.5 139.5s56.5 73 98.5 96s89.333 34.5 142 34.5s99.834 -11.5 141.501 -34.5s74.334 -55 98.001 -96s35.5 -87.5 35.5 -139.5s-11.833 -98.5 -35.5 -139.5
s-56.334 -73.167 -98.001 -96.5s-88.834 -35 -141.501 -35s-100 11.667 -142 35zM411.5 101.5c27 15.667 48.167 37.667 63.5 66s23 60.833 23 97.5s-7.66699 69.167 -23 97.5s-36.5 50.166 -63.5 65.499s-57.5 23 -91.5 23s-64.5 -7.66699 -91.5 -23
s-48.333 -37.166 -64 -65.499s-23.5 -60.833 -23.5 -97.5s7.83301 -69.167 23.5 -97.5s37 -50.333 64 -66s57.5 -23.5 91.5 -23.5s64.5 7.83301 91.5 23.5z" />
    <glyph glyph-name="uni043F" unicode="&#x43f;" horiz-adv-x="677" 
d="M584 530v-530h-96v446h-299v-446h-96v530h491z" />
    <glyph glyph-name="uni0440" unicode="&#x440;" horiz-adv-x="688" 
d="M512 501c40.667 -22.667 72.5 -54.333 95.5 -95s34.5 -87.667 34.5 -141s-11.5 -100.5 -34.5 -141.5s-54.833 -72.833 -95.5 -95.5s-86.667 -34 -138 -34c-38 0 -72.833 7.33301 -104.5 22s-58.5 36 -80.5 64v-274h-96v724h92v-84c21.333 29.333 48.333 51.5 81 66.5
s68.667 22.5 108 22.5c51.333 0 97.333 -11.333 138 -34zM457.5 101.501c27 15.667 48.335 37.668 64.002 66.001s23.5 60.833 23.5 97.5s-7.83301 69.167 -23.5 97.5s-37 50.166 -64 65.499s-57.5 23 -91.5 23c-33.333 0 -63.5 -7.83301 -90.5 -23.5
s-48.333 -37.5 -64 -65.5s-23.5 -60.333 -23.5 -97s7.66699 -69.167 23 -97.5s36.666 -50.333 63.999 -66s57.666 -23.5 90.999 -23.5c34 0 64.5 7.83301 91.5 23.5z" />
    <glyph glyph-name="uni0441" unicode="&#x441;" horiz-adv-x="571" 
d="M179.5 29c-42.333 23.333 -75.5 55.498 -99.5 96.498s-36 87.5 -36 139.5s12 98.5 36 139.5s57.167 73 99.5 96s90.5 34.5 144.5 34.5c48 0 90.833 -9.66699 128.5 -29s66.834 -47.333 87.501 -84l-73 -47c-16.667 25.333 -37.334 44.333 -62.001 57s-52 19 -82 19
c-34.667 0 -65.834 -7.66699 -93.501 -23s-49.334 -37.166 -65.001 -65.499s-23.5 -60.833 -23.5 -97.5c0 -37.333 7.83301 -70.166 23.5 -98.499s37.334 -50.166 65.001 -65.499s58.834 -23 93.501 -23c30 0 57.333 6.33301 82 19s45.334 31.667 62.001 57l73 -46
c-20.667 -36.667 -49.834 -64.834 -87.501 -84.501s-80.5 -29.5 -128.5 -29.5c-54 0 -102.167 11.667 -144.5 35z" />
    <glyph glyph-name="uni0442" unicode="&#x442;" horiz-adv-x="493" 
d="M488 446h-194v-446h-96v446h-194v84h484v-84z" />
    <glyph glyph-name="uni0443" unicode="&#x443;" horiz-adv-x="571" 
d="M566 530l-257.001 -583c-22.667 -54 -49.167 -92 -79.5 -114s-66.833 -33 -109.5 -33c-26 0 -51.167 4.16699 -75.5 12.5s-44.5 20.5 -60.5 36.5l41 72c27.333 -26 59 -39 95 -39c23.333 0 42.833 6.16699 58.5 18.5s29.834 33.5 42.501 63.5l17 37l-234 529h100
l185 -424l183 424h94z" />
    <glyph glyph-name="uni0444" unicode="&#x444;" horiz-adv-x="805" 
d="M680 72c-54.667 -47.333 -131.668 -73.6689 -231.001 -79.002v-187h-94v187c-99.333 5.33301 -176.166 31.5 -230.499 78.5s-81.5 111.833 -81.5 194.5c0 82 27 146 81 192s131 71.667 231 77v207h94v-207c99.333 -5.33301 176.333 -31.166 231 -77.499
s82 -110.166 82 -191.499c0 -82 -27.333 -146.667 -82 -194zM192.499 132.997c36.333 -32 90.5 -50.334 162.5 -55.001v372c-72.667 -4.66699 -127 -22.667 -163 -54s-54 -74.666 -54 -129.999c0 -56.667 18.167 -101 54.5 -133zM666.999 265.996
c0 56 -18.333 99.5 -55 130.5s-91 48.833 -163 53.5v-373c145.333 11.333 218 74.333 218 189z" />
    <glyph glyph-name="uni0445" unicode="&#x445;" horiz-adv-x="541" 
d="M424 0l-153 203l-155 -203h-107l209 271l-199 259h107l146 -191l145 191h105l-200 -259l211 -271h-109z" />
    <glyph glyph-name="uni0446" unicode="&#x446;" horiz-adv-x="690" 
d="M659 84v-211h-91v127h-475v530h96v-446h290v446h96v-446h84z" />
    <glyph glyph-name="uni0447" unicode="&#x447;" horiz-adv-x="609" 
d="M516 530v-529.999h-96v214c-57.333 -26.667 -114.333 -40 -171 -40c-66 0 -117 15.333 -153 46s-54 76.667 -54 138v172h96v-166c0 -36.667 11.5 -64.334 34.5 -83.001s55.167 -28 96.5 -28c46.667 0 97 11.667 151 35v242h96z" />
    <glyph glyph-name="uni0448" unicode="&#x448;" horiz-adv-x="941" 
d="M848 530v-530h-755v530h96v-446h234v446h96v-446h233v446h96z" />
    <glyph glyph-name="uni0449" unicode="&#x449;" horiz-adv-x="941" 
d="M848 530v-530h-755v530h96v-446h234v446h96v-446h233v446h96zM927 84v-197h-90v113h-89v84h179z" />
    <glyph glyph-name="uni044A" unicode="&#x44a;" horiz-adv-x="639" 
d="M556.5 305.5c35 -30.333 52.5 -72.833 52.5 -127.5c0 -56.667 -19.167 -100.5 -57.5 -131.5s-92.5 -46.5 -162.5 -46.5h-223v446h-162v84h258v-179h144c65.333 0 115.5 -15.167 150.5 -45.5zM480 100c21.333 18 32.001 44.667 32.001 80c0 34 -10.5 59.167 -31.5 75.5
s-52.5 24.5 -94.5 24.5h-124v-207h124c41.333 0 72.666 9 93.999 27z" />
    <glyph glyph-name="uni044B" unicode="&#x44b;" horiz-adv-x="807" 
d="M485 304c35.333 -30 52.999 -72.333 52.999 -127c0 -57.333 -19.167 -101.5 -57.5 -132.5s-93.166 -46.167 -164.499 -45.5l-223 1v530h96v-179l143 -1c66.667 -0.666992 117.667 -16 153 -46zM616.999 530h96v-530h-96v530zM407.499 98
c22.333 18 33.501 44.667 33.501 80c0 34.667 -11 60 -33 76s-55 24.333 -99 25l-120 2v-208l120 -1c43.333 -0.666992 76.166 8 98.499 26z" />
    <glyph glyph-name="uni044C" unicode="&#x44c;" horiz-adv-x="575" 
d="M492 304c35.333 -30 53 -72.333 53 -127c0 -57.333 -19.167 -101.5 -57.5 -132.5s-93.166 -46.167 -164.499 -45.5l-230 1v530h96v-179l149 -1c67.333 -0.666992 118.666 -16 153.999 -46zM413.5 98c22.333 18 33.502 44.667 33.502 80c0 34.667 -10.833 60 -32.5 76
s-54.834 24.333 -99.501 25l-126 2v-208l126 -1c43.333 -0.666992 76.166 8 98.499 26z" />
    <glyph glyph-name="uni044D" unicode="&#x44d;" horiz-adv-x="575" 
d="M392.5 501c43.667 -23.333 77.835 -55.6699 102.502 -97.0029s37 -87.666 37 -138.999c0 -52 -12.333 -98.667 -37 -140s-58.834 -73.666 -102.501 -96.999s-92.5 -35 -146.5 -35c-46.667 0 -88.834 7.33301 -126.501 22s-69.5 36 -95.5 64l56 56
c42.667 -42 96.667 -63 162 -63c52 0 96.333 14.833 133 44.5s58.667 68.5 66 116.5h-266v71h264c-8.66699 46 -31 83.167 -67 111.5s-79.333 42.5 -130 42.5c-64.667 0 -118.667 -21.333 -162 -64l-56 55c26 28.667 58 50.334 96 65.001s80 22 126 22
c54 0 102.833 -11.667 146.5 -35z" />
    <glyph glyph-name="uni044E" unicode="&#x44e;" horiz-adv-x="876" 
d="M700 500.5c40.667 -23 72.667 -55 96 -96s35 -87.5 35 -139.5s-11.667 -98.5 -35 -139.5s-55.333 -73.167 -96 -96.5s-86.667 -35 -138 -35c-46.667 0 -89 9.66699 -127 29s-69.167 46.5 -93.5 81.5s-39.5 74.833 -45.5 119.5h-107v-224h-96v530h96v-217h108
c6.66699 44 22.167 82.833 46.5 116.5s55.333 59.667 93 78s79.5 27.5 125.5 27.5c51.333 0 97.333 -11.5 138 -34.5zM650.5 101c26.333 15.333 47.166 37.166 62.499 65.499s23 61.166 23 98.499c0 36.667 -7.66699 69.167 -23 97.5s-36.166 50.166 -62.499 65.499
s-55.833 23 -88.5 23s-62.334 -7.66699 -89.001 -23s-47.5 -37.166 -62.5 -65.499s-22.5 -60.833 -22.5 -97.5c0 -37.333 7.5 -70.166 22.5 -98.499s35.833 -50.166 62.5 -65.499s56.334 -23 89.001 -23s62.167 7.66699 88.5 23z" />
    <glyph glyph-name="uni044F" unicode="&#x44f;" horiz-adv-x="612" 
d="M518 530v-530.001h-86v168h-154h-11l-116 -168h-103l129 181c-40 12 -70.667 31.833 -92 59.5s-32 62.167 -32 103.5c0 60.667 20.667 106.834 62 138.501s98.333 47.5 171 47.5h232zM184.5 262.499c22.333 -17 55.833 -25.5 100.5 -25.5h147v209h-143
c-92 0 -138 -35 -138 -105c0 -35.333 11.167 -61.5 33.5 -78.5z" />
    <glyph glyph-name="uni0450" unicode="&#x450;" horiz-adv-x="628" 
d="M570 233h-430.001c6 -46.667 26.5 -84.167 61.5 -112.5s78.5 -42.5 130.5 -42.5c63.333 0 114.333 21.333 153 64l53 -62c-24 -28 -53.833 -49.333 -89.5 -64s-75.5 -22 -119.5 -22c-56 0 -105.667 11.5 -149 34.5s-76.833 55.167 -100.5 96.5s-35.5 88 -35.5 140
c0 51.333 11.5 97.666 34.5 138.999s54.667 73.5 95 96.5s85.833 34.5 136.5 34.5s95.834 -11.5 135.501 -34.5s70.667 -55.167 93 -96.5s33.5 -88.666 33.5 -141.999c0 -7.33301 -0.666992 -17 -2 -29zM194.499 412c-31 -28 -49.167 -64.667 -54.5 -110h340
c-5.33301 44.667 -23.5 81.167 -54.5 109.5s-69.5 42.5 -115.5 42.5s-84.5 -14 -115.5 -42zM125.999 737h122l136 -130h-90z" />
    <glyph glyph-name="uni0451" unicode="&#x451;" horiz-adv-x="628" 
d="M570 233h-430.001c6 -46.667 26.5 -84.167 61.5 -112.5s78.5 -42.5 130.5 -42.5c63.333 0 114.333 21.333 153 64l53 -62c-24 -28 -53.833 -49.333 -89.5 -64s-75.5 -22 -119.5 -22c-56 0 -105.667 11.5 -149 34.5s-76.833 55.167 -100.5 96.5s-35.5 88 -35.5 140
c0 51.333 11.5 97.666 34.5 138.999s54.667 73.5 95 96.5s85.833 34.5 136.5 34.5s95.834 -11.5 135.501 -34.5s70.667 -55.167 93 -96.5s33.5 -88.666 33.5 -141.999c0 -7.33301 -0.666992 -17 -2 -29zM194.499 412c-31 -28 -49.167 -64.667 -54.5 -110h340
c-5.33301 44.667 -23.5 81.167 -54.5 109.5s-69.5 42.5 -115.5 42.5s-84.5 -14 -115.5 -42zM179.999 638.5c-10 9.66699 -15 21.834 -15 36.501s5 27 15 37s22 15 36 15s26 -5 36 -15s15 -22.333 15 -37s-5 -26.834 -15 -36.501s-22 -14.5 -36 -14.5s-26 4.83301 -36 14.5z
M365.999 638.5c-10 9.66699 -15 21.834 -15 36.501s5 27 15 37s22 15 36 15s26 -5 36 -15s15 -22.333 15 -37s-5 -26.834 -15 -36.501s-22 -14.5 -36 -14.5s-26 4.83301 -36 14.5z" />
    <glyph glyph-name="uni0452" unicode="&#x452;" horiz-adv-x="675" 
d="M537 476.5c40 -39 59.999 -96.167 59.999 -171.5v-329c0 -54.667 -14.833 -97.667 -44.5 -129s-71.5 -47 -125.5 -47c-22.667 0 -44.167 2.66699 -64.5 8s-37.166 13.333 -50.499 24l31 74c20.667 -16.667 46.667 -25 78 -25c26 0 45.833 8 59.5 24s20.5 39 20.5 69v320
c0 51.333 -12.5 90 -37.5 116s-60.5 39 -106.5 39c-52 0 -92.833 -15.167 -122.5 -45.5s-44.5 -73.833 -44.5 -130.5v-273h-96v601h-104v68h104v73h91v-73h240v-68h-240v-151c19.333 27.333 45.5 48.333 78.5 63s70.5 22 112.5 22c67.333 0 121 -19.5 161 -58.5z" />
    <glyph glyph-name="uni0453" unicode="&#x453;" horiz-adv-x="488" 
d="M483 446h-294v-446h-96v530h390v-84zM352 735h122l-168 -130h-90z" />
    <glyph glyph-name="uni0454" unicode="&#x454;" horiz-adv-x="577" 
d="M183.5 29c-43.667 23.333 -77.835 55.6699 -102.502 97.0029s-37 87.666 -37 138.999c0 52 12.333 98.667 37 140s58.834 73.666 102.501 96.999s92.5 35 146.5 35c46.667 0 88.834 -7.33301 126.501 -22s69.5 -36 95.5 -64l-56 -56c-42.667 42 -96.667 63 -162 63
c-52 0 -96.333 -14.833 -133 -44.5s-58.667 -68.5 -66 -116.5h266v-71h-264c8.66699 -46 31 -83.167 67 -111.5s79.333 -42.5 130 -42.5c64.667 0 118.667 21.333 162 64l56 -55c-26 -28.667 -58 -50.334 -96 -65.001s-80 -22 -126 -22c-54 0 -102.833 11.667 -146.5 35z
" />
    <glyph glyph-name="uni0455" unicode="&#x455;" horiz-adv-x="536" 
d="M137 11.5c-40 11.667 -71.3311 26.5 -93.998 44.5l40 76c23.333 -16.667 51.666 -30 84.999 -40s67 -15 101 -15c84 0 126 24 126 72c0 16 -5.66699 28.667 -17 38s-25.5 16.166 -42.5 20.499s-41.167 9.16602 -72.5 14.499c-42.667 6.66699 -77.5 14.334 -104.5 23.001
s-50.167 23.334 -69.5 44.001s-29 49.667 -29 87c0 48 20 86.5 60 115.5s93.667 43.5 161 43.5c35.333 0 70.666 -4.33301 105.999 -13s64.333 -20.334 87 -35.001l-41 -76c-43.333 28 -94.333 42 -153 42c-40.667 0 -71.667 -6.66699 -93 -20s-32 -31 -32 -53
c0 -17.333 6 -31 18 -41s26.833 -17.333 44.5 -22s42.5 -10 74.5 -16c42.667 -7.33301 77.167 -15.166 103.5 -23.499s48.833 -22.5 67.5 -42.5s28 -48 28 -84c0 -48 -20.5 -86.167 -61.5 -114.5s-96.833 -42.5 -167.5 -42.5c-43.333 0 -85 5.83301 -125 17.5z" />
    <glyph glyph-name="uni0456" unicode="&#x456;" horiz-adv-x="283" 
d="M93 530h96v-530h-96v530zM94.5 650c-12.333 12 -18.5 26.668 -18.5 44.001s6.16699 32.166 18.5 44.499s27.833 18.5 46.5 18.5s34.167 -5.83301 46.5 -17.5s18.5 -26.167 18.5 -43.5c0 -18 -6.16699 -33.167 -18.5 -45.5s-27.833 -18.5 -46.5 -18.5s-34.167 6 -46.5 18z
" />
    <glyph glyph-name="uni0457" unicode="&#x457;" horiz-adv-x="279" 
d="M91 530h96v-530h-96v530zM32 639.5c-9.33301 9.66699 -14 21.5 -14 35.5c0 14.667 4.66699 26.834 14 36.501s21.333 14.5 36 14.5c14 0 25.667 -4.83301 35 -14.5s14 -21.834 14 -36.501s-4.66699 -26.667 -14 -36s-21 -14 -35 -14c-14.667 0 -26.667 4.83301 -36 14.5z
M175 639.5c-9.33301 9.66699 -14 21.5 -14 35.5c0 14.667 4.66699 26.834 14 36.501s21 14.5 35 14.5c14.667 0 26.667 -4.83301 36 -14.5s14 -21.834 14 -36.501s-4.66699 -26.667 -14 -36s-21.333 -14 -36 -14c-14 0 -25.667 4.83301 -35 14.5z" />
    <glyph glyph-name="uni0458" unicode="&#x458;" horiz-adv-x="284" 
d="M-44 -192c-20 5.33301 -36.667 13.332 -50 23.999l31 74c20 -16.667 46 -25 78 -25c25.333 0 44.833 7.83301 58.5 23.5s20.5 38.834 20.5 69.501v556h96v-554c0 -54.667 -14.667 -97.667 -44 -129s-71 -47 -125 -47c-23.333 0 -45 2.66699 -65 8zM95.5 649.999
c-12.333 12 -18.5 26.668 -18.5 44.001s6.16699 32.166 18.5 44.499s27.833 18.5 46.5 18.5s34.167 -5.83301 46.5 -17.5s18.5 -26.167 18.5 -43.5c0 -18 -6.16699 -33.167 -18.5 -45.5s-27.833 -18.5 -46.5 -18.5s-34.167 6 -46.5 18z" />
    <glyph glyph-name="uni0459" unicode="&#x459;" horiz-adv-x="934" 
d="M548 530l-0.00195312 -529.999h-96v446h-228l-6 -118c-3.33301 -71.333 -9.66602 -130.833 -18.999 -178.5s-24.666 -85.834 -45.999 -114.501s-51 -43 -89 -43c-17.333 0 -37 3 -59 9l6 81c8.66699 -2 16.667 -3 24 -3c26.667 0 46.667 11.667 60 35s22 51 26 83
s7.66699 77.667 11 137l9 196h407zM850.998 304.001c35.333 -30 53 -72.333 53 -127c0 -57.333 -19.167 -101.5 -57.5 -132.5s-93.166 -46.167 -164.499 -45.5l-230 1v530h96v-179l149 -1c67.333 -0.666992 118.666 -16 153.999 -46zM772.498 98.001
c22.333 18 33.502 44.667 33.502 80c0 34.667 -10.833 60 -32.5 76s-54.834 24.333 -99.501 25l-126 2v-208l126 -1c43.333 -0.666992 76.166 8 98.499 26z" />
    <glyph glyph-name="uni045A" unicode="&#x45a;" horiz-adv-x="952" 
d="M875 283.5c34 -27 51.001 -65.499 51.001 -115.499c0 -52.667 -18.833 -93.834 -56.5 -123.501s-89.834 -44.5 -156.501 -44.5h-232v241h-292v-241h-96v530h96v-206h292v206h96v-206h152c63.333 0 112 -13.5 146 -40.5zM797.001 95.001c20.667 16 31 38.334 31 67.001
c0 27.333 -10.167 48.166 -30.5 62.499s-49.833 21.5 -88.5 21.5h-132v-175h132c38 0 67.333 8 88 24z" />
    <glyph glyph-name="uni045B" unicode="&#x45b;" horiz-adv-x="674" 
d="M537 476.5c40 -39 60 -96.166 60 -171.499v-305h-96v294c0 51.333 -12.5 90 -37.5 116s-60.5 39 -106.5 39c-52 0 -92.833 -15.167 -122.5 -45.5s-44.5 -73.833 -44.5 -130.5v-273h-96v605h-130v57h130v80h96v-80h238v-57h-238v-148c20 25.333 46 44.666 78 57.999
s68 20 108 20c67.333 0 121 -19.5 161 -58.5z" />
    <glyph glyph-name="uni045C" unicode="&#x45c;" horiz-adv-x="598" 
d="M299 224h-110v-224h-96v530h96v-224h112l172 224h103l-201 -255l215 -275h-113zM369 737h122l-168 -130h-90z" />
    <glyph glyph-name="uni045D" unicode="&#x45d;" horiz-adv-x="694" 
d="M93 530h96v-386l325 386h87v-530h-96v386l-324 -386h-88v530zM158 737h122l136 -130h-90z" />
    <glyph glyph-name="uni045E" unicode="&#x45e;" horiz-adv-x="571" 
d="M566 530l-257.001 -583c-22.667 -54 -49.167 -92 -79.5 -114s-66.833 -33 -109.5 -33c-26 0 -51.167 4.16699 -75.5 12.5s-44.5 20.5 -60.5 36.5l41 72c27.333 -26 59 -39 95 -39c23.333 0 42.833 6.16699 58.5 18.5s29.834 33.5 42.501 63.5l17 37l-234 529h100
l185 -424l183 424h94zM156.999 634.5c-27.333 23.667 -41.334 57.834 -42.001 102.501h65c0.666992 -24.667 9.16699 -44.5 25.5 -59.5s38.166 -22.5 65.499 -22.5s49.333 7.5 66 22.5s25.334 34.833 26.001 59.5h67c-0.666992 -44.667 -15 -78.834 -43 -102.501
s-66.333 -35.5 -115 -35.5c-49.333 0 -87.666 11.833 -114.999 35.5z" />
    <glyph glyph-name="uni045F" unicode="&#x45f;" horiz-adv-x="646" 
d="M552 0h-183v-127h-91v127h-185v530h96v-446h267v446h96v-530z" />
    <glyph glyph-name="uni0490" unicode="&#x490;" horiz-adv-x="581" 
d="M109 700h367v144h92v-231h-360v-613h-99v700z" />
    <glyph glyph-name="uni0491" unicode="&#x491;" horiz-adv-x="466" 
d="M93 530h277v108h90v-192h-271v-446h-96v530z" />
    <glyph glyph-name="uni04B0" unicode="&#x4b0;" horiz-adv-x="647" 
d="M373 242v-242h-99v244l-278 456h107l224 -369l225 369h99zM86.3516 287.283h470.468v-75.9639h-470.468v75.9639z" />
    <glyph glyph-name="uni04B1" unicode="&#x4b1;" horiz-adv-x="574" 
d="M335 -2v-192h-97v192l-232 532h101l182 -424l186 424h93zM70.7168 39h430.418v-68h-430.418v68z" />
    <glyph glyph-name="uni2009" unicode="&#x2009;" horiz-adv-x="134" 
 />
    <glyph glyph-name="uni200B" unicode="&#x200b;" 
 />
    <glyph glyph-name="endash" unicode="&#x2013;" horiz-adv-x="500" 
d="M0 308h500v-67h-500v67z" />
    <glyph glyph-name="emdash" unicode="&#x2014;" horiz-adv-x="1000" 
d="M0 308h1000v-67h-1000v67z" />
    <glyph glyph-name="quoteleft" unicode="&#x2018;" horiz-adv-x="227" 
d="M168 570c7.33301 -10.667 11.0029 -23.667 11.0029 -39c0 -20 -6.33301 -36.333 -19 -49s-28.334 -19 -47.001 -19c-19.333 0 -35.333 6.5 -48 19.5s-19 29.167 -19 48.5c0 9.33301 1.16699 18.833 3.5 28.5s7.16602 23.834 14.499 42.501l47 140h63l-37 -149
c13.333 -4.66699 23.666 -12.334 30.999 -23.001z" />
    <glyph glyph-name="quoteright" unicode="&#x2019;" horiz-adv-x="227" 
d="M161.5 728.5c12.333 -13 18.501 -29.167 18.501 -48.5c0 -10 -1 -19.833 -3 -29.5s-6.33301 -23.5 -13 -41.5l-48 -140h-63l37 149c-12.667 4.66699 -22.834 12.5 -30.501 23.5s-11.5 23.833 -11.5 38.5c0 20 6.33301 36.333 19 49s28.667 19 48 19
c18.667 0 34.167 -6.5 46.5 -19.5z" />
    <glyph glyph-name="quotesinglbase" unicode="&#x201a;" horiz-adv-x="227" 
d="M161.5 111.5c12.333 -13 18.501 -29.168 18.501 -48.501c0 -10 -1.16699 -19.667 -3.5 -29s-6.83301 -23.666 -13.5 -42.999l-47 -139h-63l37 149c-12.667 4.66699 -22.834 12.5 -30.501 23.5s-11.5 23.833 -11.5 38.5c0 20 6.33301 36.333 19 49s28.667 19 48 19
c18.667 0 34.167 -6.5 46.5 -19.5z" />
    <glyph glyph-name="quotedblleft" unicode="&#x201c;" horiz-adv-x="416" 
d="M168 570c7.33301 -10.667 11.0029 -23.667 11.0029 -39c0 -20 -6.33301 -36.333 -19 -49s-28.334 -19 -47.001 -19c-19.333 0 -35.333 6.5 -48 19.5s-19 29.167 -19 48.5c0 9.33301 1.16699 18.833 3.5 28.5s7.16602 23.834 14.499 42.501l47 140h63l-37 -149
c13.333 -4.66699 23.666 -12.334 30.999 -23.001zM357.003 570c7.33301 -10.667 11.0029 -23.667 11.0029 -39c0 -20 -6.33301 -36.333 -19 -49s-28.334 -19 -47.001 -19c-19.333 0 -35.333 6.5 -48 19.5s-19 29.167 -19 48.5c0 9.33301 1.16699 18.833 3.5 28.5
s7.16602 23.834 14.499 42.501l47 140h63l-37 -149c13.333 -4.66699 23.666 -12.334 30.999 -23.001z" />
    <glyph glyph-name="quotedblright" unicode="&#x201d;" horiz-adv-x="416" 
d="M161.5 728.5c12.333 -13 18.501 -29.167 18.501 -48.5c0 -10 -1 -19.833 -3 -29.5s-6.33301 -23.5 -13 -41.5l-48 -140h-63l37 149c-12.667 4.66699 -22.834 12.5 -30.501 23.5s-11.5 23.833 -11.5 38.5c0 20 6.33301 36.333 19 49s28.667 19 48 19
c18.667 0 34.167 -6.5 46.5 -19.5zM350.501 728.5c12.333 -13 18.501 -29.167 18.501 -48.5c0 -10 -1 -19.833 -3 -29.5s-6.33301 -23.5 -13 -41.5l-48 -140h-63l37 149c-12.667 4.66699 -22.834 12.5 -30.501 23.5s-11.5 23.833 -11.5 38.5c0 20 6.33301 36.333 19 49
s28.667 19 48 19c18.667 0 34.167 -6.5 46.5 -19.5z" />
    <glyph glyph-name="quotedblbase" unicode="&#x201e;" horiz-adv-x="416" 
d="M161.5 111.5c12.333 -13 18.501 -29.168 18.501 -48.501c0 -10 -1.16699 -19.667 -3.5 -29s-6.83301 -23.666 -13.5 -42.999l-47 -139h-63l37 149c-12.667 4.66699 -22.834 12.5 -30.501 23.5s-11.5 23.833 -11.5 38.5c0 20 6.33301 36.333 19 49s28.667 19 48 19
c18.667 0 34.167 -6.5 46.5 -19.5zM350.501 111.499c12.333 -13 18.501 -29.168 18.501 -48.501c0 -10 -1.16699 -19.667 -3.5 -29s-6.83301 -23.666 -13.5 -42.999l-47 -139h-63l37 149c-12.667 4.66699 -22.834 12.5 -30.501 23.5s-11.5 23.833 -11.5 38.5
c0 20 6.33301 36.333 19 49s28.667 19 48 19c18.667 0 34.167 -6.5 46.5 -19.5z" />
    <glyph glyph-name="bullet" unicode="&#x2022;" horiz-adv-x="314" 
d="M92.5 210c-17.667 17.333 -26.5 39.333 -26.5 66c0 25.333 9 46.833 27 64.5s39.333 26.5 64 26.5s45.834 -8.83301 63.501 -26.5s26.5 -39.167 26.5 -64.5c0 -26.667 -8.83301 -48.667 -26.5 -66s-38.834 -26 -63.501 -26c-25.333 0 -46.833 8.66699 -64.5 26z" />
    <glyph glyph-name="ellipsis" unicode="&#x2026;" horiz-adv-x="691" 
d="M66 13.5c-13.333 13 -20.001 29.5 -20.001 49.5c0 19.333 6.66699 35.5 20 48.5s29.333 19.5 48 19.5s34.334 -6.33301 47.001 -19s19 -29 19 -49s-6.5 -36.5 -19.5 -49.5s-28.5 -19.5 -46.5 -19.5c-18.667 0 -34.667 6.5 -48 19.5zM297.999 13.5
c-13.333 13 -20.001 29.5 -20.001 49.5c0 19.333 6.66699 35.5 20 48.5s29.333 19.5 48 19.5s34.334 -6.33301 47.001 -19s19 -29 19 -49s-6.5 -36.5 -19.5 -49.5s-28.5 -19.5 -46.5 -19.5c-18.667 0 -34.667 6.5 -48 19.5zM529.998 13.5
c-13.333 13 -20.001 29.5 -20.001 49.5c0 19.333 6.66699 35.5 20 48.5s29.333 19.5 48 19.5s34.334 -6.33301 47.001 -19s19 -29 19 -49s-6.5 -36.5 -19.5 -49.5s-28.5 -19.5 -46.5 -19.5c-18.667 0 -34.667 6.5 -48 19.5z" />
    <glyph glyph-name="minute" unicode="&#x2032;" horiz-adv-x="210" 
d="M63 700h84l-7 -270h-71z" />
    <glyph glyph-name="second" unicode="&#x2033;" horiz-adv-x="391" 
d="M63 700h84l-7 -270h-71zM245 700h83l-7 -270h-70z" />
    <glyph glyph-name="guilsinglleft" unicode="&#x2039;" horiz-adv-x="312" 
d="M46 265l144 192h88l-141 -192l141 -191h-88z" />
    <glyph glyph-name="guilsinglright" unicode="&#x203a;" horiz-adv-x="312" 
d="M34 74l141 191l-141 192h88l144 -192l-144 -191h-88z" />
    <glyph glyph-name="fraction" unicode="&#x2044;" horiz-adv-x="174" 
d="M288 700h76l-478 -700h-76z" />
    <glyph glyph-name="uni2074" unicode="&#x2074;" horiz-adv-x="430" 
d="M403 426h-81v-99h-69v99h-231v47l201 269h78l-194 -258h152v83h63v-83h81v-58z" />
    <glyph glyph-name="Euro" unicode="&#x20ac;" horiz-adv-x="807" 
d="M705 165l64 -62.999c-31.333 -36 -70 -63.333 -116 -82s-96.333 -28 -151 -28c-58 0 -111.667 10.833 -161 32.5s-91 52.167 -125 91.5s-58 85 -72 137h-114v56h104c-1.33301 17.333 -2 31 -2 41s0.666992 23.667 2 41h-104v56h114c14 52 38 97.667 72 137
s75.667 69.833 125 91.5s103 32.5 161 32.5c55.333 0 105.833 -9.33301 151.5 -28s84.167 -45.667 115.5 -81l-64 -63c-52.667 55.333 -118.667 83 -198 83c-60.667 0 -114 -15.667 -160 -47s-78.333 -73 -97 -125h317v-56h-331c-2 -12.667 -3 -26.334 -3 -41.001
c0 -14 1 -27.667 3 -41h331v-56h-317c18.667 -52 51 -93.667 97 -125s99.333 -47 160 -47c78.667 0 144.667 28 198 84z" />
    <glyph glyph-name="uni2116" unicode="&#x2116;" horiz-adv-x="1204" 
d="M884.5 404c-27 14 -48.167 33.333 -63.5 58s-23 52.334 -23 83.001s7.66699 58.334 23 83.001s36.5 43.834 63.5 57.501s57.5 20.5 91.5 20.5s64.5 -6.83301 91.5 -20.5s48 -32.834 63 -57.501s22.5 -52.334 22.5 -83.001s-7.5 -58.334 -22.5 -83.001s-36 -44 -63 -58
s-57.5 -21 -91.5 -21s-64.5 7 -91.5 21zM607 700h100v-700h-82l-420 522v-522h-100v700h82l420 -522v522zM895.5 620c-20.333 -19.333 -30.502 -44.333 -30.502 -75s10.333 -55.667 31 -75s47.334 -29 80.001 -29s59.167 9.66699 79.5 29s30.5 44.333 30.5 75
s-10.167 55.667 -30.5 75s-46.833 29 -79.5 29c-33.333 0 -60.166 -9.66699 -80.499 -29zM817.998 304h316v-65h-316v65z" />
    <glyph glyph-name="trademark" unicode="&#x2122;" horiz-adv-x="1029" 
d="M4 700h374v-59h-151v-356h-72v356h-151v59zM855 285l-1 291l-156 -242h-33l-157 237v-286h-69v415h59l185 -284l181 284h59l1 -415h-69z" />
    <glyph glyph-name="arrowup" unicode="&#x2191;" horiz-adv-x="600" 
d="M504 275l-166 107v-327h-77v327l-165 -107v83l203 139l205 -139v-83z" />
    <glyph glyph-name="arrowdown" unicode="&#x2193;" horiz-adv-x="600" 
d="M514 273v-83l-203 -140l-205 140v83l166 -107v326h77v-326z" />
    <glyph glyph-name="minus" unicode="&#x2212;" horiz-adv-x="582" 
d="M67 389h448v-79h-448v79z" />
    <glyph glyph-name="uni2215" unicode="&#x2215;" horiz-adv-x="352" 
d="M302 842h87l-330 -942h-87z" />
    <glyph glyph-name="Iacute_J.loclNLD" horiz-adv-x="720" 
d="M238 887h105l-168 -130h-74zM660 887h105l-168 -130h-74zM197 13.5c-41.333 13 -78 30.834 -110 53.501l39 79c28.667 -20.667 60.167 -36.334 94.5 -47.001s68.833 -16 103.5 -16c64 0 112.833 18.333 146.5 55s50.5 92 50.5 166v396h100v-392
c0 -100.667 -26.333 -178.167 -79 -232.5s-124.334 -81.5 -215.001 -81.5c-45.333 0 -88.666 6.5 -129.999 19.5zM99 700.001h100v-391h-100v391z" />
    <glyph glyph-name="i.loclTRK" horiz-adv-x="279" 
d="M91 530h96v-530h-96v530zM97 642c-11.333 11.333 -17 25.333 -17 42s5.66699 30.667 17 42s25.333 17 42 17s30.667 -5.66699 42 -17s17 -25.333 17 -42s-5.66699 -30.667 -17 -42s-25.333 -17 -42 -17s-30.667 5.66699 -42 17z" />
    <glyph glyph-name="uni0237" horiz-adv-x="284" 
d="M-42 -192c-20 5.33301 -36.667 13.332 -50 23.999l31 74c20 -16.667 46 -25 78 -25c25.333 0 44.833 7.83301 58.5 23.5s20.5 38.834 20.5 69.501v556h96v-554c0 -54.667 -14.667 -97.667 -44 -129s-71 -47 -125 -47c-23.333 0 -45 2.66699 -65 8z" />
    <glyph glyph-name="iacute_j.loclNLD" horiz-adv-x="562" 
d="M209 737h104l-167 -130h-74zM493 737h104l-168 -130h-74zM91 530h96v-530h-96v530zM240 -191.5c-20.667 5.66699 -37.999 13.834 -51.999 24.501l29 73c20 -16.667 45 -25 75 -25c26 0 46.167 8 60.5 24s21.5 39 21.5 69v556h96v-559
c0 -52.667 -14.5 -94.334 -43.5 -125.001s-69.5 -46 -121.5 -46c-22.667 0 -44.334 2.83301 -65.001 8.5z" />
    <glyph glyph-name="uni0414.loclBGR" horiz-adv-x="793" 
d="M779 87v-240h-93v153h-579v-153h-93v240h75l259 613h98l255 -613h78zM190 87h403l-199 504z" />
    <glyph glyph-name="uni041B.loclBGR" horiz-adv-x="741" 
d="M619 0l-252 574l-253 -574h-101l308 700h99l308 -700h-109z" />
    <glyph glyph-name="uni0424.loclBGR" horiz-adv-x="925" 
d="M829.5 180.5c-30.333 -51 -73.166 -92.333 -128.499 -124s-119.333 -50.5 -192 -56.5v-51h-93v51c-72.667 5.33301 -136.834 23.833 -192.501 55.5s-98.667 73.167 -129 124.5s-45.5 108.333 -45.5 171s15.167 119.667 45.5 171s73.333 92.833 129 124.5
s119.834 50.167 192.501 55.5v48h93v-48c72.667 -6 136.667 -24.833 192 -56.5s98.166 -73 128.499 -124s45.5 -107.833 45.5 -170.5s-15.167 -119.5 -45.5 -170.5zM178 223c22 -38 53.5 -69 94.5 -93s88.833 -38.667 143.5 -44v530c-54.667 -5.33301 -102.5 -20 -143.5 -44
s-72.5 -55 -94.5 -93s-33 -80.667 -33 -128s11 -90 33 -128zM652 130c40.667 24 72 55 94 93s33 80.667 33 128s-11 90 -33 128s-53.333 69 -94 93s-88.334 38.667 -143.001 44v-530c54.667 5.33301 102.334 20 143.001 44z" />
    <glyph glyph-name="uni04AF" horiz-adv-x="574" 
d="M335 -2v-192h-97v192l-232 532h101l182 -424l186 424h93z" />
    <glyph glyph-name="uni0432.loclBGR" horiz-adv-x="638" 
d="M551.5 323.5c26.333 -31.667 39.499 -70.1641 39.499 -115.497c0 -46.667 -12.167 -86.334 -36.5 -119.001s-56.333 -57.167 -96 -73.5s-82.167 -24.5 -127.5 -24.5c-44 0 -85.5 8 -124.5 24s-70.5 40 -94.5 72s-36 71 -36 117v328c0 47.333 11.667 87.666 35 120.999
s53.833 58.333 91.5 75s77.5 25 119.5 25c41.333 0 79.833 -7.5 115.5 -22.5s64.334 -37.333 86.001 -67s32.5 -65.5 32.5 -107.5c0 -39.333 -10.167 -73.333 -30.5 -102s-48.833 -50 -85.5 -64c48 -12.667 85.167 -34.834 111.5 -66.501zM171.999 420.003h138
c46.667 0 83.167 10.333 109.5 31s39.5 51.667 39.5 93c0 40 -13.833 71 -41.5 93s-60.5 33 -98.5 33c-40 0 -74.5 -12.167 -103.5 -36.5s-43.5 -59.5 -43.5 -105.5v-108zM409.499 87.5029c24.333 11 44.168 27.166 59.501 48.499s23 47.333 23 78
c0 43.333 -13.833 76 -41.5 98s-67.167 33 -118.5 33h-160v-133c0 -45.333 15.667 -80.166 47 -104.499s68.666 -36.5 111.999 -36.5c28 0 54.167 5.5 78.5 16.5z" />
    <glyph glyph-name="uni0433.loclBGR" horiz-adv-x="545" 
d="M110 35c-42.667 27.333 -64.0039 66 -64.0039 116c0 34 9.33301 60.833 28 80.5s41 33.834 67 42.501s60.667 17.334 104 26.001c32 6 57 11.667 75 17s33.167 13.166 45.5 23.499s18.5 23.833 18.5 40.5c0 24.667 -10.833 43.5 -32.5 56.5s-52.167 19.5 -91.5 19.5
c-29.333 0 -59.166 -4.16699 -89.499 -12.5s-56.166 -18.833 -77.499 -31.5l-33 72c28.667 16 60.667 29 96 39s70 15 104 15c67.333 0 121.333 -14 162 -42s61 -67.667 61 -119c0 -34.667 -9.5 -62 -28.5 -82s-42.167 -34.5 -69.5 -43.5s-62.333 -17.5 -105 -25.5
c-46.667 -9.33301 -81.167 -19 -103.5 -29s-33.5 -26.333 -33.5 -49c0 -24.667 11.833 -43.334 35.5 -56.001s55.5 -19 95.5 -19c36.667 0 72.334 5.33301 107.001 16s64.334 23.667 89.001 39l32 -70c-30.667 -20 -65.667 -35.833 -105 -47.5s-80 -17.5 -122 -17.5
c-67.333 0 -122.333 13.667 -165 41z" />
    <glyph glyph-name="uni0434.loclBGR" horiz-adv-x="691" 
d="M597 530v-458c0 -92.667 -23 -161.167 -69 -205.5s-114.667 -66.5 -206 -66.5c-50 0 -97.667 6.83301 -143 20.5s-82 33.167 -110 58.5l46 74c24.667 -21.333 55.167 -38.166 91.5 -50.499s73.833 -18.5 112.5 -18.5c62 0 107.833 14.667 137.5 44s44.5 74 44.5 134v42
c-22.667 -27.333 -50.5 -47.833 -83.5 -61.5s-68.833 -20.5 -107.5 -20.5c-50.667 0 -96.5 10.833 -137.5 32.5s-73.167 52 -96.5 91s-35 83.5 -35 133.5s11.667 94.5 35 133.5s55.5 69.167 96.5 90.5s86.833 32 137.5 32c40 0 77.167 -7.33301 111.5 -22
s62.5 -36.334 84.5 -65.001v82h91zM414.5 128c27.667 14.667 49.3311 35.167 64.998 61.5s23.5 56.166 23.5 89.499c0 51.333 -17 92.833 -51 124.5s-77.667 47.5 -131 47.5c-54 0 -98 -15.833 -132 -47.5s-51 -73.167 -51 -124.5c0 -33.333 7.83301 -63.166 23.5 -89.499
s37.334 -46.833 65.001 -61.5s59.167 -22 94.5 -22c34.667 0 65.834 7.33301 93.501 22z" />
    <glyph glyph-name="uni0436.loclBGR" horiz-adv-x="849" 
d="M575 224h-103v-224h-96v224h-103l-146 -224h-114l182 274l-168 256h102l143 -224h104v436h96v-436h104l143 224h103l-168 -257l182 -273h-114z" />
    <glyph glyph-name="uni0437.loclBGR" horiz-adv-x="494" 
d="M409.5 121.5c23.667 -30.333 35.502 -66.834 35.502 -109.501c0 -40.667 -11.167 -77 -33.5 -109s-52.833 -57 -91.5 -75s-81.667 -27 -129 -27c-35.333 0 -70 5.16699 -104 15.5s-66 25.5 -96 45.5l29 71c56 -34 111 -51 165 -51c48.667 0 88.167 12.5 118.5 37.5
s45.5 57.5 45.5 97.5c0 37.333 -12 66.833 -36 88.5s-56.333 32.5 -97 32.5h-113v76h106c35.333 0 63.666 10.833 84.999 32.5s32 50.167 32 85.5c0 37.333 -12.667 67.166 -38 89.499s-59.333 33.5 -102 33.5c-45.333 0 -96 -11.333 -152 -34l-28 73
c67.333 29.333 131 44 191 44c44.667 0 84 -8 118 -24s60.333 -38.333 79 -67s28 -62 28 -100c0 -39.333 -9.83301 -73.666 -29.5 -102.999s-45.834 -49.666 -78.501 -60.999c40 -10.667 71.833 -31.167 95.5 -61.5z" />
    <glyph glyph-name="uni0438.loclBGR" horiz-adv-x="670" 
d="M576 530l0.000976562 -530.001h-91v80c-19.333 -27.333 -44.833 -48.5 -76.5 -63.5s-66.167 -22.5 -103.5 -22.5c-70.667 0 -126.334 19.5 -167.001 58.5s-61 96.5 -61 172.5v305h96v-294c0 -51.333 12.333 -90.166 37 -116.499s60 -39.5 106 -39.5
c50.667 0 90.667 15.333 120 46s44 74 44 130v274h96z" />
    <glyph glyph-name="uni0439.loclBGR" horiz-adv-x="670" 
d="M576 530l0.000976562 -530.001h-91v80c-19.333 -27.333 -44.833 -48.5 -76.5 -63.5s-66.167 -22.5 -103.5 -22.5c-70.667 0 -126.334 19.5 -167.001 58.5s-61 96.5 -61 172.5v305h96v-294c0 -51.333 12.333 -90.166 37 -116.499s60 -39.5 106 -39.5
c50.667 0 90.667 15.333 120 46s44 74 44 130v274h96zM211.001 634.499c-27.333 23.667 -41.334 57.834 -42.001 102.501h65c0.666992 -24.667 9.16699 -44.5 25.5 -59.5s38.166 -22.5 65.499 -22.5s49.333 7.5 66 22.5s25.334 34.833 26.001 59.5h67
c-0.666992 -44.667 -15 -78.834 -43 -102.501s-66.333 -35.5 -115 -35.5c-49.333 0 -87.666 11.833 -114.999 35.5z" />
    <glyph glyph-name="uni045D.loclBGR" horiz-adv-x="670" 
d="M576 530l0.000976562 -530.001h-91v80c-19.333 -27.333 -44.833 -48.5 -76.5 -63.5s-66.167 -22.5 -103.5 -22.5c-70.667 0 -126.334 19.5 -167.001 58.5s-61 96.5 -61 172.5v305h96v-294c0 -51.333 12.333 -90.166 37 -116.499s60 -39.5 106 -39.5
c50.667 0 90.667 15.333 120 46s44 74 44 130v274h96zM143.001 736.999h122l136 -130h-90z" />
    <glyph glyph-name="uni043A.loclBGR" horiz-adv-x="597" 
d="M298 224h-108v-224h-96v742h96v-436h110l173 224h103l-201 -256l215 -274h-114z" />
    <glyph glyph-name="uni043B.loclBGR" horiz-adv-x="572" 
d="M466 0l-182 423l-185 -423h-94l231 530h100l231 -530h-101z" />
    <glyph glyph-name="uni043D.loclBGR" horiz-adv-x="681" 
d="M93 530h96v-225h302v225h96v-530h-96v222h-302v-222h-96v530z" />
    <glyph glyph-name="uni043F.loclBGR" horiz-adv-x="674" 
d="M536.5 476.5c39.667 -39 59.5 -96.167 59.5 -171.5v-305h-96v294c0 51.333 -12.333 90 -37 116s-60 39 -106 39c-52 0 -93 -15.167 -123 -45.5s-45 -73.833 -45 -130.5v-273h-96v530h92v-80c19.333 27.333 45.5 48.333 78.5 63s70.5 22 112.5 22
c67.333 0 120.833 -19.5 160.5 -58.5z" />
    <glyph glyph-name="uni0442.loclBGR" horiz-adv-x="1051" 
d="M914.5 477c39 -38.667 58.502 -95.999 58.502 -171.999v-305h-96v294c0 51.333 -11.833 90 -35.5 116s-57.5 39 -101.5 39c-48.667 0 -87.334 -15.167 -116.001 -45.5s-43 -73.833 -43 -130.5v-273h-96v294c0 51.333 -11.833 90 -35.5 116s-57.5 39 -101.5 39
c-48.667 0 -87.334 -15.167 -116.001 -45.5s-43 -73.833 -43 -130.5v-273h-96v530h92v-79c19.333 27.333 44.666 48.166 75.999 62.499s67 21.5 107 21.5c41.333 0 78 -8.33301 110 -25s56.667 -41 74 -73c20 30.667 47.833 54.667 83.5 72s75.834 26 120.501 26
c66.667 0 119.5 -19.333 158.5 -58z" />
    <glyph glyph-name="uni0447.loclBGR" horiz-adv-x="611" 
d="M517 530v-530h-96v245c-12.667 -24.667 -34.167 -43.834 -64.5 -57.501s-67.166 -20.5 -110.499 -20.5c-64 0 -113.667 15.333 -149 46s-53 76.667 -53 138v179h96v-176c0 -36 11.667 -63.333 35 -82s55.666 -28 96.999 -28c43.333 0 79 9.33301 107 28
s42 45.334 42 80.001v178h96z" />
    <glyph glyph-name="uni0446.loclBGR" horiz-adv-x="695" 
d="M576 530l0.000976562 -530.001h-91v80c-19.333 -27.333 -44.833 -48.5 -76.5 -63.5s-66.167 -22.5 -103.5 -22.5c-70.667 0 -126.334 19.5 -167.001 58.5s-61 96.5 -61 172.5v305h96v-294c0 -51.333 12.333 -90.166 37 -116.499s60 -39.5 106 -39.5
c50.667 0 90.667 15.333 120 46s44 74 44 130v274h96zM663.001 83.999v-197h-90v113h-89v84h179z" />
    <glyph glyph-name="uni0448.loclBGR" horiz-adv-x="1051" 
d="M957 528l-0.000976562 -530.004h-91v80c-18.667 -27.333 -44 -48.333 -76 -63s-68 -22 -108 -22c-41.333 0 -77.833 8.16699 -109.5 24.5s-56.167 40.833 -73.5 73.5c-20 -30.667 -48 -54.667 -84 -72s-76 -26 -120 -26c-66.667 0 -119.5 19.333 -158.5 58
s-58.5 96 -58.5 172v305h96v-294c0 -51.333 11.833 -90.166 35.5 -116.499s57.5 -39.5 101.5 -39.5c48.667 0 87.334 15.333 116.001 46s43 74.334 43 131.001v273h96v-294c0 -51.333 11.833 -90.166 35.5 -116.499s57.5 -39.5 101.5 -39.5c48.667 0 87.167 15.333 115.5 46
s42.5 74.334 42.5 131.001v273h96z" />
    <glyph glyph-name="uni0449.loclBGR" horiz-adv-x="1076" 
d="M957 528l-0.000976562 -530.004h-91v80c-18.667 -27.333 -44 -48.333 -76 -63s-68 -22 -108 -22c-41.333 0 -77.833 8.16699 -109.5 24.5s-56.167 40.833 -73.5 73.5c-20 -30.667 -48 -54.667 -84 -72s-76 -26 -120 -26c-66.667 0 -119.5 19.333 -158.5 58
s-58.5 96 -58.5 172v305h96v-294c0 -51.333 11.833 -90.166 35.5 -116.499s57.5 -39.5 101.5 -39.5c48.667 0 87.334 15.333 116.001 46s43 74.334 43 131.001v273h96v-294c0 -51.333 11.833 -90.166 35.5 -116.499s57.5 -39.5 101.5 -39.5c48.667 0 87.167 15.333 115.5 46
s42.5 74.334 42.5 131.001v273h96zM1045 83.9961v-197h-90v113h-89v84h179z" />
    <glyph glyph-name="uni044C.loclBGR" horiz-adv-x="576" 
d="M139.5 42.5c-39.667 36.333 -59.502 88.5 -59.502 156.5v331h96v-213c14.667 18.667 35.834 33.834 63.501 45.501s59.834 17.5 96.501 17.5c65.333 0 116 -16.5 152 -49.5s54 -79.167 54 -138.5c0 -62.667 -20.5 -112.334 -61.5 -149.001s-96.833 -55 -167.5 -55
c-76 0 -133.833 18.167 -173.5 54.5zM409.998 97.5c22.667 24.333 33.999 55.501 33.999 93.501c0 35.333 -11.5 64 -34.5 86s-55.833 33 -98.5 33c-32 0 -59.5 -6.33301 -82.5 -19s-40.5 -30.334 -52.5 -53.001v-47c0 -40.667 11.833 -72.5 35.5 -95.5
s57.834 -34.5 102.501 -34.5c41.333 0 73.333 12.167 96 36.5z" />
    <glyph glyph-name="uni044A.loclBGR" horiz-adv-x="668" 
d="M580 330.5c36 -33 53.998 -79.167 53.998 -138.5c0 -62.667 -20.5 -112.334 -61.5 -149.001s-96.833 -55 -167.5 -55c-76 0 -133.833 18.167 -173.5 54.5s-59.5 88.5 -59.5 156.5v247h-167v84h263v-213c14.667 18.667 35.834 33.834 63.501 45.501
s59.834 17.5 96.501 17.5c65.333 0 116 -16.5 152 -49.5zM501.998 97.5c22.667 24.333 33.999 55.501 33.999 93.501c0 35.333 -11.5 64 -34.5 86s-55.833 33 -98.5 33c-32 0 -59.5 -6.33301 -82.5 -19s-40.5 -30.334 -52.5 -53.001v-47c0 -40.667 11.833 -72.5 35.5 -95.5
s57.834 -34.5 102.501 -34.5c41.333 0 73.333 12.167 96 36.5z" />
    <glyph glyph-name="uni044E.loclBGR" horiz-adv-x="855" 
d="M679.5 500.5c41 -23 72.999 -55 95.999 -96s34.5 -87.5 34.5 -139.5s-11.5 -98.5 -34.5 -139.5s-55 -73.167 -96 -96.5s-87.167 -35 -138.5 -35c-46.667 0 -89 9.66699 -127 29s-69.167 46.5 -93.5 81.5s-39.166 74.833 -44.499 119.5h-86v-224h-96v742h96v-429h87
c6.66699 44 22 82.833 46 116.5s54.833 59.667 92.5 78s79.5 27.5 125.5 27.5c51.333 0 97.5 -11.5 138.5 -34.5zM629.999 101c26.667 15.333 47.5 37.166 62.5 65.499s22.5 61.166 22.5 98.499c0 36.667 -7.5 69.167 -22.5 97.5s-35.833 50.166 -62.5 65.499
s-56.334 23 -89.001 23s-62.167 -7.66699 -88.5 -23s-47 -37.166 -62 -65.499s-22.5 -60.833 -22.5 -97.5c0 -37.333 7.5 -70.166 22.5 -98.499s35.667 -50.166 62 -65.499s55.833 -23 88.5 -23s62.334 7.66699 89.001 23z" />
    <glyph glyph-name="uni0453.loclMKD" horiz-adv-x="488" 
d="M483 446h-294v-446h-96v530h390v-84zM352 735h122l-168 -130h-90z" />
    <glyph glyph-name="uni0431.loclSRB" horiz-adv-x="622" 
d="M542.5 380c26.333 -38 39.499 -82.001 39.499 -132.001c0 -49.333 -11.667 -93.5 -35 -132.5s-55.833 -69.333 -97.5 -91s-88.5 -32.5 -140.5 -32.5s-98.5 10.667 -139.5 32s-73 51 -96 89s-34.5 80.667 -34.5 128c0 44.667 10.333 84.5 31 119.5s49.334 62 86.001 81
s77.667 28.167 123 27.5c-64 29.333 -110.833 58.333 -140.5 87s-44.5 58.334 -44.5 89.001c0 29.333 10.833 52.833 32.5 70.5s51.167 26.5 88.5 26.5h319v-82h-287c-18 0 -32 -3.33301 -42 -10s-15 -15.667 -15 -27c0 -20 18.5 -41 55.5 -63s96.833 -51 179.5 -87
c52 -24 91.167 -55 117.5 -93zM400.499 94.499c27 14.333 48.167 34.332 63.5 59.999s23 54.5 23 86.5c0 32.667 -7.66699 61.834 -23 87.501s-36.5 45.667 -63.5 60s-57.5 21.5 -91.5 21.5c-51.333 0 -93.333 -15.667 -126 -47s-49 -72 -49 -122
c0 -32 7.5 -60.833 22.5 -86.5s35.667 -45.667 62 -60s56.5 -21.5 90.5 -21.5s64.5 7.16699 91.5 21.5z" />
    <glyph glyph-name="uni0433.loclSRB" horiz-adv-x="279" 
d="M91 530h96v-530h-96v530zM6 702h266v-60h-266v60z" />
    <glyph glyph-name="uni0434.loclSRB" horiz-adv-x="691" 
d="M595 530v-458c0 -92.667 -23 -161.167 -69 -205.5s-114.667 -66.5 -206 -66.5c-50 0 -97.667 6.83301 -143 20.5s-82 33.167 -110 58.5l46 74c24.667 -21.333 55.167 -38.166 91.5 -50.499s73.833 -18.5 112.5 -18.5c62 0 107.833 14.667 137.5 44s44.5 74 44.5 134v42
c-22.667 -27.333 -50.5 -47.833 -83.5 -61.5s-68.833 -20.5 -107.5 -20.5c-50.667 0 -96.5 10.833 -137.5 32.5s-73.167 52 -96.5 91s-35 83.5 -35 133.5s11.667 94.5 35 133.5s55.5 69.167 96.5 90.5s86.833 32 137.5 32c40 0 77.167 -7.33301 111.5 -22
s62.5 -36.334 84.5 -65.001v82h91zM412.5 128c27.667 14.667 49.3311 35.167 64.998 61.5s23.5 56.166 23.5 89.499c0 51.333 -17 92.833 -51 124.5s-77.667 47.5 -131 47.5c-54 0 -98 -15.833 -132 -47.5s-51 -73.167 -51 -124.5c0 -33.333 7.83301 -63.166 23.5 -89.499
s37.334 -46.833 65.001 -61.5s59.167 -22 94.5 -22c34.667 0 65.834 7.33301 93.501 22z" />
    <glyph glyph-name="uni043F.loclSRB" horiz-adv-x="677" 
d="M585 530l0.000976562 -530.001h-91v80c-19.333 -27.333 -44.833 -48.5 -76.5 -63.5s-66.167 -22.5 -103.5 -22.5c-70.667 0 -126.334 19.5 -167.001 58.5s-61 96.5 -61 172.5v305h96v-294c0 -51.333 12.333 -90.166 37 -116.499s60 -39.5 106 -39.5
c50.667 0 90.667 15.333 120 46s44 74 44 130v274h96zM173.001 701.999h326v-60h-326v60z" />
    <glyph glyph-name="uni0442.loclSRB" horiz-adv-x="1051" 
d="M957 528l-0.000976562 -530.004h-91v80c-18.667 -27.333 -44 -48.333 -76 -63s-68 -22 -108 -22c-41.333 0 -77.833 8.16699 -109.5 24.5s-56.167 40.833 -73.5 73.5c-20 -30.667 -48 -54.667 -84 -72s-76 -26 -120 -26c-66.667 0 -119.5 19.333 -158.5 58
s-58.5 96 -58.5 172v305h96v-294c0 -51.333 11.833 -90.166 35.5 -116.499s57.5 -39.5 101.5 -39.5c48.667 0 87.334 15.333 116.001 46s43 74.334 43 131.001v273h96v-294c0 -51.333 11.833 -90.166 35.5 -116.499s57.5 -39.5 101.5 -39.5c48.667 0 87.167 15.333 115.5 46
s42.5 74.334 42.5 131.001v273h96zM192.027 699.996h651.98v-60h-651.98v60z" />
    <glyph glyph-name="uni03BC" horiz-adv-x="682" 
d="M590 530v-530.001h-91v82c-18 -30 -41.833 -52.167 -71.5 -66.5s-61.5 -21.5 -95.5 -21.5c-64 0 -112.333 20.333 -145 61v-249h-96v724h96v-294c0 -51.333 12.5 -90.166 37.5 -116.499s60.167 -39.5 105.5 -39.5c50.667 0 90.667 15.333 120 46s44 74 44 130v274h96z
" />
    <glyph glyph-name="zero.dnom" horiz-adv-x="430" 
d="M79.5 52.5c-34.333 38.333 -51.5 90.166 -51.5 155.499c0 64.667 17.167 116.167 51.5 154.5s79.5 57.5 135.5 57.5s101.167 -19.167 135.5 -57.5s51.5 -89.833 51.5 -154.5c0 -65.333 -17.167 -117.166 -51.5 -155.499s-79.5 -57.5 -135.5 -57.5
s-101.167 19.167 -135.5 57.5zM300 95c21.333 26.667 32 64.334 32 113.001s-10.667 86.167 -32 112.5s-49.666 39.5 -84.999 39.5s-63.666 -13.167 -84.999 -39.5s-32 -63.833 -32 -112.5s10.667 -86.334 32 -113.001s49.666 -40 84.999 -40s63.666 13.333 84.999 40z" />
    <glyph glyph-name="one.dnom" horiz-adv-x="430" 
d="M370 58v-58h-289v58h116v299h-108v58h179v-357h102z" />
    <glyph glyph-name="two.dnom" horiz-adv-x="430" 
d="M380 58v-57.999h-334v45l185 162c23.333 20.667 39.166 37.5 47.499 50.5s12.5 26.167 12.5 39.5c0 18.667 -8.33301 33.834 -25 45.501s-41.667 17.5 -75 17.5c-24.667 0 -46.667 -3.83301 -66 -11.5s-35.333 -18.834 -48 -33.501l-49 38
c35.333 44.667 91.333 67 168 67c52.667 0 93.334 -11 122.001 -33s43 -50.333 43 -85c0 -21.333 -5.33301 -41.333 -16 -60s-31 -41.334 -61 -68.001l-132 -116h228z" />
    <glyph glyph-name="three.dnom" horiz-adv-x="430" 
d="M345.5 205.5c23.667 -21.667 35.498 -49.166 35.498 -82.499c0 -36.667 -15.667 -67.167 -47 -91.5s-75.666 -36.5 -132.999 -36.5c-36 0 -69.833 4.66699 -101.5 14s-55.834 21.666 -72.501 36.999l28 53c16.667 -13.333 37.834 -24 63.501 -32s53.167 -12 82.5 -12
c36 0 63.333 6 82 18s28 28.667 28 50s-8.83301 37.833 -26.5 49.5s-44.167 17.5 -79.5 17.5h-47v47l112 120h-230v58h321v-45l-118 -127c44.667 -3.33301 78.834 -15.833 102.501 -37.5z" />
    <glyph glyph-name="four.dnom" horiz-adv-x="430" 
d="M403 99h-81v-99h-69v99h-231v47l201 269h78l-194 -258h152v83h63v-83h81v-58z" />
    <glyph glyph-name="five.dnom" horiz-adv-x="430" 
d="M382 122c0 -36.667 -15.6689 -66.999 -47.002 -90.999s-75.666 -36 -132.999 -36c-36.667 0 -70.667 4.66699 -102 14s-55.666 21.666 -72.999 36.999l28 53c16.667 -13.333 38 -24 64 -32s53.667 -12 83 -12c36 0 63.167 6 81.5 18s27.5 28.333 27.5 49
c0 22 -9.66699 38.5 -29 49.5s-53 16.5 -101 16.5h-117l25 227h265v-58h-208l-12 -112h57c127.333 0 191 -41 191 -123z" />
    <glyph glyph-name="six.dnom" horiz-adv-x="430" 
d="M353.5 219c29.667 -23.333 44.5 -53.668 44.5 -91.001c0 -40 -15.333 -72.167 -46 -96.5s-70.334 -36.5 -119.001 -36.5c-62.667 0 -111 17.833 -145 53.5s-51 86.167 -51 151.5c0 68 20.5 121.667 61.5 161s96.5 59 166.5 59c20.667 0 41 -2 61 -6s37 -10 51 -18
l-25 -55c-25.333 12.667 -54.666 19 -87.999 19c-48 0 -86.167 -13.167 -114.5 -39.5s-42.5 -62.5 -42.5 -108.5v-12c12 16.667 29.667 29.834 53 39.501s50 14.5 80 14.5c46 0 83.833 -11.667 113.5 -35zM301 69.498c17.333 13.667 26.002 31.833 26.002 54.5
c0 23.333 -8.66699 42 -26 56s-42 21 -74 21c-30.667 0 -55.667 -7.16699 -75 -21.5s-29 -32.833 -29 -55.5c0 -20 9.16699 -37.5 27.5 -52.5s45.166 -22.5 80.499 -22.5c29.333 0 52.666 6.83301 69.999 20.5z" />
    <glyph glyph-name="seven.dnom" horiz-adv-x="430" 
d="M399 415v-45l-194 -370h-78l187 357h-215v-72h-63v130h363z" />
    <glyph glyph-name="eight.dnom" horiz-adv-x="430" 
d="M382 177c13.333 -17.333 20 -38.001 20 -62.001c0 -36 -16.833 -65 -50.5 -87s-79.5 -33 -137.5 -33c-57.333 0 -102.666 10.833 -135.999 32.5s-50 50.834 -50 87.501c0 24 6.66699 44.667 20 62s32.666 30.666 57.999 39.999c-42.667 18 -64 48 -64 90
c0 33.333 15.667 60.5 47 81.5s73 31.5 125 31.5c52.667 0 94.834 -10.5 126.501 -31.5s47.5 -48.5 47.5 -82.5c0 -41.333 -21.333 -71 -64 -89c25.333 -9.33301 44.666 -22.666 57.999 -39.999zM139 349.999c-18 -11.333 -27 -26.3311 -27 -44.998s9 -33.834 27 -45.501
s43 -17.5 75 -17.5c32.667 0 58.167 5.83301 76.5 17.5s27.5 26.5 27.5 44.5c0 19.333 -9.16699 34.666 -27.5 45.999s-43.833 17 -76.5 17c-32 0 -57 -5.66699 -75 -17zM300.5 67.501c21 13 31.5 30.167 31.5 51.5s-10.333 38.333 -31 51s-49.667 19 -87 19
c-36 0 -64.333 -6.33301 -85 -19s-31 -29.667 -31 -51s10.167 -38.5 30.5 -51.5s48.833 -19.5 85.5 -19.5s65.5 6.5 86.5 19.5z" />
    <glyph glyph-name="nine.dnom" horiz-adv-x="430" 
d="M342 366.5c34 -35.667 51 -86.165 51 -151.498c0 -68 -20.5 -121.667 -61.5 -161s-96.5 -59 -166.5 -59c-20.667 0 -41 2 -61 6s-37 10 -51 18l25 55c25.333 -12.667 54.666 -19 87.999 -19c48 0 86.167 13.167 114.5 39.5s42.5 62.5 42.5 108.5v12
c-12 -16.667 -29.667 -29.834 -53 -39.501s-50 -14.5 -80 -14.5c-46 0 -83.833 11.667 -113.5 35s-44.5 53.666 -44.5 90.999c0 40 15.333 72.167 46 96.5s70.334 36.5 119.001 36.5c62.667 0 111 -17.833 145 -53.5zM278 235.502c19.333 14.333 29 32.834 29 55.501
c0 20 -9.16699 37.5 -27.5 52.5s-45.166 22.5 -80.499 22.5c-30 0 -53.833 -6.83301 -71.5 -20.5s-26.5 -31.834 -26.5 -54.501s9 -41.167 27 -55.5s42.667 -21.5 74 -21.5s56.666 7.16699 75.999 21.5z" />
    <glyph glyph-name="zero.numr" horiz-adv-x="430" 
d="M79.5 337.5c-34.333 38.333 -51.5 90.166 -51.5 155.499c0 64.667 17.167 116.167 51.5 154.5s79.5 57.5 135.5 57.5s101.167 -19.167 135.5 -57.5s51.5 -89.833 51.5 -154.5c0 -65.333 -17.167 -117.166 -51.5 -155.499s-79.5 -57.5 -135.5 -57.5
s-101.167 19.167 -135.5 57.5zM300 380c21.333 26.667 32 64.334 32 113.001s-10.667 86.167 -32 112.5s-49.666 39.5 -84.999 39.5s-63.666 -13.167 -84.999 -39.5s-32 -63.833 -32 -112.5s10.667 -86.334 32 -113.001s49.666 -40 84.999 -40s63.666 13.333 84.999 40z" />
    <glyph glyph-name="one.numr" horiz-adv-x="430" 
d="M370 343v-58h-289v58h116v299h-108v58h179v-357h102z" />
    <glyph glyph-name="two.numr" horiz-adv-x="430" 
d="M380 343v-57.999h-334v45l185 162c23.333 20.667 39.166 37.5 47.499 50.5s12.5 26.167 12.5 39.5c0 18.667 -8.33301 33.834 -25 45.501s-41.667 17.5 -75 17.5c-24.667 0 -46.667 -3.83301 -66 -11.5s-35.333 -18.834 -48 -33.501l-49 38
c35.333 44.667 91.333 67 168 67c52.667 0 93.334 -11 122.001 -33s43 -50.333 43 -85c0 -21.333 -5.33301 -41.333 -16 -60s-31 -41.334 -61 -68.001l-132 -116h228z" />
    <glyph glyph-name="three.numr" horiz-adv-x="430" 
d="M345.5 490.5c23.667 -21.667 35.498 -49.166 35.498 -82.499c0 -36.667 -15.667 -67.167 -47 -91.5s-75.666 -36.5 -132.999 -36.5c-36 0 -69.833 4.66699 -101.5 14s-55.834 21.666 -72.501 36.999l28 53c16.667 -13.333 37.834 -24 63.501 -32s53.167 -12 82.5 -12
c36 0 63.333 6 82 18s28 28.667 28 50s-8.83301 37.833 -26.5 49.5s-44.167 17.5 -79.5 17.5h-47v47l112 120h-230v58h321v-45l-118 -127c44.667 -3.33301 78.834 -15.833 102.501 -37.5z" />
    <glyph glyph-name="four.numr" horiz-adv-x="430" 
d="M403 384h-81v-99h-69v99h-231v47l201 269h78l-194 -258h152v83h63v-83h81v-58z" />
    <glyph glyph-name="five.numr" horiz-adv-x="430" 
d="M382 407c0 -36.667 -15.6689 -66.999 -47.002 -90.999s-75.666 -36 -132.999 -36c-36.667 0 -70.667 4.66699 -102 14s-55.666 21.666 -72.999 36.999l28 53c16.667 -13.333 38 -24 64 -32s53.667 -12 83 -12c36 0 63.167 6 81.5 18s27.5 28.333 27.5 49
c0 22 -9.66699 38.5 -29 49.5s-53 16.5 -101 16.5h-117l25 227h265v-58h-208l-12 -112h57c127.333 0 191 -41 191 -123z" />
    <glyph glyph-name="six.numr" horiz-adv-x="430" 
d="M353.5 504c29.667 -23.333 44.5 -53.668 44.5 -91.001c0 -40 -15.333 -72.167 -46 -96.5s-70.334 -36.5 -119.001 -36.5c-62.667 0 -111 17.833 -145 53.5s-51 86.167 -51 151.5c0 68 20.5 121.667 61.5 161s96.5 59 166.5 59c20.667 0 41 -2 61 -6s37 -10 51 -18
l-25 -55c-25.333 12.667 -54.666 19 -87.999 19c-48 0 -86.167 -13.167 -114.5 -39.5s-42.5 -62.5 -42.5 -108.5v-12c12 16.667 29.667 29.834 53 39.501s50 14.5 80 14.5c46 0 83.833 -11.667 113.5 -35zM301 354.498c17.333 13.667 26.002 31.833 26.002 54.5
c0 23.333 -8.66699 42 -26 56s-42 21 -74 21c-30.667 0 -55.667 -7.16699 -75 -21.5s-29 -32.833 -29 -55.5c0 -20 9.16699 -37.5 27.5 -52.5s45.166 -22.5 80.499 -22.5c29.333 0 52.666 6.83301 69.999 20.5z" />
    <glyph glyph-name="seven.numr" horiz-adv-x="430" 
d="M399 700v-45l-194 -370h-78l187 357h-215v-72h-63v130h363z" />
    <glyph glyph-name="eight.numr" horiz-adv-x="430" 
d="M382 462c13.333 -17.333 20 -38.001 20 -62.001c0 -36 -16.833 -65 -50.5 -87s-79.5 -33 -137.5 -33c-57.333 0 -102.666 10.833 -135.999 32.5s-50 50.834 -50 87.501c0 24 6.66699 44.667 20 62s32.666 30.666 57.999 39.999c-42.667 18 -64 48 -64 90
c0 33.333 15.667 60.5 47 81.5s73 31.5 125 31.5c52.667 0 94.834 -10.5 126.501 -31.5s47.5 -48.5 47.5 -82.5c0 -41.333 -21.333 -71 -64 -89c25.333 -9.33301 44.666 -22.666 57.999 -39.999zM139 634.999c-18 -11.333 -27 -26.3311 -27 -44.998s9 -33.834 27 -45.501
s43 -17.5 75 -17.5c32.667 0 58.167 5.83301 76.5 17.5s27.5 26.5 27.5 44.5c0 19.333 -9.16699 34.666 -27.5 45.999s-43.833 17 -76.5 17c-32 0 -57 -5.66699 -75 -17zM300.5 352.501c21 13 31.5 30.167 31.5 51.5s-10.333 38.333 -31 51s-49.667 19 -87 19
c-36 0 -64.333 -6.33301 -85 -19s-31 -29.667 -31 -51s10.167 -38.5 30.5 -51.5s48.833 -19.5 85.5 -19.5s65.5 6.5 86.5 19.5z" />
    <glyph glyph-name="nine.numr" horiz-adv-x="430" 
d="M342 651.5c34 -35.667 51 -86.165 51 -151.498c0 -68 -20.5 -121.667 -61.5 -161s-96.5 -59 -166.5 -59c-20.667 0 -41 2 -61 6s-37 10 -51 18l25 55c25.333 -12.667 54.666 -19 87.999 -19c48 0 86.167 13.167 114.5 39.5s42.5 62.5 42.5 108.5v12
c-12 -16.667 -29.667 -29.834 -53 -39.501s-50 -14.5 -80 -14.5c-46 0 -83.833 11.667 -113.5 35s-44.5 53.666 -44.5 90.999c0 40 15.333 72.167 46 96.5s70.334 36.5 119.001 36.5c62.667 0 111 -17.833 145 -53.5zM278 520.502c19.333 14.333 29 32.834 29 55.501
c0 20 -9.16699 37.5 -27.5 52.5s-45.166 22.5 -80.499 22.5c-30 0 -53.833 -6.83301 -71.5 -20.5s-26.5 -31.834 -26.5 -54.501s9 -41.167 27 -55.5s42.667 -21.5 74 -21.5s56.666 7.16699 75.999 21.5z" />
    <glyph glyph-name="periodcentered.loclCAT.case" horiz-adv-x="344" 
d="M144 382.5c-12 11.667 -18 26.5 -18 44.5s6 32.833 18 44.5s26.333 17.5 43 17.5s30.834 -5.83301 42.501 -17.5s17.5 -26.5 17.5 -44.5s-5.83301 -32.833 -17.5 -44.5s-25.834 -17.5 -42.501 -17.5s-31 5.83301 -43 17.5z" />
    <glyph glyph-name="periodcentered.loclCAT" horiz-adv-x="129" 
d="M61.5 237.5c-11 11 -16.5 24.5 -16.5 40.5s5.5 29.5 16.5 40.5s24.833 16.5 41.5 16.5c16 0 29.5 -5.5 40.5 -16.5s16.5 -24.5 16.5 -40.5s-5.5 -29.5 -16.5 -40.5s-24.5 -16.5 -40.5 -16.5c-16.667 0 -30.5 5.5 -41.5 16.5z" />
    <glyph glyph-name="uni0308" 
d="M-429 638.5c-10 9.66699 -15 21.834 -15 36.501s5 27 15 37s22 15 36 15s26 -5 36 -15s15 -22.333 15 -37s-5 -26.834 -15 -36.501s-22 -14.5 -36 -14.5s-26 4.83301 -36 14.5zM-243 638.5c-10 9.66699 -15 21.834 -15 36.501s5 27 15 37s22 15 36 15s26 -5 36 -15
s15 -22.333 15 -37s-5 -26.834 -15 -36.501s-22 -14.5 -36 -14.5s-26 4.83301 -36 14.5z" />
    <glyph glyph-name="uni0307" 
d="M-342 642c-11.333 11.333 -17 25.333 -17 42s5.66699 30.667 17 42s25.333 17 42 17s30.667 -5.66699 42 -17s17 -25.333 17 -42s-5.66699 -30.667 -17 -42s-25.333 -17 -42 -17s-30.667 5.66699 -42 17z" />
    <glyph glyph-name="gravecomb" 
d="M-483 737h122l136 -130h-90z" />
    <glyph glyph-name="acutecomb" 
d="M-239 737h122l-168 -130h-90z" />
    <glyph glyph-name="uni0302" 
d="M-208 607l-92 77l-92 -77h-87l133 130h92l133 -130h-87z" />
    <glyph glyph-name="uni030A" 
d="M-379 625.5c-21.333 21 -32 46.5 -32 76.5s10.667 55.833 32 77.5s47.333 32.5 78 32.5c31.333 0 57.666 -10.833 78.999 -32.5s32 -47.5 32 -77.5s-10.667 -55.5 -32 -76.5s-47.666 -31.5 -78.999 -31.5c-30.667 0 -56.667 10.5 -78 31.5zM-253.5 655
c12.333 12.667 18.502 28.334 18.502 47.001c0 19.333 -6.33301 35.333 -19 48s-28.334 19 -47.001 19s-34.167 -6.33301 -46.5 -19s-18.5 -28.667 -18.5 -48c0 -18.667 6.16699 -34.334 18.5 -47.001s27.833 -19 46.5 -19c19.333 0 35.166 6.33301 47.499 19z" />
    <glyph glyph-name="tildecomb" 
d="M-271.5 620c-11.667 6.66699 -26.168 16.666 -43.501 29.999c-10 9.33301 -18.667 16.166 -26 20.499s-14.666 6.5 -21.999 6.5c-14.667 0 -26.667 -5.5 -36 -16.5s-14.333 -26.167 -15 -45.5h-54c1.33301 37.333 10.833 67 28.5 89s40.834 33 69.501 33
c16 0 30.167 -3.5 42.5 -10.5s26.5 -17.167 42.5 -30.5c11.333 -9.33301 20.333 -16.166 27 -20.499s13.667 -6.5 21 -6.5c14.667 0 26.667 5.33301 36 16s14.333 25.334 15 44.001h54c-1.33301 -36 -10.833 -64.833 -28.5 -86.5s-40.834 -32.5 -69.501 -32.5
c-16 0 -29.833 3.33301 -41.5 10z" />
    <glyph glyph-name="uni0304" 
d="M-463 702h326v-60h-326v60z" />
    <glyph glyph-name="uni0327" 
d="M-414 -202l21 49c20 -11.333 42.667 -17 68 -17c37.333 0 56 13.333 56 40c0 12 -4.66699 21.5 -14 28.5s-23.666 10.5 -42.999 10.5h-27l25 98h55l-15 -57c28 -2.66699 49.5 -11.5 64.5 -26.5s22.5 -33.833 22.5 -56.5c0 -28 -11.333 -50.167 -34 -66.5
s-52.667 -24.5 -90 -24.5c-34.667 0 -64.334 7.33301 -89.001 22z" />
    <glyph glyph-name="uni0335" 
d="M-498 472h396v-68h-396v68z" />
    <glyph glyph-name="uni0338" 
d="M-119 599h59l-440 -669h-60z" />
    <glyph glyph-name="uni0308.case" 
d="M-429 788.5c-10 9.66699 -15 21.834 -15 36.501s5 27 15 37s22 15 36 15s26 -5 36 -15s15 -22.333 15 -37s-5 -26.834 -15 -36.501s-22 -14.5 -36 -14.5s-26 4.83301 -36 14.5zM-243 788.5c-10 9.66699 -15 21.834 -15 36.501s5 27 15 37s22 15 36 15s26 -5 36 -15
s15 -22.333 15 -37s-5 -26.834 -15 -36.501s-22 -14.5 -36 -14.5s-26 4.83301 -36 14.5z" />
    <glyph glyph-name="gravecomb.case" 
d="M-483 887h122l136 -130h-90z" />
    <glyph glyph-name="acutecomb.case" 
d="M-239 887h122l-168 -130h-90z" />
    <glyph glyph-name="uni0302.case" 
d="M-208 757l-92 77l-92 -77h-87l133 130h92l133 -130h-87z" />
    <glyph glyph-name="tildecomb.case" 
d="M-271.5 770c-11.667 6.66699 -26.168 16.666 -43.501 29.999c-10 9.33301 -18.667 16.166 -26 20.499s-14.666 6.5 -21.999 6.5c-14.667 0 -26.667 -5.5 -36 -16.5s-14.333 -26.167 -15 -45.5h-54c1.33301 37.333 10.833 67 28.5 89s40.834 33 69.501 33
c16 0 30.167 -3.5 42.5 -10.5s26.5 -17.167 42.5 -30.5c11.333 -9.33301 20.333 -16.166 27 -20.499s13.667 -6.5 21 -6.5c14.667 0 26.667 5.33301 36 16s14.333 25.334 15 44.001h54c-1.33301 -36 -10.833 -64.833 -28.5 -86.5s-40.834 -32.5 -69.501 -32.5
c-16 0 -29.833 3.33301 -41.5 10z" />
    <glyph glyph-name="uni0335.case" 
d="M-500 396h400v-79h-400v79z" />
    <glyph glyph-name="uni0338.case" 
d="M-151 770h78l-602 -840h-78z" />
    <glyph glyph-name="uni0307.i" 
d="M-346.5 650c-12.333 12 -18.5 26.668 -18.5 44.001s6.16699 32.166 18.5 44.499s27.833 18.5 46.5 18.5s34.167 -5.83301 46.5 -17.5s18.5 -26.167 18.5 -43.5c0 -18 -6.16699 -33.167 -18.5 -45.5s-27.833 -18.5 -46.5 -18.5s-34.167 6 -46.5 18z" />
    <glyph glyph-name="uni0308.narrow" 
d="M-407 639.5c-9.33301 9.66699 -14 21.5 -14 35.5c0 14.667 4.66699 26.834 14 36.501s21.333 14.5 36 14.5c14 0 25.667 -4.83301 35 -14.5s14 -21.834 14 -36.501s-4.66699 -26.667 -14 -36s-21 -14 -35 -14c-14.667 0 -26.667 4.83301 -36 14.5zM-264 639.5
c-9.33301 9.66699 -14 21.5 -14 35.5c0 14.667 4.66699 26.834 14 36.501s21 14.5 35 14.5c14.667 0 26.667 -4.83301 36 -14.5s14 -21.834 14 -36.501s-4.66699 -26.667 -14 -36s-21.333 -14 -36 -14c-14 0 -25.667 4.83301 -35 14.5z" />
    <glyph glyph-name="uni0302.narrow" 
d="M-228 607l-72 74l-72 -74h-82l109 130h90l109 -130h-82z" />
    <glyph glyph-name="uni0304.narrow" 
d="M-433 702h266v-60h-266v60z" />
    <glyph glyph-name="brevecombcy" 
d="M-339 634.5c-27.333 23.667 -41.334 57.834 -42.001 102.501h65c0.666992 -24.667 9.16699 -44.5 25.5 -59.5s38.166 -22.5 65.499 -22.5s49.333 7.5 66 22.5s25.334 34.833 26.001 59.5h67c-0.666992 -44.667 -15 -78.834 -43 -102.501s-66.333 -35.5 -115 -35.5
c-49.333 0 -87.666 11.833 -114.999 35.5z" />
    <glyph glyph-name="brevecombcy.case" 
d="M-361.5 784.5c-29.667 23.667 -44.832 57.5 -45.499 101.5h71c0.666992 -26 9.83398 -46.167 27.501 -60.5s42.167 -21.5 73.5 -21.5c30 0 54.167 7.16699 72.5 21.5s27.833 34.5 28.5 60.5h70c-0.666992 -43.333 -15.834 -77 -45.501 -101s-71.5 -36 -125.5 -36
c-54.667 0 -96.834 11.833 -126.501 35.5z" />
    <glyph glyph-name="descendercy" horiz-adv-x="330" 
d="M237 84v-197h-90v113h-89v84h179z" />
    <glyph glyph-name="descendercy.case" horiz-adv-x="343" 
d="M250 87v-240h-92v153h-113v87h205z" />
    </font>
</defs>
</svg>
